<svg width="9" height="15" viewBox="0 0 9 15" xmlns="http://www.w3.org/2000/svg">
<path d="M8.79652 4.32998C8.97876 4.14774 8.97876 3.85226 8.79652 3.67002L5.82667 0.700168C5.64443 0.517924 5.34895 0.517924 5.1667 0.700168C4.98446 0.882413 4.98446 1.17789 5.1667 1.36013L7.80657 4L5.1667 6.63986C4.98446 6.82211 4.98446 7.11759 5.1667 7.29983C5.34895 7.48208 5.64443 7.48208 5.82667 7.29983L8.79652 4.32998ZM0.533203 4.46667L8.46654 4.46667L8.46654 3.53333L0.533203 3.53333L0.533203 4.46667Z" fill="currentColor"/>
<path d="M0.203481 11.33C0.0212364 11.1477 0.0212364 10.8523 0.203481 10.67L3.17333 7.70017C3.35557 7.51792 3.65105 7.51792 3.8333 7.70017C4.01554 7.88241 4.01554 8.17789 3.8333 8.36013L1.19343 11L3.8333 13.6399C4.01554 13.8221 4.01554 14.1176 3.8333 14.2998C3.65105 14.4821 3.35557 14.4821 3.17333 14.2998L0.203481 11.33ZM8.4668 11.4667L0.533464 11.4667L0.533464 10.5333L8.4668 10.5333L8.4668 11.4667Z" fill="currentColor"/>
</svg>
