<svg width="27" height="27" viewBox="0 0 27 27" fill="none" xmlns="http://www.w3.org/2000/svg">
<path d="M20.0153 6.47705H7.02453C4.68058 6.47705 2.71129 8.10351 2.15803 10.9276L1.15687 18.2652C0.304671 23.6379 2.96429 25.9997 8.1694 25.9997H18.8237C23.6373 25.9997 26.5143 23.3376 25.9235 18.56L24.89 10.9768C24.2274 8.11756 22.3088 6.47705 20.0153 6.47705Z" fill="currentColor" stroke="currentColor" stroke-width="1.27982"/>
<path d="M19.9543 7.11724C19.9543 3.73883 17.0569 1.00005 13.4829 1.00005C11.7659 0.993223 10.1129 1.63467 8.89337 2.78259C7.67383 3.93051 6.98828 5.49037 6.98828 7.11724" stroke="currentColor" stroke-width="1.27982" stroke-linecap="round"/>
<path d="M17.2656 11.6455C17.7943 11.6455 18.2229 12.0506 18.2229 12.5503C18.2229 13.0084 17.8627 13.387 17.3955 13.4469L17.2656 13.4552H17.2072C16.6786 13.4552 16.25 13.0501 16.25 12.5503C16.25 12.0923 16.6101 11.7137 17.0773 11.6538L17.2072 11.6455H17.2656Z" fill="#F5F9FB"/>
<path d="M9.83009 11.6455C10.3587 11.6455 10.7873 12.0506 10.7873 12.5503C10.7873 13.0084 10.4272 13.387 9.95998 13.4469L9.83009 13.4552H9.77168C9.24302 13.4552 8.81445 13.0501 8.81445 12.5503C8.81445 12.0923 9.17457 11.7137 9.64179 11.6538L9.77168 11.6455H9.83009Z" fill="#F5F9FB"/>
</svg>
