<svg width="27" height="27" viewBox="0 0 27 27" fill="none" xmlns="http://www.w3.org/2000/svg">
<path fill-rule="evenodd" clip-rule="evenodd" d="M13.1855 25.7969C10.3295 23.9415 7.67251 21.7578 5.26222 19.285C3.56768 17.5041 2.27764 15.333 1.49092 12.938C0.0751892 8.29209 1.72885 2.97337 6.35674 1.39933C8.78896 0.572826 11.4453 1.04521 13.4949 2.66872C15.5452 1.04719 18.2006 0.574969 20.633 1.39933C25.2609 2.97337 26.9264 8.29209 25.5107 12.938C24.724 15.333 23.4339 17.5041 21.7394 19.285C19.3291 21.7578 16.6721 23.9415 13.8161 25.7969L13.5068 26L13.1855 25.7969Z" fill="currentColor" stroke="currentColor" stroke-width="1.27982" stroke-linecap="round" stroke-linejoin="round"/>
<path d="M18.4238 6.62988C19.8255 7.10252 20.8215 8.43086 20.946 9.99375" stroke="#F5F9FB" stroke-width="1.27982" stroke-linecap="round" stroke-linejoin="round"/>
</svg>
