<svg width="22" height="22" viewBox="0 0 22 22" xmlns="http://www.w3.org/2000/svg">
<path d="M21.4712 3.20508C21.4712 2.11855 20.349 1.30989 18.0404 0.732742C16.1504 0.260224 13.6501 0 11.0003 0C8.35053 0 5.85021 0.260224 3.96014 0.732742C1.65154 1.30989 0.529297 2.11855 0.529297 3.20508C0.529297 3.60711 0.683426 3.97103 0.993983 4.29934L8.12038 12.9432V21.2167C8.12038 21.4877 8.26041 21.7394 8.49067 21.8822C8.61671 21.9604 8.75987 21.9999 8.90356 21.9999C9.0224 21.9999 9.14144 21.9729 9.2514 21.9184L13.4362 19.8443C13.7025 19.7123 13.8711 19.4409 13.8715 19.1436L13.8796 12.9437L21.0069 4.29881C21.3173 3.97061 21.4712 3.60701 21.4712 3.20508ZM4.69309 2.16857C6.4189 1.78022 8.65879 1.56636 11.0003 1.56636C13.3418 1.56636 15.5818 1.78022 17.3074 2.16857C19.2131 2.59744 19.7488 3.05836 19.8769 3.20508C19.7487 3.35179 19.2131 3.81272 17.3074 4.24159C15.5818 4.62994 13.3417 4.8438 11.0003 4.8438C8.6589 4.8438 6.4189 4.62994 4.69309 4.24169C2.78746 3.81283 2.25166 3.3519 2.12353 3.20518C2.25166 3.05836 2.78746 2.59744 4.69309 2.16857ZM12.4926 12.1639C12.3772 12.3039 12.3139 12.4796 12.3137 12.6611L12.3059 18.6564L9.68684 19.9545V12.6621C9.68684 12.4803 9.62367 12.3041 9.50797 12.1639L4.20919 5.73683C6.06731 6.17145 8.46467 6.41026 11.0003 6.41026C13.536 6.41026 15.9333 6.17145 17.7914 5.73683L12.4926 12.1639Z" fill="currentColor"/>
</svg>
