<svg width="15" height="14" viewBox="0 0 15 14" xmlns="http://www.w3.org/2000/svg">
<path d="M7.49916 13.5391C7.42829 13.538 7.35888 13.5189 7.29747 13.4835C7.22096 13.4487 5.49614 12.4681 3.74351 10.8963C1.34406 8.73327 0.126954 6.58421 0.126954 4.49773C0.126323 3.63448 0.402644 2.79379 0.915298 2.09924C1.42795 1.40469 2.1499 0.892923 2.97501 0.639161C3.80013 0.385399 4.68489 0.403029 5.49924 0.68946C6.31359 0.975891 7.01458 1.51601 7.49916 2.23043C7.98374 1.51601 8.68472 0.975891 9.49907 0.68946C10.3134 0.403029 11.1982 0.385399 12.0233 0.639161C12.8484 0.892923 13.5704 1.40469 14.083 2.09924C14.5957 2.79379 14.872 3.63448 14.8714 4.49773C14.8714 6.58421 13.6543 8.73327 11.2548 10.8963C9.50217 12.4681 7.77735 13.4487 7.70085 13.4835C7.63944 13.5189 7.57002 13.538 7.49916 13.5391ZM4.1608 1.29847C3.31231 1.29847 2.49856 1.63554 1.89858 2.23552C1.29861 2.83549 0.961543 3.64924 0.961543 4.49773C0.961543 8.4829 6.37246 11.9604 7.49916 12.635C8.62585 11.9604 14.0368 8.4829 14.0368 4.49773C14.0384 3.75694 13.7829 3.03855 13.3139 2.46515C12.8448 1.89175 12.1914 1.49889 11.4649 1.35361C10.7385 1.20833 9.98423 1.31963 9.33075 1.66853C8.67726 2.01742 8.1651 2.58229 7.88168 3.26671C7.85174 3.34383 7.79919 3.41009 7.73093 3.45681C7.66267 3.50354 7.58188 3.52854 7.49916 3.52854C7.41644 3.52854 7.33565 3.50354 7.26739 3.45681C7.19912 3.41009 7.14658 3.34383 7.11664 3.26671C6.87345 2.68337 6.46294 2.18511 5.93688 1.83482C5.41083 1.48453 4.79281 1.2979 4.1608 1.29847Z" fill="currentColor"/>
</svg>
