<svg width="18" height="22" viewBox="0 0 18 22" fill="none" xmlns="http://www.w3.org/2000/svg">
<path d="M4.69945 2.74C5.94141 1.95498 7.41701 1.5 9 1.5C13.4183 1.5 17 5.04441 17 9.41667C17 14.8445 10.6 20.5 9 20.5C7.4 20.5 1 14.8445 1 9.41667C1 8.02506 1.36284 6.71732 2 5.58103" stroke="currentColor" stroke-width="1.5" stroke-linecap="round"/>
<path d="M11.8842 9.82816C11.9596 9.56512 12 9.28727 12 9C12 7.34315 10.6569 6 9 6C7.34315 6 6 7.34315 6 9C6 10.6569 7.34315 12 9 12C9.23007 12 9.4541 11.9741 9.66932 11.9251" stroke="currentColor" stroke-width="1.5" stroke-linecap="round"/>
</svg>
