<svg width="20" height="21" viewBox="0 0 20 21" fill="none" xmlns="http://www.w3.org/2000/svg">
<path d="M5.90717 2.36067C5.00763 1.79874 3.82782 1.89183 3.06847 2.65118L1.7817 3.93795C-0.172609 5.89227 1.66372 10.8972 5.88327 15.1167C10.1028 19.3363 15.1077 21.1726 17.0621 19.2183L18.3488 17.9315C19.2371 17.0432 19.2137 15.5795 18.2964 14.6622L16.3033 12.6691C15.386 11.7518 13.9222 11.7283 13.0339 12.6166L12.7575 12.893C12.2779 13.3726 11.5042 13.4196 10.9641 12.9739C10.4432 12.544 9.92435 12.0806 9.42188 11.5781C8.9194 11.0756 8.45597 10.5568 8.0261 10.0359C7.58045 9.49581 7.62737 8.72209 8.10699 8.24247L8.38337 7.96609C9.08368 7.26578 9.21731 6.20785 8.79308 5.34197" stroke="currentColor" stroke-width="1.5" stroke-linecap="round"/>
<path d="M15.6262 7.75071C15.3822 7.15553 15.0186 6.5979 14.5353 6.11463C14.0793 5.65865 13.5572 5.30918 12.9997 5.06622" stroke="currentColor" stroke-width="1.5" stroke-linecap="round"/>
<path d="M12.9992 1.66341C14.3338 2.14691 15.5861 2.92365 16.656 3.99364C17.7529 5.09049 18.5416 6.37883 19.0221 7.75113" stroke="currentColor" stroke-width="1.5" stroke-linecap="round"/>
</svg>
