<svg width="22" height="22" viewBox="0 0 22 22" xmlns="http://www.w3.org/2000/svg">
<path d="M13.5743 5.41784L13.549 5.43556C13.202 5.6757 12.961 6.03359 12.8731 6.43935C12.2433 6.02245 11.4112 5.98835 10.7917 6.42212C10.414 6.69057 10.1655 7.09677 10.103 7.5486C9.50265 7.23964 8.77423 7.25492 8.21632 7.64557L8.18938 7.66443C7.88701 7.86932 7.66646 8.16861 7.56388 8.51296L5.00796 5.10295C4.3903 4.2789 3.23106 4.06844 2.43218 4.62783C1.63418 5.18659 1.48292 6.314 2.0997 7.13779L7.16414 13.9081L6.42362 13.7175C5.76658 13.5402 5.06609 13.6349 4.48933 13.979C3.92631 14.3185 3.53546 14.87 3.40963 15.5032L3.27548 16.018C3.23226 16.1841 3.31467 16.3579 3.47332 16.4356L11.4559 20.3399C12.9151 21.0532 14.6007 20.9553 15.8513 20.0796L19.5882 17.463L19.5858 17.4598C21.4805 16.1331 21.813 13.4514 20.3368 11.4781C19.6762 10.5952 19.1799 9.93998 18.781 9.40659C17.7141 7.97924 17.3182 7.45409 16.1369 5.88565C15.5188 5.06482 14.371 4.86001 13.5743 5.41784ZM18.1687 9.83222C18.5677 10.3658 19.0617 11.0266 19.7221 11.9095C20.9542 13.5566 20.6882 15.7894 19.1264 16.883L15.4075 19.487C14.3837 20.2039 12.9956 20.2795 11.789 19.6896L4.07931 15.9199L4.14083 15.6804C4.14245 15.6744 4.14348 15.668 4.14483 15.662C4.22936 15.2216 4.49904 14.8369 4.8895 14.5999C5.29172 14.3617 5.77947 14.2976 6.23624 14.4224L7.99093 14.8756C8.14455 14.9156 8.30646 14.8576 8.39541 14.7311C8.48436 14.6047 8.48122 14.4367 8.38758 14.3117L2.70268 6.71602C2.33036 6.2187 2.41209 5.54478 2.87629 5.21974C3.34049 4.8947 4.02882 5.03008 4.40165 5.52749L7.83263 10.105C7.84455 10.1209 7.85584 10.1374 7.86798 10.1536C7.87318 10.1606 7.87923 10.1671 7.88433 10.1739L9.35125 12.131C9.47383 12.2946 9.70895 12.3321 9.87637 12.2149C10.0438 12.0977 10.0801 11.87 9.95756 11.7065L8.44642 9.6904C8.08692 9.21078 8.18109 8.57334 8.63331 8.2567L8.66025 8.23783C9.12475 7.91259 9.80766 8.03743 10.1805 8.53484L11.5228 10.3257C11.6453 10.4892 11.8805 10.5268 12.0479 10.4095C12.2153 10.2923 12.2517 10.0647 12.1291 9.90112L11.0759 8.49608C10.703 7.99853 10.7676 7.33614 11.2347 7.00913C11.699 6.68399 12.3703 6.8309 12.7433 7.3286L13.7368 8.65411C13.8594 8.81764 14.0945 8.85519 14.2619 8.73797C14.4293 8.62074 14.4657 8.3931 14.3431 8.22957L13.8051 7.51179C13.4322 7.01424 13.5284 6.35308 13.9929 6.02783L14.0183 6.01011C14.4816 5.68569 15.156 5.81733 15.529 6.31247C16.7093 7.87975 17.1026 8.40588 18.1687 9.83222Z" fill="currentColor"/>
<path d="M1.23368 7.94056C1.40109 7.82334 1.43745 7.5957 1.31487 7.43216C0.472768 6.29873 0.727345 4.72767 1.884 3.91777C3.04081 3.10777 4.66451 3.36364 5.51638 4.49023C5.63896 4.65377 5.87408 4.69132 6.04149 4.57409C6.20891 4.45687 6.24526 4.22923 6.12269 4.06569C5.02524 2.61297 2.93214 2.28252 1.44095 3.32666C-0.0500971 4.3707 -0.377627 6.39611 0.708565 7.8567C0.831143 8.02024 1.06626 8.05779 1.23368 7.94056Z" fill="currentColor"/>
</svg>
