<svg width="55" height="55" viewBox="0 0 55 55" fill="none" xmlns="http://www.w3.org/2000/svg">
<path d="M27.4884 54H27.5155C34.54 53.9994 41.2766 51.2087 46.2436 46.2417C51.2107 41.2746 54.0014 34.538 54.002 27.5136V27.499C54.002 20.471 51.2101 13.7309 46.2406 8.76136C41.2711 3.79185 34.531 1 27.503 1V1C24.0229 0.999726 20.5769 1.68494 17.3616 3.01651C14.1464 4.34809 11.2249 6.29994 8.76406 8.76063C6.30318 11.2213 4.3511 14.1426 3.01927 17.3578C1.68744 20.5729 1.00195 24.0189 1.00195 27.499V27.5136C1.00251 34.538 3.79321 41.2746 8.76026 46.2417C13.7273 51.2087 20.4639 53.9994 27.4884 54V54Z" stroke="currentColor" stroke-width="0.449261" stroke-miterlimit="10"/>
<path d="M29.9954 44.3194V29.6298H34.9268L35.6641 23.9068H29.9954V20.2517C29.9954 18.5953 30.4549 17.4654 32.8319 17.4654H35.8646V12.344C34.3972 12.1889 32.9226 12.1136 31.4471 12.1184C27.0755 12.1184 24.0824 14.7856 24.0824 19.6856V23.9068H19.1406V29.6298H24.0824V44.3194H29.9954Z" fill="currentColor"/>
</svg>
