<svg width="55" height="55" viewBox="0 0 55 55" fill="none" xmlns="http://www.w3.org/2000/svg">
<path d="M27.502 1C20.4735 1.00055 13.7332 3.79296 8.7635 8.76301C3.79384 13.7331 1.00195 20.4737 1.00195 27.5021C1.00086 30.9813 1.68515 34.4266 3.01576 37.6413C4.34636 40.856 6.29721 43.7771 8.75688 46.2377C11.2166 48.6983 14.1369 50.6503 17.351 51.9822C20.5652 53.3141 24.0102 53.9997 27.4894 54H27.5166C34.5413 53.9994 41.2782 51.2086 46.2454 46.2414C51.2127 41.2741 54.0035 34.5373 54.004 27.5125V27.5125C54.0054 24.0313 53.3209 20.584 51.9897 17.3674C50.6585 14.1508 48.7065 11.228 46.2455 8.76597C43.7844 6.30391 40.8624 4.35086 37.6463 3.01835C34.4302 1.68585 30.9831 1 27.502 1V1Z" stroke="currentColor" stroke-width="0.449261" stroke-miterlimit="10"/>
<path d="M38.5847 16.6471L13.4215 26.1781C12.045 26.5749 12.0889 27.9347 13.1061 28.2668L19.4142 30.2344L21.8267 37.6349C22.1212 38.4432 22.3593 38.7482 22.8606 38.7565C23.3619 38.7649 23.5896 38.5706 24.1368 38.086C24.776 37.4866 25.7514 36.5403 27.2929 35.0406L33.8516 39.8886C35.0589 40.5549 35.9404 40.2103 36.2328 38.767L40.3455 18.4225C40.7842 16.6513 39.7398 16.1228 38.5847 16.6471ZM20.3959 29.7707L34.7268 20.7891C35.4349 20.3149 35.6563 20.8434 35.3367 21.2068L23.4308 31.9117L22.8188 37.2547L20.3959 29.7707Z" fill="currentColor"/>
</svg>
