<svg width="53" height="53" viewBox="0 0 53 53" fill="none" xmlns="http://www.w3.org/2000/svg">
<path id="Vector" d="M26.5175 52.7754H26.4903C19.5254 52.7748 12.846 50.0078 7.92105 45.0829C2.99612 40.1579 0.229086 33.4785 0.228537 26.5136V26.499C0.228537 23.0484 0.908211 19.6316 2.22875 16.4437C3.54929 13.2558 5.48482 10.3593 7.92484 7.91947C10.3649 5.47965 13.2616 3.54434 16.4495 2.22405C19.6375 0.903763 23.0544 0.224359 26.5049 0.224631C33.4733 0.224631 40.1563 2.99281 45.0837 7.9202C50.0111 12.8476 52.7793 19.5306 52.7793 26.499V26.5136C52.7787 33.4785 50.0117 40.1579 45.0868 45.0829C40.1618 50.0078 33.4824 52.7748 26.5175 52.7754Z" stroke="currentColor" stroke-width="0.449261"/>
<path d="M36.431 27.2591C35.4514 26.2147 34.0228 25.5046 32.4876 25.1704V25.0284C33.5874 24.5774 34.5267 23.8069 35.1841 22.8165C35.8384 21.7925 36.1796 20.5998 36.1658 19.3848C36.1871 18.3672 35.9492 17.3609 35.4744 16.4606C34.9899 15.5836 34.2556 14.8704 33.3648 14.4117C32.4937 13.9354 31.5457 13.6158 30.5639 13.4676C29.1089 13.2897 27.6434 13.2115 26.1777 13.2336H16.6973V39.7681H27.408C28.934 39.7805 30.4545 39.5852 31.9278 39.1875C33.1183 38.8405 34.228 38.2604 35.1924 37.481C36.0365 36.8152 36.7197 35.9678 37.1913 35.0018C37.6996 33.9197 37.9478 32.7338 37.9161 31.5387C37.9161 29.7488 37.4085 28.3138 36.431 27.2591ZM23.2724 18.0564H23.899C25.077 18.0564 25.9647 18.0814 26.56 18.0982C27.0912 18.1059 27.6163 18.2136 28.1077 18.4156C28.5555 18.6052 28.9176 18.9532 29.1248 19.3931C29.3334 19.7994 29.4456 20.2482 29.4528 20.7048C29.464 21.2275 29.3613 21.7463 29.152 22.2254C28.923 22.6894 28.5333 23.0545 28.0555 23.253C27.6171 23.4789 27.1403 23.6206 26.6498 23.6707C26.1944 23.6958 25.3966 23.7564 24.2708 23.7564H23.2682L23.2724 18.0564ZM30.706 33.1136C30.4093 33.6319 29.9453 34.0341 29.3901 34.254C28.705 34.5506 28.0346 34.7971 27.3745 34.82C26.7145 34.843 25.5219 34.9433 23.8008 34.9433H23.2766V28.1447H24.6676C25.8456 28.1447 26.7876 28.1655 27.4894 28.1843C28.0509 28.1797 28.6093 28.2686 29.1416 28.4475C29.7331 28.634 30.2525 28.9987 30.6287 29.4918C30.9587 29.9514 31.1237 30.5905 31.1237 31.403C31.133 31.9995 30.9891 32.5885 30.706 33.1136Z" fill="currentColor"/>
</svg>
