<svg width="55" height="55" viewBox="0 0 55 55" fill="none" xmlns="http://www.w3.org/2000/svg">
<path d="M27.4884 54H27.5155C34.54 53.9994 41.2766 51.2087 46.2436 46.2417C51.2107 41.2746 54.0014 34.538 54.002 27.5136V27.499C54.002 20.471 51.2101 13.7309 46.2406 8.76136C41.2711 3.79185 34.531 1 27.503 1V1C24.0229 0.999726 20.5769 1.68494 17.3616 3.01651C14.1464 4.34809 11.2249 6.29994 8.76406 8.76063C6.30318 11.2213 4.3511 14.1426 3.01927 17.3578C1.68744 20.5729 1.00195 24.0189 1.00195 27.499V27.5136C1.00251 34.538 3.79321 41.2746 8.76026 46.2417C13.7273 51.2087 20.4639 53.9994 27.4884 54V54Z" stroke="currentColor" stroke-width="0.449261" stroke-miterlimit="10"/>
<path d="M27.5069 28.0295C28.9806 28.0295 30.4211 27.5925 31.6463 26.7737C32.8715 25.955 33.8265 24.7913 34.3903 23.4298C34.9541 22.0683 35.1016 20.5702 34.8139 19.125C34.5263 17.6797 33.8165 16.3522 32.7743 15.3103C31.7322 14.2685 30.4045 13.559 28.9591 13.2718C27.5138 12.9846 26.0157 13.1324 24.6544 13.6966C23.2931 14.2608 22.1296 15.2161 21.3112 16.4416C20.4928 17.667 20.0562 19.1077 20.0566 20.5813C20.0594 22.5562 20.8453 24.4494 22.242 25.8456C23.6386 27.2419 25.532 28.0273 27.5069 28.0295ZM27.5069 17.4963C28.1172 17.4959 28.7138 17.6765 29.2214 18.0152C29.729 18.354 30.1247 18.8356 30.3586 19.3993C30.5924 19.9629 30.6538 20.5833 30.535 21.1819C30.4162 21.7804 30.1225 22.3303 29.6912 22.7619C29.2598 23.1936 28.7101 23.4876 28.1116 23.6068C27.5132 23.726 26.8928 23.6651 26.3289 23.4316C25.7651 23.1982 25.2832 22.8028 24.9441 22.2954C24.605 21.788 24.4241 21.1915 24.4241 20.5813C24.4257 19.7644 24.7511 18.9814 25.329 18.4039C25.9068 17.8265 26.69 17.5016 27.5069 17.5005V17.4963Z" fill="currentColor"/>
<path d="M30.5215 34.1078C32.0509 33.7567 33.5103 33.1509 34.8388 32.3157C35.329 32.0074 35.6767 31.517 35.8054 30.9524C35.9341 30.3878 35.8332 29.7952 35.5249 29.3049C35.2166 28.8147 34.7263 28.467 34.1616 28.3383C33.597 28.2096 33.0043 28.3105 32.5141 28.6188C31.0108 29.5579 29.2738 30.0558 27.5013 30.0558C25.7287 30.0558 23.9918 29.5579 22.4885 28.6188C21.9982 28.3105 21.4056 28.2096 20.841 28.3383C20.2763 28.467 19.7859 28.8147 19.4777 29.3049C19.1694 29.7952 19.0685 30.3878 19.1972 30.9524C19.3258 31.517 19.6735 32.0074 20.1638 32.3157C21.4951 33.1513 22.9573 33.7571 24.4894 34.1078L20.3246 38.2726C19.9153 38.682 19.6853 39.2372 19.6853 39.8161C19.6853 40.3951 19.9153 40.9503 20.3246 41.3597C20.734 41.769 21.2892 41.999 21.8682 41.999C22.4471 41.999 23.0023 41.769 23.4117 41.3597L27.5034 37.2659L31.5993 41.3597C31.8003 41.5695 32.0413 41.7372 32.308 41.8527C32.5747 41.9682 32.8617 42.0293 33.1524 42.0324C33.443 42.0355 33.7313 41.9805 34.0004 41.8706C34.2695 41.7608 34.5139 41.5983 34.7194 41.3927C34.9248 41.1871 35.0872 40.9426 35.1968 40.6734C35.3065 40.4042 35.3613 40.1159 35.358 39.8253C35.3547 39.5346 35.2935 39.2476 35.1778 38.981C35.062 38.7143 34.8943 38.4735 34.6842 38.2726L30.5215 34.1078Z" fill="currentColor"/>
</svg>
