<svg width="55" height="55" viewBox="0 0 55 55" fill="none" xmlns="http://www.w3.org/2000/svg">
<path d="M27.4882 54H27.5154C34.5398 53.9994 41.2764 51.2087 46.2435 46.2417C51.2105 41.2746 54.0013 34.538 54.0018 27.5136V27.499C54.0018 24.0191 53.3164 20.5732 51.9847 17.3582C50.653 14.1432 48.7011 11.222 46.2405 8.76136C43.7798 6.30071 40.8586 4.34881 37.6436 3.01711C34.4286 1.68542 30.9828 1 27.5029 1V1C20.4749 1 13.7348 3.79185 8.76526 8.76136C3.79574 13.7309 1.00391 20.471 1.00391 27.499V27.5136C1.00446 34.5377 3.79486 41.274 8.76146 46.241C13.7281 51.2079 20.4641 53.9989 27.4882 54V54Z" stroke="currentColor" stroke-width="0.449261" stroke-miterlimit="10"/>
<path d="M27.5023 16.3607C31.1324 16.3607 31.5606 16.3732 32.9955 16.44C33.8571 16.4507 34.7105 16.6089 35.5186 16.9079C36.1047 17.1331 36.637 17.4789 37.081 17.9229C37.525 18.3669 37.8708 18.8992 38.096 19.4853C38.395 20.2934 38.5532 21.1468 38.5639 22.0084C38.6307 23.4433 38.6432 23.8715 38.6432 27.4995C38.6432 31.1276 38.6307 31.5578 38.5639 32.9927C38.5532 33.8543 38.395 34.7077 38.096 35.5158C37.8708 36.102 37.525 36.6342 37.081 37.0782C36.637 37.5222 36.1047 37.868 35.5186 38.0933C34.7105 38.3922 33.8571 38.5505 32.9955 38.5611C31.5627 38.628 31.1324 38.6405 27.5023 38.6405C23.8722 38.6405 23.444 38.628 22.0112 38.5611C21.1496 38.5505 20.2962 38.3922 19.488 38.0933C18.9019 37.868 18.3696 37.5222 17.9257 37.0782C17.4817 36.6342 17.1359 36.102 16.9106 35.5158C16.6117 34.7077 16.4534 33.8543 16.4428 32.9927C16.3759 31.5578 16.3634 31.1296 16.3634 27.4995C16.3634 23.8694 16.3759 23.4433 16.4428 22.0084C16.4534 21.1468 16.6117 20.2934 16.9106 19.4853C17.1359 18.8992 17.4817 18.3669 17.9257 17.9229C18.3696 17.4789 18.9019 17.1331 19.488 16.9079C20.2962 16.6089 21.1496 16.4507 22.0112 16.44C23.4461 16.3732 23.8743 16.3607 27.5023 16.3607ZM27.5023 13.9106C23.8137 13.9106 23.35 13.9274 21.9005 13.9942C20.7736 14.0146 19.6583 14.2265 18.6025 14.6208C17.7009 14.9692 16.8822 15.5022 16.1988 16.1856C15.5154 16.869 14.9824 17.6878 14.634 18.5893C14.2396 19.6451 14.0278 20.7604 14.0074 21.8873C13.9405 23.3368 13.9238 23.8005 13.9238 27.4891C13.9238 31.1777 13.9405 31.6434 14.0074 33.093C14.0278 34.2199 14.2396 35.3351 14.634 36.391C14.9824 37.2925 15.5154 38.1112 16.1988 38.7947C16.8822 39.4781 17.7009 40.0111 18.6025 40.3595C19.6583 40.7538 20.7736 40.9657 21.9005 40.9861C23.35 41.0529 23.8137 41.0696 27.5023 41.0696C31.1909 41.0696 31.6566 41.0529 33.1062 40.9861C34.2331 40.9657 35.3483 40.7538 36.4042 40.3595C37.3057 40.0111 38.1244 39.4781 38.8078 38.7947C39.4913 38.1112 40.0243 37.2925 40.3727 36.391C40.767 35.3351 40.9789 34.2199 40.9993 33.093C41.0661 31.6434 41.0828 31.1798 41.0828 27.4891C41.0828 23.7984 41.0661 23.3368 40.9993 21.8873C40.9789 20.7604 40.767 19.6451 40.3727 18.5893C40.0243 17.6878 39.4913 16.869 38.8078 16.1856C38.1244 15.5022 37.3057 14.9692 36.4042 14.6208C35.3483 14.2265 34.2331 14.0146 33.1062 13.9942C31.6566 13.9274 31.193 13.9106 27.5023 13.9106Z" fill="currentColor"/>
<path d="M27.5036 20.5234C26.1234 20.5234 24.7741 20.9328 23.6265 21.6996C22.4789 22.4665 21.5845 23.5565 21.0564 24.8317C20.5283 26.1069 20.3902 27.5101 20.6596 28.8638C20.9291 30.2175 21.5939 31.4609 22.57 32.4368C23.5462 33.4126 24.7898 34.0771 26.1435 34.3461C27.4973 34.6151 28.9005 34.4766 30.1755 33.9481C31.4506 33.4197 32.5403 32.5249 33.3069 31.3771C34.0734 30.2292 34.4823 28.8798 34.4819 27.4996C34.4819 26.5833 34.3014 25.676 33.9507 24.8295C33.5999 23.9829 33.0859 23.2138 32.4379 22.566C31.7899 21.9181 31.0206 21.4043 30.1739 21.0539C29.3273 20.7034 28.4199 20.5232 27.5036 20.5234ZM27.5036 32.0299C26.6076 32.0299 25.7317 31.7642 24.9867 31.2664C24.2417 30.7686 23.6611 30.0611 23.3182 29.2333C22.9753 28.4055 22.8856 27.4946 23.0604 26.6158C23.2352 25.737 23.6666 24.9297 24.3002 24.2962C24.9338 23.6626 25.741 23.2311 26.6198 23.0563C27.4986 22.8815 28.4095 22.9712 29.2373 23.3141C30.0651 23.657 30.7727 24.2377 31.2705 24.9827C31.7683 25.7277 32.034 26.6036 32.034 27.4996C32.034 28.7011 31.5567 29.8534 30.7071 30.703C29.8575 31.5526 28.7052 32.0299 27.5036 32.0299Z" fill="currentColor"/>
<path d="M34.7562 21.8792C35.6572 21.8792 36.3875 21.1489 36.3875 20.248C36.3875 19.347 35.6572 18.6167 34.7562 18.6167C33.8553 18.6167 33.125 19.347 33.125 20.248C33.125 21.1489 33.8553 21.8792 34.7562 21.8792Z" fill="currentColor"/>
</svg>
