<svg width="55" height="55" viewBox="0 0 55 55" fill="none" xmlns="http://www.w3.org/2000/svg">
<path d="M27.5 1C20.4716 1.00055 13.7312 3.79296 8.76154 8.76301C3.79189 13.7331 1 20.4737 1 27.5021V27.5021C0.998904 30.9813 1.68319 34.4266 3.0138 37.6413C4.3444 40.856 6.29524 43.7771 8.75491 46.2377C11.2146 48.6983 14.1349 50.6503 17.3491 51.9822C20.5632 53.3141 24.0083 53.9997 27.4875 54H27.5146C34.5394 53.9994 41.2762 51.2086 46.2435 46.2414C51.2107 41.2741 54.0015 34.5373 54.0021 27.5125C54.0035 24.0313 53.319 20.584 51.9877 17.3674C50.6565 14.1508 48.7046 11.228 46.2435 8.76597C43.7824 6.30391 40.8604 4.35086 37.6443 3.01835C34.4283 1.68585 30.9812 1 27.5 1V1Z" stroke="currentColor" stroke-width="0.449261" stroke-miterlimit="10"/>
<path fill-rule="evenodd" clip-rule="evenodd" d="M27.7453 13.9292C25.4046 13.9302 23.1061 14.5527 21.0848 15.7331C19.0635 16.9135 17.3919 18.6093 16.2407 20.6474C15.0895 22.6855 14.5001 24.9927 14.5328 27.3331C14.5654 29.6736 15.2188 31.9635 16.4264 33.9687L14.041 41.0704L21.3517 38.729C23.1172 39.7036 25.0824 40.2612 27.0967 40.3593C29.111 40.4573 31.1211 40.0931 32.973 39.2946C34.8248 38.496 36.4694 37.2843 37.7808 35.7522C39.0922 34.2201 40.0356 32.4082 40.5388 30.4553C41.042 28.5024 41.0917 26.4602 40.684 24.4852C40.2763 22.5101 39.422 20.6545 38.1866 19.0605C36.9513 17.4664 35.3675 16.1762 33.5566 15.2886C31.7457 14.4011 29.7558 13.9396 27.7391 13.9396L27.7453 13.9292ZM27.7453 38.1462C25.5913 38.1504 23.4839 37.5182 21.6879 36.329L17.4603 37.6804L18.8326 33.5969C17.3842 31.5961 16.6513 29.1661 16.7521 26.6982C16.8528 24.2302 17.7813 21.868 19.388 19.992C20.9947 18.116 23.1861 16.8353 25.6092 16.3563C28.0323 15.8773 30.5461 16.2278 32.7457 17.3513C34.9454 18.4749 36.7029 20.3061 37.7351 22.5501C38.7674 24.794 39.0143 27.3201 38.4361 29.7215C37.8579 32.1229 36.4883 34.2598 34.5479 35.788C32.6074 37.3163 30.2091 38.1469 27.7391 38.1462H27.7453ZM33.9427 30.1484C33.6105 29.9666 31.9834 29.0894 31.6784 28.964C31.3735 28.8387 31.15 28.776 30.914 29.1061C30.6779 29.4361 30.0012 30.1692 29.7965 30.3865C29.5918 30.6037 29.3933 30.6246 29.0612 30.4429C28.0808 30.0104 27.1836 29.4095 26.4106 28.6674C25.6984 27.9586 25.0958 27.1476 24.6226 26.2612C24.4367 25.9165 24.6226 25.7411 24.796 25.5802C24.9694 25.4194 25.149 25.198 25.3245 25.0079C25.4699 24.8426 25.5902 24.6568 25.6816 24.4565C25.7303 24.3656 25.7557 24.2641 25.7557 24.1609C25.7557 24.0578 25.7303 23.9563 25.6816 23.8654C25.6023 23.6941 24.9903 22.0085 24.7333 21.3234C24.4764 20.6383 24.1944 20.7385 23.996 20.7302C23.7976 20.7218 23.5783 20.6884 23.3506 20.68C23.1796 20.6773 23.0099 20.7103 22.8524 20.7768C22.6949 20.8434 22.553 20.942 22.4357 21.0664C22.0407 21.4135 21.7223 21.839 21.5008 22.3159C21.2793 22.7927 21.1595 23.3104 21.149 23.8361C21.0885 25.5071 22.2352 27.1447 22.4023 27.387C22.5694 27.6293 24.5955 31.2157 27.973 32.6966C31.3505 34.1776 31.3714 33.7243 31.9897 33.6909C32.6079 33.6575 34.0179 32.9494 34.327 32.1724C34.6361 31.3953 34.6633 30.7102 34.5839 30.5765C34.5045 30.4429 34.2727 30.3301 33.9427 30.1484Z" fill="currentColor"/>
</svg>
