<svg width="15" height="16" viewBox="0 0 15 16" xmlns="http://www.w3.org/2000/svg">
<path d="M7.5 15.5C6.01664 15.5 4.5666 15.0601 3.33323 14.236C2.09986 13.4119 1.13856 12.2406 0.570907 10.8701C0.00324965 9.49968 -0.145275 7.99168 0.144114 6.53683C0.433503 5.08197 1.14781 3.7456 2.1967 2.6967C3.2456 1.64781 4.58197 0.933503 6.03683 0.644114C7.49168 0.354725 8.99968 0.50325 10.3701 1.07091C11.7406 1.63856 12.9119 2.59986 13.736 3.83323C14.5601 5.0666 15 6.51664 15 8C14.9979 9.98847 14.207 11.8949 12.8009 13.3009C11.3949 14.707 9.48847 15.4979 7.5 15.5ZM7.5 1.75C6.26387 1.75 5.0555 2.11656 4.02769 2.80332C2.99988 3.49008 2.1988 4.46619 1.72576 5.60823C1.25271 6.75027 1.12894 8.00694 1.3701 9.21932C1.61125 10.4317 2.20651 11.5453 3.08059 12.4194C3.95466 13.2935 5.06831 13.8888 6.28069 14.1299C7.49307 14.3711 8.74974 14.2473 9.89178 13.7743C11.0338 13.3012 12.0099 12.5001 12.6967 11.4723C13.3834 10.4445 13.75 9.23614 13.75 8C13.7482 6.34296 13.0891 4.7543 11.9174 3.5826C10.7457 2.41089 9.15705 1.75182 7.5 1.75Z" fill="currentColor"/>
<path d="M8.125 9.87509H6.875V9.41072C6.86577 8.96973 6.97473 8.53431 7.19058 8.14965C7.40643 7.76499 7.7213 7.44511 8.1025 7.22322C8.33342 7.09603 8.51822 6.89909 8.63047 6.66055C8.74272 6.42201 8.77669 6.15409 8.7275 5.89509C8.6788 5.64834 8.55765 5.42171 8.37953 5.24415C8.20141 5.06658 7.9744 4.94614 7.7275 4.89822C7.54733 4.86487 7.36202 4.87154 7.18471 4.91776C7.0074 4.96397 6.84242 5.04861 6.70145 5.16566C6.56048 5.28272 6.44697 5.42934 6.36895 5.59514C6.29094 5.76094 6.25033 5.94186 6.25 6.12509H5C5.00016 5.68416 5.11693 5.25111 5.33847 4.86987C5.56001 4.48864 5.87845 4.17278 6.26147 3.95433C6.64449 3.73589 7.07847 3.62263 7.51939 3.62605C7.96031 3.62947 8.39248 3.74945 8.77207 3.9738C9.15165 4.19816 9.46515 4.51893 9.68075 4.90355C9.89635 5.28818 10.0064 5.72299 9.99971 6.16387C9.99303 6.60475 9.86986 7.03602 9.6427 7.41394C9.41554 7.79185 9.09246 8.10297 8.70625 8.31572C8.52171 8.43109 8.37083 8.59304 8.26879 8.78527C8.16675 8.9775 8.11716 9.19322 8.125 9.41072V9.87509Z" fill="currentColor"/>
<path d="M8.125 11.125H6.875V12.375H8.125V11.125Z" fill="currentColor"/>
</svg>
