<svg width="27" height="27" viewBox="0 0 27 27" fill="none" xmlns="http://www.w3.org/2000/svg">
<path d="M13.4995 1C10.1843 1.00026 7.00505 2.31744 4.66096 4.6618C2.31688 7.00616 1 10.1857 1 13.501C0.999483 15.1421 1.32225 16.7673 1.94987 18.2836C2.57749 19.8 3.49766 21.1779 4.65784 22.3385C5.81802 23.4992 7.19546 24.42 8.71152 25.0482C10.2276 25.6765 11.8525 25.9999 13.4936 26H13.5064C16.8198 25.9997 19.9975 24.6833 22.3404 22.3403C24.6834 19.9972 25.9997 16.8195 26 13.5059V13.5059C26.0006 11.8638 25.6778 10.2377 25.0499 8.72048C24.422 7.20322 23.5013 5.82454 22.3404 4.66319C21.1796 3.50185 19.8013 2.5806 18.2844 1.95205C16.7674 1.32351 15.1415 1 13.4995 1V1Z" stroke="currentColor" stroke-width="0.878793" stroke-miterlimit="10"/>
<path d="M18.7275 8.38058L6.85853 12.8763C6.20926 13.0635 6.22995 13.7049 6.70976 13.8616L9.68513 14.7897L10.8231 18.2805C10.962 18.6618 11.0743 18.8056 11.3107 18.8096C11.5472 18.8135 11.6546 18.7219 11.9127 18.4933C12.2142 18.2105 12.6743 17.7642 13.4014 17.0568L16.495 19.3436C17.0644 19.6579 17.4802 19.4953 17.6181 18.8145L19.558 9.21805C19.7649 8.38255 19.2723 8.13328 18.7275 8.38058ZM10.1482 14.571L16.9078 10.3343C17.2418 10.1107 17.3462 10.36 17.1955 10.5314L11.5797 15.5809L11.291 18.1012L10.1482 14.571Z" fill="currentColor"/>
</svg>
