<svg width="38" height="30" viewBox="0 0 38 30" fill="none" xmlns="http://www.w3.org/2000/svg">
<path fill-rule="evenodd" clip-rule="evenodd" d="M17.6763 0.0716091C15.5735 0.31402 13.5812 1.02065 11.8963 2.12176C9.40868 3.74748 7.55589 6.15695 6.61181 8.99413C6.32033 9.87001 6.00819 11.334 6.00819 11.825C6.00819 12.1281 5.93625 12.1805 5.31472 12.3303C3.88563 12.6749 2.3629 13.6986 1.43443 14.9393C0.443303 16.2635 -0.0929854 18.0506 0.0132913 19.675C0.218636 22.8162 2.30946 25.3533 5.39662 26.2077C5.93707 26.3573 6.18069 26.3684 9.51978 26.3967L13.0685 26.4268V25.2312V24.0357L9.66842 24.0129L6.26831 23.9901L5.68193 23.7818C4.75182 23.4515 4.08102 22.9887 3.47323 22.258C3.11694 21.8298 2.63996 20.8597 2.51392 20.3073C2.39642 19.7921 2.39761 18.6988 2.51622 18.1915C2.98131 16.2033 4.68181 14.7028 6.68918 14.5096C7.4983 14.4317 7.63237 14.3963 7.86662 14.1982C8.22291 13.8971 8.29552 13.6741 8.37935 12.6237C8.51432 10.9336 8.83136 9.76041 9.52105 8.39919C10.9446 5.58979 13.502 3.55897 16.5244 2.83816C20.9462 1.78371 25.47 3.56666 27.9504 7.34153C28.6751 8.44429 29.0975 9.42543 29.4931 10.9252C29.7246 11.8023 29.9349 12.005 30.804 12.1887C32.0299 12.4478 32.9357 12.9287 33.8283 13.7947C37.2973 17.1601 35.5086 23.0565 30.7566 23.9209C30.3579 23.9933 29.4529 24.023 27.5794 24.0248L24.9596 24.0275V25.2279V26.4284L27.9138 26.3961C30.3739 26.3691 30.9613 26.342 31.4254 26.234C33.8949 25.6594 35.9523 24.0911 37.0623 21.9371C37.7587 20.5856 38.004 19.5604 38 18.0176C37.9985 17.4427 37.9545 16.7708 37.9021 16.5245C37.532 14.7804 36.7738 13.3507 35.5864 12.1579C34.6374 11.2046 33.5577 10.5381 32.2719 10.1118L31.669 9.91196L31.5417 9.43939C31.4716 9.17943 31.2746 8.61786 31.1039 8.1915C29.6646 4.59752 26.666 1.81231 22.953 0.620709C21.2642 0.0787761 19.3461 -0.120856 17.6763 0.0716091ZM18.5682 14.5891C18.4082 14.658 17.3712 15.6409 15.8745 17.1424L13.4409 19.5838L14.2756 20.4248L15.1104 21.2656L16.4677 19.9036L17.825 18.5417V24.2708V30H19.0141H20.2032V24.2708V18.5417L21.5783 19.9215L22.9534 21.3013L23.7889 20.462L24.6244 19.6227L22.1722 17.1516C20.8191 15.7879 19.613 14.6336 19.481 14.5759C19.1775 14.4433 18.8979 14.4474 18.5682 14.5891Z" fill="currentColor"/>
</svg>
