<svg width="27" height="27" viewBox="0 0 27 27" fill="none" xmlns="http://www.w3.org/2000/svg">
<path d="M13.4936 26H13.5064C16.8198 25.9997 19.9975 24.6834 22.3404 22.3404C24.6834 19.9975 25.9997 16.8198 26 13.5064V13.4995C26 10.1844 24.6831 7.00513 22.339 4.66102C19.9949 2.31691 16.8156 1 13.5005 1V1C11.859 0.999871 10.2335 1.32308 8.71684 1.95119C7.20021 2.57929 5.82216 3.49997 4.66137 4.66067C3.50058 5.82137 2.57978 7.19935 1.95156 8.71593C1.32334 10.2325 1 11.858 1 13.4995V13.5064C1.00026 16.8198 2.31663 19.9975 4.65958 22.3404C7.00252 24.6834 10.1802 25.9997 13.4936 26V26Z" stroke="currentColor" stroke-miterlimit="10"/>
<path fill-rule="evenodd" clip-rule="evenodd" d="M13.0332 18.4218H13.981C13.981 18.4218 14.2667 18.3903 14.4135 18.2327C14.5603 18.075 14.5436 17.8169 14.5436 17.8169C14.5436 17.8169 14.5249 16.545 15.115 16.3578C15.7051 16.1706 16.4441 17.5864 17.2352 18.1312C17.8342 18.542 18.2894 18.4524 18.2894 18.4524L20.4066 18.4228C20.4066 18.4228 21.514 18.3539 20.9889 17.4839C20.9455 17.412 20.6825 16.8396 19.4125 15.6622C18.0845 14.4297 18.2628 14.6297 19.8618 12.4977C20.8362 11.2002 21.2253 10.408 21.1032 10.0681C20.9879 9.74498 20.2717 9.82971 20.2717 9.82971L17.8874 9.84548C17.7818 9.83258 17.6748 9.85145 17.58 9.89966C17.4895 9.96575 17.417 10.0535 17.3692 10.1548C17.1232 10.7952 16.8298 11.4163 16.4914 12.013C15.4303 13.8149 15.0056 13.9105 14.8322 13.7982C14.4283 13.5371 14.5298 12.7509 14.5298 12.1913C14.5298 10.4445 14.7948 9.71641 14.0135 9.53119C13.7544 9.46814 13.5633 9.42676 12.9012 9.41986C12.05 9.41198 11.3308 9.41986 10.9229 9.62282C10.6519 9.75484 10.4421 10.0514 10.5702 10.0681C10.7278 10.0888 11.0845 10.1667 11.2736 10.4218C11.518 10.7539 11.5091 11.5056 11.5091 11.5056C11.5091 11.5056 11.65 13.5617 11.181 13.8169C10.8598 13.9923 10.4194 13.6346 9.47264 11.9992C9.15147 11.4303 8.86746 10.8412 8.62239 10.2356C8.57844 10.133 8.51094 10.0422 8.42535 9.9706C8.31471 9.89721 8.19038 9.84695 8.05983 9.82282L5.79382 9.83661C5.79382 9.83661 5.45392 9.84646 5.3288 9.99424C5.21845 10.1263 5.31993 10.3982 5.31993 10.3982C5.31993 10.3982 7.09333 14.547 9.10219 16.6386C10.9436 18.5558 13.0342 18.4297 13.0342 18.4297L13.0332 18.4218Z" fill="currentColor"/>
</svg>
