<svg width="27" height="27" viewBox="0 0 27 27" fill="none" xmlns="http://www.w3.org/2000/svg">
<path d="M13.4995 1C10.1843 1.00026 7.00505 2.31744 4.66096 4.6618C2.31688 7.00616 1 10.1857 1 13.501V13.501C0.999483 15.1421 1.32225 16.7673 1.94987 18.2836C2.57749 19.8 3.49766 21.1779 4.65783 22.3385C5.81801 23.4992 7.19546 24.42 8.71152 25.0482C10.2276 25.6765 11.8525 25.9999 13.4936 26H13.5064C16.8198 25.9997 19.9975 24.6833 22.3404 22.3403C24.6834 19.9972 25.9997 16.8195 26 13.5059C26.0006 11.8638 25.6778 10.2377 25.0499 8.72048C24.422 7.20322 23.5013 5.82454 22.3404 4.66319C21.1796 3.50185 19.8013 2.5806 18.2844 1.95205C16.7674 1.32351 15.1415 1 13.4995 1V1Z" stroke="currentColor" stroke-miterlimit="10"/>
<path fill-rule="evenodd" clip-rule="evenodd" d="M13.6144 7.09863C12.5104 7.09912 11.4262 7.39275 10.4728 7.94953C9.51941 8.5063 8.73092 9.30624 8.18793 10.2676C7.64495 11.2289 7.36695 12.3172 7.38234 13.4212C7.39772 14.5252 7.70595 15.6054 8.27552 16.5512L7.15039 19.9011L10.5987 18.7966C11.4315 19.2563 12.3584 19.5194 13.3085 19.5656C14.2586 19.6119 15.2067 19.4401 16.0802 19.0634C16.9537 18.6868 17.7294 18.1152 18.348 17.3925C18.9665 16.6698 19.4115 15.8152 19.6489 14.894C19.8862 13.9728 19.9096 13.0095 19.7173 12.0779C19.525 11.1462 19.1221 10.2709 18.5394 9.51904C17.9567 8.76714 17.2096 8.15856 16.3555 7.73988C15.5013 7.32121 14.5627 7.10354 13.6115 7.10355L13.6144 7.09863ZM13.6144 18.5217C12.5984 18.5237 11.6044 18.2255 10.7573 17.6646L8.7632 18.302L9.41049 16.3758C8.7273 15.4321 8.38163 14.2858 8.42915 13.1217C8.47667 11.9576 8.91462 10.8434 9.67246 9.95844C10.4303 9.07352 11.4639 8.46943 12.6068 8.24348C13.7498 8.01753 14.9355 8.18286 15.973 8.71284C17.0106 9.24282 17.8395 10.1066 18.3264 11.1651C18.8133 12.2236 18.9298 13.4151 18.6571 14.5478C18.3843 15.6806 17.7383 16.6885 16.8231 17.4094C15.9078 18.1303 14.7765 18.5221 13.6115 18.5217H13.6144ZM16.5376 14.7492C16.3809 14.6635 15.6134 14.2497 15.4696 14.1905C15.3258 14.1314 15.2203 14.1019 15.109 14.2575C14.9977 14.4132 14.6785 14.759 14.5819 14.8615C14.4854 14.964 14.3918 14.9738 14.2351 14.8881C13.7727 14.6841 13.3495 14.4007 12.9849 14.0506C12.6489 13.7163 12.3647 13.3337 12.1415 12.9156C12.0538 12.753 12.1415 12.6703 12.2233 12.5944C12.3051 12.5185 12.3898 12.4141 12.4726 12.3244C12.5412 12.2465 12.5979 12.1588 12.641 12.0643C12.664 12.0215 12.676 11.9736 12.676 11.9249C12.676 11.8763 12.664 11.8284 12.641 11.7855C12.6036 11.7047 12.3149 10.9096 12.1937 10.5865C12.0726 10.2633 11.9396 10.3106 11.846 10.3066C11.7524 10.3027 11.6489 10.2869 11.5415 10.283C11.4609 10.2817 11.3809 10.2973 11.3066 10.3286C11.2323 10.36 11.1653 10.4066 11.11 10.4653C10.9237 10.629 10.7735 10.8297 10.669 11.0546C10.5645 11.2795 10.508 11.5237 10.5031 11.7717C10.4745 12.5599 11.0154 13.3324 11.0942 13.4467C11.1731 13.5609 12.1287 15.2526 13.7218 15.9512C15.3149 16.6497 15.3248 16.4359 15.6164 16.4202C15.908 16.4044 16.5731 16.0704 16.7189 15.7039C16.8647 15.3374 16.8775 15.0142 16.84 14.9512C16.8026 14.8881 16.6932 14.8349 16.5376 14.7492Z" fill="currentColor"/>
</svg>
