<svg width="25" height="25" viewBox="0 0 25 25" fill="none" xmlns="http://www.w3.org/2000/svg">
<path d="M12.5059 24.5C12.5059 24.5 12.5059 24.5 12.5059 24.5C15.687 24.4997 18.7378 23.2359 20.9871 20.9865C23.2364 18.7371 24.5 15.6864 24.5 12.5054V12.4995C24.5 9.31705 23.2357 6.26493 20.9853 4.01458C18.7349 1.76424 15.6826 0.5 12.5 0.5C9.3174 0.5 6.26514 1.76424 4.01471 4.01458C1.76427 6.26493 0.5 9.31705 0.5 12.4995V12.5054C0.5 15.6862 1.7635 18.7368 4.0126 20.9862C6.26169 23.2355 9.31217 24.4995 12.4931 24.5H12.5059ZM12.5059 24.5H12.4932H12.5059Z" stroke="currentColor"/>
<path d="M16.0587 14.7051C15.8314 14.7051 15.7175 14.8788 15.7168 15.2263V15.575H16.3986V15.2302C16.3986 14.8785 16.2843 14.7051 16.0587 14.7051Z" fill="currentColor"/>
<path d="M17.7228 12.7927C17.6597 12.5043 17.5085 12.2427 17.2901 12.0439C17.0718 11.8452 16.7971 11.7192 16.5041 11.6834C15.105 11.5277 13.6902 11.5267 12.2803 11.5277C10.8703 11.5287 9.45551 11.5277 8.05644 11.6834C7.76352 11.7192 7.48892 11.845 7.2706 12.0436C7.05228 12.2421 6.90101 12.5035 6.83768 12.7918C6.64062 13.6459 6.64062 14.578 6.64062 15.4578C6.64062 16.3376 6.64062 17.2696 6.83768 18.1238C6.90071 18.4119 7.05162 18.6733 7.26957 18.872C7.48752 19.0707 7.76177 19.1969 8.05447 19.2331C9.45354 19.3898 10.8684 19.3898 12.2783 19.3898C13.6882 19.3898 15.103 19.3898 16.5021 19.2331C16.795 19.1974 17.0696 19.0715 17.2879 18.873C17.5063 18.6744 17.6575 18.413 17.7209 18.1248C17.9179 17.2706 17.9179 16.3386 17.9179 15.4587C17.9179 14.5789 17.9199 13.6469 17.7228 12.7927ZM9.85652 13.5612H9.03973V17.8962H8.28207V13.5612H7.48007V12.8509H9.85652V13.5612ZM11.9157 17.8962H11.2339V17.4854C10.963 17.7967 10.7058 17.9474 10.4546 17.9474C10.2349 17.9474 10.0841 17.8587 10.0161 17.6676C9.96857 17.4854 9.94832 17.2971 9.95603 17.109V14.1376H10.6368V16.9051C10.633 16.9934 10.6353 17.082 10.6437 17.1701C10.6595 17.2755 10.7117 17.3297 10.8024 17.3297C10.9393 17.3297 11.0822 17.2243 11.2339 17.0105V14.1376H11.9157V17.8962ZM14.505 16.7671C14.5143 17.0215 14.4915 17.2761 14.437 17.5248C14.3454 17.8046 14.1631 17.9474 13.8921 17.9474C13.6498 17.9474 13.4153 17.8134 13.1877 17.5317V17.8962H12.5059V12.8509H13.1877V14.4991C13.4074 14.2282 13.6409 14.0913 13.8921 14.0913C14.1631 14.0913 14.3454 14.2341 14.437 14.5159C14.4925 14.7641 14.5153 15.0184 14.505 15.2725V16.7671ZM17.0775 16.1395H15.7149V16.8065C15.7149 17.1543 15.8292 17.3287 16.0627 17.3287C16.2302 17.3287 16.3287 17.2371 16.3671 17.0548C16.3805 16.9012 16.3854 16.7469 16.3819 16.5927H17.0775V16.6913C17.0775 16.911 17.0696 17.0627 17.0637 17.1307C17.042 17.2769 16.9874 17.4164 16.9041 17.5385C16.813 17.6714 16.6894 17.7787 16.545 17.8502C16.4006 17.9216 16.2403 17.9547 16.0794 17.9464C15.921 17.9542 15.7631 17.9232 15.6193 17.856C15.4756 17.7889 15.3505 17.6877 15.2548 17.5612C15.1099 17.373 15.036 17.0765 15.036 16.6745V15.3632C15.036 14.9612 15.102 14.6676 15.2469 14.4765C15.3412 14.3506 15.4648 14.2496 15.6069 14.1823C15.7491 14.115 15.9055 14.0834 16.0627 14.0903C16.2181 14.0836 16.3728 14.1153 16.513 14.1827C16.6533 14.25 16.7747 14.351 16.8666 14.4765C17.0095 14.6666 17.0775 14.9602 17.0775 15.3632V16.1395Z" fill="currentColor"/>
<path d="M13.5264 14.7051C13.4618 14.7091 13.3987 14.7257 13.3405 14.7541C13.2823 14.7825 13.2304 14.8221 13.1875 14.8706V17.1632C13.2298 17.2126 13.2816 17.2529 13.3398 17.2819C13.3981 17.3108 13.4615 17.3278 13.5264 17.3317C13.7235 17.3317 13.822 17.1632 13.822 16.8233V15.2184C13.824 14.8785 13.7235 14.7051 13.5264 14.7051Z" fill="currentColor"/>
<path fill-rule="evenodd" clip-rule="evenodd" d="M11.0985 5.74756H10.327L9.80582 7.74953L9.26393 5.74756H8.46094C8.62153 6.21948 8.78903 6.69534 8.95357 7.16825C9.14484 7.69481 9.30053 8.23363 9.41959 8.78106V10.85H10.1832V8.78106L11.0985 5.74756ZM13.1399 9.61455V8.2845C13.1399 7.87859 13.07 7.58204 12.9261 7.38992C12.8305 7.26858 12.7086 7.17051 12.5696 7.10307C12.4306 7.03564 12.2781 7.0006 12.1236 7.0006C11.9692 7.0006 11.8167 7.03564 11.6777 7.10307C11.5387 7.17051 11.4168 7.26858 11.3212 7.38992C11.1743 7.58204 11.1054 7.88253 11.1054 8.2845V9.61455C11.1054 10.0185 11.1743 10.318 11.3212 10.5082C11.4168 10.6295 11.5387 10.7276 11.6777 10.795C11.8167 10.8624 11.9692 10.8975 12.1236 10.8975C12.2781 10.8975 12.4306 10.8624 12.5696 10.795C12.7086 10.7276 12.8305 10.6295 12.9261 10.5082C13.07 10.319 13.1399 10.0195 13.1399 9.61455ZM12.4503 9.7446C12.4503 10.0963 12.3439 10.2717 12.1212 10.2717C11.8985 10.2717 11.7931 10.0963 11.7931 9.7446V8.14657C11.7931 7.79485 11.8995 7.62047 12.1212 7.62047C12.3429 7.62047 12.4503 7.79485 12.4503 8.14657V9.7446ZM15.6849 10.8451V7.04608H14.9952V9.95051C14.8425 10.1663 14.6996 10.2727 14.5607 10.2727C14.4681 10.2727 14.4139 10.2185 14.3991 10.1121C14.3882 10.0232 14.3853 9.93352 14.3902 9.84411V7.04608H13.7006V10.051C13.6925 10.2412 13.7131 10.4315 13.7616 10.6155C13.8296 10.8126 13.9833 10.8983 14.205 10.8983C14.4553 10.8983 14.7173 10.7456 14.9932 10.4313V10.8461L15.6849 10.8451Z" fill="currentColor"/>
</svg>
