<svg width="1608" height="286" viewBox="0 0 1608 286" fill="none" xmlns="http://www.w3.org/2000/svg">
<path d="M1395.12 222.467L1394.73 222.134C1393.14 220.756 1390.73 220.925 1389.35 222.51C1387.96 224.095 1388.13 226.496 1389.72 227.873L1390.11 228.206C1391.7 229.583 1394.11 229.415 1395.49 227.83C1396.88 226.245 1396.71 223.844 1395.12 222.467Z" fill="white" fill-opacity="0.13"/>
<path d="M1379.75 209.166L1379.36 208.833C1377.77 207.455 1375.36 207.624 1373.98 209.209C1372.6 210.794 1372.76 213.195 1374.36 214.572L1374.74 214.905C1376.33 216.283 1378.74 216.114 1380.13 214.529C1381.51 212.944 1381.34 210.543 1379.75 209.166Z" fill="white" fill-opacity="0.13"/>
<path d="M1461.63 244.776C1468.54 236.865 1467.69 224.835 1459.75 217.959C1451.8 211.083 1439.72 211.925 1432.82 219.837C1425.91 227.749 1426.76 239.779 1434.7 246.655C1442.65 253.531 1454.73 252.688 1461.63 244.776ZM1438.58 224.825C1442.72 220.078 1449.97 219.572 1454.74 223.698C1459.5 227.823 1460.01 235.042 1455.87 239.789C1451.73 244.535 1444.48 245.041 1439.71 240.916C1434.95 236.79 1434.44 229.571 1438.58 224.825Z" fill="white" fill-opacity="0.13"/>
<path d="M1584.12 100.233C1582.97 98.4749 1580.6 97.9838 1578.83 99.1332C1577.07 100.283 1576.57 102.639 1577.73 104.396C1590.44 123.738 1588.66 149.445 1573.42 166.911C1572.04 168.497 1572.21 170.897 1573.8 172.275C1575.39 173.653 1577.8 173.484 1579.18 171.899C1596.66 151.878 1598.69 122.408 1584.12 100.233Z" fill="white" fill-opacity="0.13"/>
<path d="M1573.58 88.1414L1573.27 87.871C1571.68 86.4933 1569.27 86.6614 1567.89 88.2467C1566.51 89.8319 1566.67 92.2323 1568.27 93.6101L1568.53 93.8413C1568.54 93.848 1568.55 93.8545 1568.55 93.8613C1570.13 95.2295 1572.53 95.0743 1573.92 93.5077C1575.31 91.9337 1575.16 89.531 1573.58 88.1414Z" fill="white" fill-opacity="0.13"/>
<path d="M1448.9 269.02L1406.64 232.442C1405.05 231.065 1402.64 231.233 1401.26 232.818C1399.87 234.403 1400.04 236.804 1401.63 238.181L1443.9 274.759C1445.49 276.137 1447.9 275.969 1449.28 274.383C1450.67 272.798 1450.5 270.398 1448.9 269.02Z" fill="white" fill-opacity="0.13"/>
<path d="M1460.81 279.328L1460.43 278.996C1458.84 277.618 1456.43 277.787 1455.04 279.371C1453.66 280.957 1453.83 283.357 1455.42 284.735L1455.81 285.067C1457.4 286.445 1459.81 286.277 1461.19 284.692C1462.58 283.107 1462.41 280.706 1460.81 279.328Z" fill="white" fill-opacity="0.13"/>
<path d="M1590.57 179.099C1603.05 164.392 1609.17 145.649 1607.81 126.322C1606.45 106.996 1597.77 89.286 1583.35 76.4536C1583.09 76.2236 1582.84 75.9985 1582.57 75.7733C1567.76 62.9541 1548.88 56.5797 1529.28 57.8094C1509.33 59.0629 1491.12 68.029 1478 83.0559C1471.1 90.9677 1471.94 102.997 1479.89 109.874C1487.83 116.75 1499.91 115.907 1506.82 107.995C1513.18 100.708 1522.01 96.3611 1531.69 95.7525C1541.37 95.1451 1550.69 98.3626 1557.91 104.8C1572.27 117.585 1573.84 139.908 1561.41 154.562C1552.52 165.038 1538.17 169.571 1524.84 166.111C1513.46 163.159 1501.51 163.432 1490.27 166.903C1479.59 170.2 1469.97 176.274 1462.43 184.477C1462.33 184.57 1462.23 184.668 1462.14 184.773C1455.24 192.685 1456.08 204.715 1464.03 211.591C1471.84 218.349 1483.64 217.65 1490.6 210.111C1490.69 210.029 1490.78 209.941 1490.87 209.849C1497.1 203.285 1506.43 200.624 1515.21 202.902C1528.53 206.361 1542.54 206.062 1555.72 202.036C1569.31 197.887 1581.36 189.956 1590.57 179.099ZM1517.14 195.543C1505.83 192.608 1493.82 195.944 1485.66 204.276C1485.49 204.41 1485.34 204.559 1485.19 204.724C1481.05 209.471 1473.8 209.977 1469.04 205.851C1464.34 201.789 1463.78 194.728 1467.72 189.981C1467.77 189.932 1467.81 189.881 1467.86 189.829C1474.52 182.509 1483.06 177.092 1492.53 174.165C1502.41 171.115 1512.91 170.875 1522.91 173.47C1539.07 177.664 1556.47 172.168 1567.24 159.47C1582.32 141.701 1580.42 114.634 1563 99.133C1554.27 91.3284 1542.95 87.4274 1531.21 88.1644C1519.47 88.9015 1508.76 94.1736 1501.05 103.008C1496.91 107.754 1489.66 108.26 1484.9 104.135C1480.13 100.009 1479.62 92.7913 1483.77 88.044C1495.53 74.5651 1511.86 66.5219 1529.76 65.3975C1547.34 64.2948 1564.28 70.0133 1577.57 81.5133C1577.8 81.7148 1578.03 81.9189 1578.26 82.1235C1591.19 93.6285 1598.98 109.513 1600.2 126.853C1601.42 144.195 1595.93 161.006 1584.74 174.192C1576.47 183.931 1565.67 191.045 1553.49 194.765C1541.66 198.377 1529.09 198.646 1517.14 195.543Z" fill="white" fill-opacity="0.13"/>
<path d="M1372.48 121.83C1372.45 121.796 1372.42 121.764 1372.38 121.737C1372.35 121.711 1372.31 121.687 1372.28 121.667C1372.24 121.648 1372.2 121.634 1372.16 121.624C1372.12 121.609 1372.07 121.599 1372.03 121.593C1372.01 121.592 1372 121.585 1371.99 121.584L1363.75 121.403L1360.63 117.207C1359.96 116.309 1358.69 116.121 1357.79 116.787L1351.9 121.146L1348.18 121.065C1347.26 121.043 1346.44 121.647 1346.2 122.532L1345.2 126.103L1339.31 130.462C1338.41 131.128 1338.22 132.396 1338.89 133.294L1342.01 137.49L1339.79 145.405C1339.79 145.42 1339.79 145.433 1339.79 145.447C1339.78 145.492 1339.78 145.538 1339.78 145.585C1339.78 145.626 1339.78 145.667 1339.79 145.708C1339.8 145.748 1339.81 145.786 1339.83 145.824C1339.84 145.868 1339.86 145.909 1339.89 145.949C1339.89 145.96 1339.9 145.975 1339.9 145.986L1353.62 164.417C1353.87 164.762 1354.23 165.014 1354.65 165.138C1354.65 165.14 1354.66 165.146 1354.67 165.148C1354.67 165.149 1354.68 165.148 1354.69 165.15C1355.3 165.325 1355.95 165.209 1356.45 164.838L1385.8 143.121C1386.31 142.744 1386.61 142.154 1386.62 141.525C1386.62 141.516 1386.62 141.51 1386.62 141.502C1386.62 141.493 1386.62 141.488 1386.62 141.481C1386.62 141.051 1386.48 140.633 1386.23 140.288L1372.51 121.858C1372.51 121.847 1372.49 121.841 1372.48 121.83ZM1347.5 122.895C1347.58 122.604 1347.85 122.405 1348.15 122.415L1350.12 122.458L1346.97 124.791L1347.5 122.895ZM1355.79 163.653L1361.81 142.127C1361.88 141.836 1362.15 141.638 1362.45 141.647L1384.86 142.138L1355.79 163.653ZM1384.91 140.789L1362.49 140.297C1361.57 140.275 1360.75 140.88 1360.51 141.764L1354.48 163.311L1341.6 146.01L1355.64 146.317C1356.02 146.325 1356.33 146.029 1356.33 145.656C1356.34 145.284 1356.05 144.975 1355.67 144.967L1341.41 144.655L1343.03 138.863L1346.15 143.051C1346.37 143.351 1346.79 143.413 1347.09 143.191C1347.39 142.969 1347.45 142.546 1347.23 142.247L1339.97 132.49C1339.75 132.191 1339.81 131.768 1340.11 131.546L1358.59 117.872C1358.89 117.65 1359.32 117.712 1359.54 118.012L1366.8 127.768C1367.02 128.068 1367.45 128.13 1367.75 127.908C1368.05 127.686 1368.11 127.263 1367.89 126.964L1364.77 122.776L1370.8 122.91L1366.96 136.636C1366.89 136.87 1366.95 137.122 1367.12 137.296C1367.29 137.47 1367.54 137.54 1367.78 137.479C1368.01 137.417 1368.2 137.235 1368.26 137L1372.04 123.488L1384.91 140.789Z" fill="white" fill-opacity="0.13"/>
<path d="M1363.13 129.639L1361.52 127.471C1358.85 123.878 1353.76 123.127 1350.16 125.792C1346.56 128.458 1345.8 133.531 1348.48 137.123C1351.15 140.715 1356.24 141.467 1359.84 138.801C1360.14 138.579 1360.2 138.157 1359.98 137.857C1359.76 137.558 1359.33 137.495 1359.03 137.717C1356.03 139.938 1351.79 139.312 1349.56 136.319C1347.34 133.325 1347.96 129.097 1350.97 126.876C1353.97 124.655 1358.21 125.281 1360.43 128.275L1362.05 130.443C1362.49 131.042 1362.37 131.887 1361.77 132.332C1361.17 132.776 1360.32 132.651 1359.87 132.052L1358.26 129.884C1358.04 129.584 1357.61 129.522 1357.31 129.744C1357.01 129.966 1356.95 130.389 1357.17 130.688C1358.06 131.886 1357.81 133.577 1356.61 134.465C1355.41 135.353 1353.72 135.103 1352.82 133.906C1351.93 132.708 1352.18 131.017 1353.39 130.129C1353.69 129.907 1353.75 129.484 1353.53 129.184C1353.3 128.885 1352.88 128.822 1352.58 129.045C1351.12 130.121 1350.55 132.036 1351.19 133.732C1351.83 135.427 1353.53 136.492 1355.34 136.337C1357.15 136.183 1358.64 134.847 1358.98 133.067C1359.95 134.126 1361.58 134.239 1362.69 133.324C1363.8 132.41 1363.99 130.789 1363.13 129.639Z" fill="white" fill-opacity="0.13"/>
<path d="M638.772 107.484C638.851 107.398 638.92 107.304 638.978 107.202C639.036 107.118 639.086 107.029 639.128 106.936C639.164 106.839 639.19 106.739 639.206 106.637C639.232 106.525 639.246 106.41 639.248 106.295C639.247 106.259 639.263 106.229 639.261 106.192L637.629 85.717L647.301 76.9159C649.371 75.0322 649.517 71.8314 647.629 69.7669L635.274 56.2636L634.537 47.0265C634.359 44.7404 632.646 42.8674 630.379 42.4822L621.222 40.9048L608.867 27.4015C606.979 25.3371 603.769 25.1904 601.699 27.0743L592.027 35.8755L571.735 32.388C571.699 32.3828 571.667 32.3956 571.631 32.3916C571.516 32.3826 571.4 32.3861 571.286 32.4022C571.183 32.4082 571.081 32.4247 570.981 32.4516C570.884 32.4844 570.79 32.5263 570.701 32.5762C570.596 32.6242 570.496 32.6833 570.404 32.7526C570.378 32.7764 570.342 32.782 570.316 32.8059L527.832 71.4654C527.039 72.1904 526.501 73.1503 526.296 74.2035C526.292 74.2212 526.279 74.235 526.277 74.2527C526.275 74.2705 526.281 74.2995 526.279 74.3244C525.995 75.8649 526.447 77.4491 527.501 78.6106L589.062 145.896C590.128 147.055 591.676 147.65 593.246 147.506C593.267 147.505 593.285 147.516 593.305 147.513C593.325 147.511 593.338 147.502 593.356 147.499C594.426 147.392 595.434 146.945 596.23 146.224L638.71 107.567C638.736 107.543 638.747 107.509 638.772 107.484ZM629.802 45.8001C630.547 45.9198 631.11 46.536 631.162 47.2866L631.554 52.1974L624.942 44.9705L629.802 45.8001ZM530.287 76.6507L585.473 86.1394C586.217 86.2598 586.781 86.8756 586.833 87.6259L591.274 143.309L530.287 76.6507ZM594.649 143.096L590.208 87.3655C590.029 85.0798 588.316 83.2074 586.05 82.8212L530.807 73.318L570.686 37.0288L573.469 71.9154C573.543 72.8444 574.359 73.537 575.291 73.4624C576.222 73.3878 576.917 72.5744 576.842 71.6454L574.014 36.2041L588.864 38.7542L579.21 47.5394C578.52 48.1673 578.471 49.2343 579.101 49.9223C579.73 50.6105 580.8 50.6592 581.49 50.0314L603.979 29.5662C604.669 28.9383 605.739 28.9871 606.369 29.6753L645.13 72.0405C645.759 72.7286 645.71 73.7954 645.02 74.4233L622.531 94.8885C621.841 95.5164 621.792 96.5832 622.422 97.2714C623.051 97.9596 624.121 98.0083 624.811 97.3804L634.465 88.5952L635.655 103.577L600.463 97.5203C599.864 97.41 599.252 97.6291 598.86 98.0941C598.469 98.559 598.358 99.198 598.57 99.7671C598.783 100.336 599.285 100.748 599.886 100.844L634.527 106.807L594.649 143.096Z" fill="white" fill-opacity="0.13"/>
<path d="M616.941 86.274L621.939 81.7262C630.219 74.1911 630.807 61.3884 623.251 53.1304C615.696 44.8724 602.858 44.2863 594.578 51.8214C586.298 59.3564 585.71 72.1592 593.266 80.4172C593.895 81.1054 594.965 81.1542 595.655 80.5263C596.345 79.8983 596.394 78.8316 595.764 78.1434C589.468 71.2618 589.958 60.5928 596.858 54.3136C603.758 48.0345 614.456 48.5228 620.752 55.4045C627.049 62.2861 626.559 72.9551 619.659 79.2342L614.661 83.782C613.281 85.0379 611.141 84.9402 609.882 83.5638C608.623 82.1874 608.721 80.0536 610.101 78.7978L615.098 74.25C615.788 73.622 615.837 72.5553 615.208 71.8671C614.578 71.1789 613.508 71.1301 612.818 71.758C610.058 74.2697 605.779 74.0743 603.261 71.3217C600.742 68.5691 600.938 64.3015 603.698 61.7898C606.458 59.2782 610.737 59.4735 613.256 62.2262C613.886 62.9144 614.955 62.9632 615.645 62.3352C616.335 61.7073 616.384 60.6405 615.755 59.9523C612.701 56.5995 607.785 55.6786 603.719 57.6978C599.653 59.7171 597.428 64.1845 598.271 68.6355C599.114 73.0865 602.819 76.4369 607.344 76.8382C604.95 79.5139 605.081 83.592 607.641 86.1095C610.202 88.627 614.293 88.6995 616.941 86.274Z" fill="white" fill-opacity="0.13"/>
<path d="M275.419 193.905C275.457 193.864 275.491 193.818 275.519 193.77C275.547 193.729 275.571 193.686 275.591 193.641C275.608 193.595 275.621 193.547 275.628 193.498C275.641 193.444 275.648 193.389 275.648 193.333C275.648 193.316 275.656 193.301 275.655 193.284L274.87 183.434L279.522 179.201C280.518 178.295 280.589 176.755 279.68 175.762L273.737 169.266L273.382 164.823C273.297 163.723 272.473 162.822 271.382 162.637L266.978 161.878L261.035 155.383C260.126 154.39 258.582 154.319 257.586 155.225L252.934 159.459L243.173 157.782C243.155 157.779 243.14 157.785 243.123 157.783C243.067 157.779 243.012 157.781 242.957 157.788C242.907 157.791 242.858 157.799 242.81 157.812C242.763 157.828 242.718 157.848 242.675 157.872C242.625 157.895 242.577 157.924 242.532 157.957C242.52 157.968 242.502 157.971 242.49 157.983L222.054 176.579C221.672 176.928 221.413 177.389 221.315 177.896C221.313 177.905 221.307 177.911 221.306 177.92C221.305 177.928 221.308 177.942 221.307 177.954C221.17 178.695 221.388 179.457 221.894 180.016L251.508 212.383C252.02 212.94 252.765 213.226 253.52 213.157C253.53 213.156 253.539 213.162 253.549 213.161C253.558 213.159 253.564 213.155 253.573 213.154C254.088 213.102 254.573 212.887 254.956 212.54L275.39 193.945C275.403 193.934 275.407 193.917 275.419 193.905ZM271.105 164.233C271.463 164.291 271.734 164.587 271.759 164.948L271.948 167.31L268.767 163.834L271.105 164.233ZM223.235 179.073L249.781 183.638C250.139 183.696 250.41 183.992 250.435 184.353L252.571 211.138L223.235 179.073ZM254.195 211.036L252.059 184.227C251.973 183.128 251.149 182.227 250.059 182.042L223.485 177.47L242.668 160.014L244.007 176.795C244.043 177.242 244.435 177.576 244.883 177.54C245.331 177.504 245.665 177.112 245.629 176.666L244.269 159.617L251.412 160.844L246.768 165.07C246.437 165.372 246.413 165.885 246.716 166.216C247.019 166.547 247.533 166.571 247.865 166.269L258.683 156.424C259.015 156.122 259.53 156.146 259.833 156.477L278.478 176.856C278.781 177.187 278.757 177.7 278.425 178.002L267.607 187.846C267.275 188.148 267.252 188.661 267.555 188.993C267.857 189.324 268.372 189.347 268.704 189.045L273.348 184.819L273.92 192.026L256.992 189.112C256.704 189.059 256.409 189.165 256.221 189.388C256.032 189.612 255.979 189.919 256.081 190.193C256.183 190.467 256.425 190.665 256.714 190.711L273.378 193.579L254.195 211.036Z" fill="white" fill-opacity="0.13"/>
<path d="M264.919 183.702L267.323 181.515C271.306 177.89 271.588 171.731 267.954 167.759C264.32 163.787 258.144 163.505 254.161 167.129C250.178 170.754 249.895 176.912 253.53 180.885C253.833 181.216 254.347 181.239 254.679 180.937C255.011 180.635 255.035 180.122 254.732 179.791C251.703 176.481 251.939 171.349 255.258 168.328C258.577 165.308 263.723 165.543 266.752 168.853C269.781 172.163 269.545 177.295 266.226 180.316L263.822 182.503C263.158 183.108 262.129 183.061 261.523 182.398C260.917 181.736 260.964 180.71 261.628 180.106L264.032 177.918C264.364 177.616 264.388 177.103 264.085 176.772C263.782 176.441 263.267 176.417 262.935 176.72C261.608 177.928 259.549 177.834 258.338 176.51C257.126 175.186 257.221 173.133 258.548 171.924C259.876 170.716 261.934 170.81 263.146 172.134C263.449 172.465 263.963 172.489 264.295 172.187C264.627 171.885 264.651 171.372 264.348 171.041C262.879 169.428 260.514 168.985 258.558 169.956C256.603 170.927 255.532 173.076 255.938 175.217C256.343 177.359 258.126 178.97 260.302 179.163C259.15 180.45 259.213 182.412 260.445 183.623C261.677 184.834 263.644 184.869 264.919 183.702Z" fill="white" fill-opacity="0.13"/>
<path d="M1365.74 81.5013L1365.62 81.5846C1365.14 81.9298 1365.03 82.5984 1365.38 83.0783C1365.72 83.5583 1366.39 83.6674 1366.88 83.3223L1366.99 83.239C1367.47 82.8938 1367.58 82.2253 1367.24 81.7453C1366.89 81.2653 1366.22 81.1561 1365.74 81.5013Z" fill="white" fill-opacity="0.13"/>
<path d="M1361.09 84.8337L1360.98 84.917C1360.5 85.2622 1360.39 85.9308 1360.73 86.4107C1361.08 86.8907 1361.75 86.9998 1362.23 86.6547L1362.35 86.5714C1362.83 86.2262 1362.94 85.5577 1362.59 85.0777C1362.24 84.5977 1361.57 84.4886 1361.09 84.8337Z" fill="white" fill-opacity="0.13"/>
<path d="M1376.16 64.7969C1374.44 62.4013 1371.08 61.854 1368.68 63.5767C1366.27 65.2994 1365.72 68.6497 1367.45 71.0452C1369.18 73.4408 1372.54 73.9882 1374.94 72.2655C1377.34 70.5427 1377.89 67.1925 1376.16 64.7969ZM1369.19 69.7956C1368.16 68.3584 1368.49 66.348 1369.93 65.3144C1371.37 64.2808 1373.39 64.6092 1374.42 66.0465C1375.46 67.4837 1375.13 69.4941 1373.69 70.5277C1372.25 71.5614 1370.23 71.2328 1369.19 69.7956Z" fill="white" fill-opacity="0.13"/>
<path d="M1344.37 22.0289C1343.81 22.2293 1343.52 22.844 1343.73 23.3996C1343.93 23.9555 1344.54 24.2427 1345.1 24.0412C1351.23 21.8257 1358.18 23.9718 1362 29.2605C1362.34 29.7405 1363.01 29.8498 1363.49 29.5046C1363.97 29.1594 1364.08 28.4909 1363.74 28.0109C1359.37 21.9485 1351.4 19.4887 1344.37 22.0289Z" fill="white" fill-opacity="0.13"/>
<path d="M1340.37 24.1204L1340.27 24.1876C1339.79 24.5327 1339.68 25.2012 1340.03 25.6812C1340.37 26.1612 1341.04 26.2705 1341.53 25.9253L1341.61 25.8679C1341.61 25.8662 1341.61 25.8646 1341.61 25.8629C1342.09 25.5201 1342.2 24.8562 1341.86 24.3761C1341.52 23.8937 1340.85 23.7791 1340.37 24.1204Z" fill="white" fill-opacity="0.13"/>
<path d="M1382 69.8377L1369.22 79.002C1368.74 79.3472 1368.63 80.0158 1368.98 80.4957C1369.33 80.9757 1370 81.0849 1370.48 80.7397L1383.26 71.5755C1383.74 71.2303 1383.85 70.5618 1383.5 70.0818C1383.15 69.6017 1382.48 69.4926 1382 69.8377Z" fill="white" fill-opacity="0.13"/>
<path d="M1385.6 67.2551L1385.49 67.3384C1385.01 67.6836 1384.9 68.3522 1385.24 68.8321C1385.59 69.3121 1386.26 69.4212 1386.74 69.0761L1386.86 68.9928C1387.34 68.6476 1387.45 67.9791 1387.1 67.4991C1386.76 67.0191 1386.08 66.9099 1385.6 67.2551Z" fill="white" fill-opacity="0.13"/>
<path d="M1366.45 25.37C1363.22 21.0141 1358.46 18.1309 1353.07 17.2513C1347.67 16.3721 1342.24 17.5966 1337.79 20.6999C1337.71 20.7554 1337.63 20.811 1337.55 20.8674C1333.07 24.0792 1330.1 28.819 1329.17 34.2449C1328.23 39.7703 1329.52 45.3191 1332.8 49.8691C1334.52 52.2647 1337.88 52.8121 1340.29 51.0893C1342.69 49.3666 1343.24 46.0164 1341.51 43.6208C1339.92 41.4144 1339.29 38.7236 1339.75 36.0442C1340.21 33.3628 1341.7 31.0282 1343.93 29.4746C1348.37 26.3828 1354.6 27.3985 1357.83 31.7388C1360.13 34.8414 1360.45 39.0513 1358.64 42.464C1357.09 45.3772 1356.39 48.6561 1356.62 51.9462C1356.84 55.0722 1357.89 58.0899 1359.65 60.6791C1359.67 60.7122 1359.69 60.7447 1359.71 60.7765C1361.44 63.1721 1364.8 63.7195 1367.2 61.9968C1369.56 60.3035 1370.13 57.0373 1368.51 54.6514C1368.5 54.6213 1368.48 54.5911 1368.46 54.5611C1367.06 52.4357 1366.93 49.7189 1368.12 47.4708C1369.93 44.0594 1370.76 40.2176 1370.5 36.3607C1370.24 32.386 1368.84 28.5853 1366.45 25.37ZM1366.23 46.4692C1364.69 49.3649 1364.83 52.8557 1366.59 55.6224C1366.62 55.6759 1366.65 55.7278 1366.68 55.7776C1367.72 57.2148 1367.39 59.2252 1365.95 60.2588C1364.53 61.2767 1362.55 60.9738 1361.5 59.5921C1361.49 59.5755 1361.48 59.5592 1361.47 59.5428C1359.89 57.2515 1358.96 54.5736 1358.76 51.7987C1358.56 48.9071 1359.18 46.0253 1360.53 43.4652C1362.73 39.3287 1362.34 34.2256 1359.55 30.4649C1355.64 25.2022 1348.09 23.9705 1342.7 27.7191C1340 29.5973 1338.19 32.4327 1337.64 35.6842C1337.08 38.933 1337.84 42.1956 1339.77 44.8705C1340.8 46.3077 1340.47 48.3181 1339.03 49.3517C1337.59 50.3853 1335.58 50.057 1334.54 48.6196C1331.6 44.5383 1330.44 39.561 1331.29 34.6049C1332.12 29.7377 1334.79 25.4865 1338.8 22.6053C1338.87 22.5548 1338.95 22.5044 1339.02 22.4549C1343.01 19.6728 1347.88 18.5752 1352.72 19.3642C1357.56 20.1533 1361.83 22.7386 1364.73 26.644C1366.87 29.5286 1368.12 32.9374 1368.36 36.5013C1368.59 39.9616 1367.85 43.4086 1366.23 46.4692Z" fill="white" fill-opacity="0.13"/>
<path d="M1003.07 207.737L1002.86 207.889C1001.98 208.515 1001.78 209.73 1002.41 210.601C1003.04 211.473 1004.26 211.671 1005.13 211.044L1005.34 210.893C1006.22 210.266 1006.42 209.052 1005.79 208.181C1005.16 207.309 1003.94 207.111 1003.07 207.737Z" fill="white" fill-opacity="0.13"/>
<path d="M994.631 213.789L994.42 213.94C993.546 214.567 993.347 215.781 993.976 216.652C994.604 217.524 995.822 217.722 996.695 217.095L996.906 216.944C997.78 216.317 997.979 215.103 997.351 214.232C996.722 213.36 995.505 213.162 994.631 213.789Z" fill="white" fill-opacity="0.13"/>
<path d="M1022 177.405C1018.86 173.055 1012.76 172.061 1008.4 175.189C1004.04 178.317 1003.04 184.401 1006.18 188.751C1009.32 193.101 1015.42 194.095 1019.78 190.966C1024.14 187.838 1025.14 181.755 1022 177.405ZM1009.34 186.482C1007.46 183.872 1008.06 180.221 1010.68 178.344C1013.29 176.467 1016.95 177.064 1018.84 179.674C1020.72 182.284 1020.12 185.934 1017.5 187.811C1014.89 189.688 1011.22 189.091 1009.34 186.482Z" fill="white" fill-opacity="0.13"/>
<path d="M964.264 99.7442C963.252 100.108 962.729 101.224 963.096 102.233C963.462 103.243 964.579 103.764 965.591 103.398C976.73 99.3751 989.346 103.272 996.27 112.876C996.899 113.747 998.116 113.946 998.99 113.319C999.864 112.692 1000.06 111.478 999.434 110.607C991.497 99.5981 977.034 95.1315 964.264 99.7442Z" fill="white" fill-opacity="0.13"/>
<path d="M956.997 103.542L956.826 103.664C955.952 104.291 955.753 105.505 956.381 106.376C957.01 107.248 958.227 107.446 959.101 106.819L959.248 106.715C959.252 106.712 959.256 106.709 959.26 106.706C960.128 106.084 960.332 104.878 959.713 104.006C959.092 103.13 957.876 102.922 956.997 103.542Z" fill="white" fill-opacity="0.13"/>
<path d="M1032.6 186.558L1009.4 203.199C1008.52 203.826 1008.32 205.04 1008.95 205.911C1009.58 206.783 1010.8 206.981 1011.67 206.354L1034.87 189.714C1035.75 189.087 1035.95 187.873 1035.32 187.001C1034.69 186.129 1033.47 185.931 1032.6 186.558Z" fill="white" fill-opacity="0.13"/>
<path d="M1039.14 181.868L1038.93 182.02C1038.05 182.646 1037.86 183.861 1038.48 184.732C1039.11 185.604 1040.33 185.802 1041.2 185.175L1041.41 185.024C1042.29 184.397 1042.49 183.183 1041.86 182.311C1041.23 181.44 1040.01 181.242 1039.14 181.868Z" fill="white" fill-opacity="0.13"/>
<path d="M1004.36 105.811C998.489 97.9014 989.858 92.6659 980.058 91.0687C970.258 89.4721 960.405 91.6957 952.312 97.3309C952.167 97.4316 952.025 97.5326 951.882 97.635C943.75 103.467 938.355 112.074 936.67 121.927C934.955 131.96 937.291 142.036 943.249 150.298C946.386 154.648 952.486 155.642 956.848 152.514C961.209 149.385 962.206 143.302 959.069 138.952C956.18 134.945 955.048 130.059 955.879 125.194C956.712 120.325 959.41 116.085 963.468 113.264C971.531 107.65 982.85 109.495 988.701 117.376C992.884 123.01 993.462 130.654 990.173 136.851C987.365 142.141 986.099 148.095 986.513 154.07C986.905 159.746 988.807 165.226 992.014 169.927C992.048 169.987 992.086 170.046 992.128 170.104C995.264 174.454 1001.36 175.448 1005.73 172.32C1010.01 169.245 1011.05 163.314 1008.1 158.982C1008.07 158.927 1008.04 158.872 1008.01 158.818C1005.46 154.958 1005.23 150.025 1007.4 145.943C1010.68 139.748 1012.18 132.772 1011.72 125.769C1011.24 118.551 1008.7 111.649 1004.36 105.811ZM1003.95 144.124C1001.16 149.382 1001.42 155.721 1004.61 160.745C1004.66 160.842 1004.72 160.936 1004.78 161.027C1006.67 163.637 1006.07 167.287 1003.45 169.164C1000.87 171.012 997.286 170.462 995.379 167.953C995.361 167.923 995.341 167.894 995.321 167.864C992.451 163.703 990.75 158.841 990.401 153.802C990.038 148.551 991.15 143.318 993.617 138.669C997.604 131.158 996.904 121.892 991.833 115.063C984.738 105.506 971.013 103.27 961.239 110.077C956.321 113.487 953.047 118.636 952.038 124.54C951.029 130.44 952.403 136.364 955.905 141.221C957.787 143.831 957.189 147.482 954.572 149.358C951.955 151.235 948.295 150.639 946.413 148.029C941.069 140.618 938.973 131.58 940.512 122.58C942.024 113.742 946.863 106.023 954.158 100.791C954.286 100.699 954.415 100.608 954.544 100.518C961.799 95.4658 970.636 93.4726 979.429 94.9053C988.222 96.3382 995.964 101.033 1001.23 108.124C1005.12 113.363 1007.4 119.552 1007.83 126.024C1008.24 132.307 1006.9 138.567 1003.95 144.124Z" fill="white" fill-opacity="0.13"/>
<path d="M45.3706 145.296L45.0677 145.089C43.8124 144.234 42.1059 144.557 41.2551 145.81C40.404 147.064 40.7317 148.773 41.9866 149.628L42.2896 149.835C43.5448 150.691 45.2511 150.368 46.1022 149.114C46.9535 147.861 46.6258 146.152 45.3706 145.296Z" fill="white" fill-opacity="0.13"/>
<path d="M33.2527 137.035L32.9497 136.829C31.6945 135.973 29.988 136.296 29.1371 137.55C28.286 138.803 28.6137 140.512 29.8687 141.368L30.1716 141.574C31.4269 142.43 33.1332 142.108 33.9843 140.854C34.8353 139.6 34.5076 137.891 33.2527 137.035Z" fill="white" fill-opacity="0.13"/>
<path d="M94.7812 155.741C99.0287 149.483 97.3878 140.919 91.1233 136.649C84.8588 132.378 76.3073 133.994 72.0598 140.252C67.8123 146.509 69.4531 155.073 75.7177 159.344C81.9822 163.614 90.5337 161.998 94.7812 155.741ZM76.6039 143.349C79.1522 139.595 84.2836 138.625 88.0422 141.187C91.8009 143.75 92.7854 148.889 90.237 152.643C87.6888 156.397 82.5573 157.367 78.7987 154.805C75.0401 152.243 74.0557 147.103 76.6039 143.349Z" fill="white" fill-opacity="0.13"/>
<path d="M169.769 41.7293C168.795 40.5639 167.061 40.4098 165.901 41.3826C164.74 42.3557 164.591 44.088 165.567 45.2527C176.305 58.0724 177.257 76.6736 167.879 90.4877C167.028 91.7415 167.356 93.4504 168.611 94.306C169.866 95.1617 171.573 94.8392 172.424 93.5854C183.173 77.7508 182.081 56.4268 169.769 41.7293Z" fill="white" fill-opacity="0.13"/>
<path d="M161.207 33.932L160.962 33.7639C159.707 32.9082 158.001 33.2307 157.15 34.4845C156.299 35.7382 156.626 37.4471 157.881 38.3028L158.09 38.4466C158.096 38.4508 158.102 38.4548 158.109 38.459C159.355 39.3087 161.053 38.9967 161.909 37.7559C162.769 36.5092 162.455 34.7971 161.207 33.932Z" fill="white" fill-opacity="0.13"/>
<path d="M87.7841 174.209L54.4592 151.492C53.204 150.636 51.4974 150.959 50.6466 152.212C49.7955 153.466 50.1229 155.175 51.3781 156.03L84.7028 178.748C85.958 179.603 87.6644 179.281 88.5154 178.027C89.3668 176.773 89.0391 175.064 87.7841 174.209Z" fill="white" fill-opacity="0.13"/>
<path d="M97.1756 180.611L96.8726 180.404C95.6174 179.549 93.9108 179.871 93.0599 181.125C92.2089 182.379 92.5366 184.088 93.7915 184.943L94.0945 185.15C95.3497 186.005 97.0561 185.683 97.9071 184.429C98.7585 183.176 98.4308 181.467 97.1756 180.611Z" fill="white" fill-opacity="0.13"/>
<path d="M181.173 97.8C188.815 86.1985 191.571 72.2318 188.935 58.4723C186.299 44.7136 178.57 32.7286 167.172 24.7246C166.968 24.5811 166.765 24.4411 166.56 24.3012C154.88 16.3397 140.849 13.3453 126.965 15.8689C112.827 18.4396 100.597 26.4005 92.5299 38.2851C88.2824 44.5424 89.9232 53.1067 96.1878 57.3771C102.452 61.6476 111.004 60.0313 115.251 53.774C119.163 48.0108 125.094 44.1508 131.95 42.9037C138.811 41.6568 145.742 43.186 151.452 47.2023C162.809 55.1769 165.853 71.0689 158.24 82.6289C152.797 90.8927 142.939 95.3489 133.125 93.9816C124.747 92.8149 116.237 94.0117 108.514 97.444C101.177 100.705 94.8322 105.871 90.1524 112.391C90.0892 112.465 90.0293 112.544 89.9729 112.627C85.7254 118.884 87.3662 127.449 93.6308 131.719C99.7882 135.917 108.156 134.426 112.474 128.432C112.531 128.365 112.588 128.295 112.643 128.221C116.528 122.988 122.957 120.296 129.422 121.197C139.232 122.564 149.209 121.176 158.273 117.182C167.614 113.066 175.533 106.364 181.173 97.8ZM130.163 115.753C121.836 114.593 113.554 117.993 108.442 124.657C108.336 124.767 108.239 124.887 108.151 125.018C105.602 128.772 100.471 129.742 96.7122 127.18C93.011 124.657 91.9999 119.636 94.4027 115.898C94.4335 115.859 94.4632 115.819 94.4928 115.777C98.6186 109.965 104.242 105.362 110.756 102.468C117.543 99.4514 125.023 98.3991 132.385 99.4247C144.28 101.082 156.23 95.6802 162.827 85.6632C172.059 71.6463 168.367 52.3764 154.598 42.7082C147.689 37.8373 139.273 35.9848 130.953 37.4971C122.64 39.0086 115.45 43.6897 110.707 50.6766C108.159 54.4306 103.027 55.4007 99.2686 52.8385C95.51 50.2763 94.5252 45.1376 97.0738 41.3831C104.31 30.7228 115.28 23.5814 127.962 21.2755C140.416 19.0121 153.001 21.6986 163.478 28.8409C163.662 28.966 163.846 29.093 164.028 29.2206C174.247 36.3968 181.177 47.1468 183.542 59.4916C185.907 71.8371 183.437 84.364 176.586 94.766C171.526 102.449 164.423 108.461 156.048 112.15C147.916 115.733 138.964 116.979 130.163 115.753Z" fill="white" fill-opacity="0.13"/>
<path d="M315.693 67.5955L315.636 67.5476C315.399 67.349 315.048 67.3795 314.85 67.6157C314.652 67.852 314.683 68.2044 314.92 68.403L314.977 68.4509C315.213 68.6495 315.565 68.619 315.763 68.3828C315.961 68.1465 315.929 67.7942 315.693 67.5955Z" fill="white" fill-opacity="0.13"/>
<path d="M313.411 65.678L313.354 65.63C313.117 65.4314 312.766 65.462 312.568 65.6982C312.37 65.9345 312.401 66.2868 312.638 66.4854L312.695 66.5334C312.931 66.732 313.283 66.7015 313.481 66.4652C313.678 66.2289 313.647 65.8766 313.411 65.678Z" fill="white" fill-opacity="0.13"/>
<path d="M325.473 70.7139C326.461 69.5347 326.304 67.769 325.124 66.7777C323.945 65.7864 322.182 65.9393 321.195 67.1185C320.207 68.2977 320.364 70.0634 321.544 71.0547C322.723 72.046 324.486 71.8931 325.473 70.7139ZM322.05 67.8375C322.643 67.1301 323.7 67.0383 324.408 67.6331C325.116 68.2279 325.21 69.2874 324.618 69.9949C324.025 70.7023 322.968 70.7941 322.26 70.1993C321.552 69.6046 321.458 68.545 322.05 67.8375Z" fill="white" fill-opacity="0.13"/>
<path d="M342.975 49.1792C342.802 48.9237 342.454 48.8572 342.199 49.0303C341.945 49.2035 341.879 49.5509 342.052 49.8063C343.962 52.618 343.774 56.3998 341.595 59.0031C341.397 59.2394 341.428 59.5917 341.664 59.7904C341.901 59.989 342.252 59.9585 342.45 59.7222C344.949 56.7381 345.164 52.4027 342.975 49.1792Z" fill="white" fill-opacity="0.13"/>
<path d="M341.402 47.4277L341.356 47.3888C341.12 47.1901 340.768 47.2206 340.57 47.4569C340.373 47.6932 340.404 48.0455 340.64 48.2441L340.68 48.2775C340.681 48.2784 340.682 48.2794 340.683 48.2804C340.918 48.4776 341.267 48.449 341.466 48.2155C341.666 47.9808 341.637 47.6281 341.402 47.4277Z" fill="white" fill-opacity="0.13"/>
<path d="M323.68 74.3071L317.404 69.0337C317.168 68.8351 316.816 68.8656 316.618 69.1019C316.421 69.3381 316.452 69.6905 316.688 69.8891L322.964 75.1624C323.2 75.3611 323.552 75.3306 323.75 75.0943C323.948 74.858 323.916 74.5057 323.68 74.3071Z" fill="white" fill-opacity="0.13"/>
<path d="M325.449 75.7932L325.392 75.7453C325.155 75.5466 324.804 75.5772 324.606 75.8134C324.408 76.0497 324.439 76.4021 324.676 76.6007L324.733 76.6486C324.969 76.8472 325.321 76.8167 325.519 76.5804C325.716 76.3442 325.685 75.9918 325.449 75.7932Z" fill="white" fill-opacity="0.13"/>
<path d="M344.134 60.7528C345.917 58.5617 346.76 55.7928 346.509 52.956C346.257 50.1193 344.939 47.5378 342.797 45.6868C342.759 45.6536 342.721 45.6211 342.682 45.5887C340.483 43.7405 337.706 42.8493 334.846 43.0771C331.933 43.3093 329.297 44.6706 327.422 46.9103C326.435 48.0895 326.591 49.8552 327.771 50.8465C328.951 51.8378 330.714 51.685 331.701 50.5058C332.61 49.4197 333.889 48.7596 335.301 48.6469C336.714 48.5344 338.085 48.9848 339.158 49.9134C341.292 51.7576 341.582 55.034 339.805 57.2173C338.535 58.778 336.45 59.4787 334.493 59.0024C332.823 58.5959 331.077 58.6647 329.444 59.2018C327.893 59.712 326.504 60.6278 325.424 61.8513C325.41 61.8651 325.396 61.8798 325.383 61.8955C324.396 63.0747 324.553 64.8404 325.732 65.8317C326.892 66.806 328.615 66.6749 329.611 65.5503C329.624 65.538 329.637 65.525 329.65 65.5111C330.542 64.5316 331.898 64.1181 333.187 64.4319C335.144 64.9081 337.19 64.8304 339.105 64.2071C341.079 63.5648 342.818 62.3703 344.134 60.7528ZM333.449 63.3458C331.788 62.9417 330.043 63.4609 328.873 64.7048C328.849 64.7248 328.827 64.7472 328.806 64.7717C328.214 65.4792 327.156 65.571 326.449 64.9762C325.752 64.3905 325.65 63.3544 326.212 62.6473C326.219 62.6399 326.226 62.6324 326.233 62.6246C327.186 61.5329 328.418 60.7165 329.795 60.2636C331.229 59.7916 332.764 59.731 334.232 60.0883C336.604 60.6658 339.132 59.8163 340.671 57.9244C342.825 55.2771 342.473 51.3042 339.886 49.0684C338.588 47.9425 336.924 47.3965 335.21 47.533C333.497 47.6696 331.947 48.47 330.845 49.7867C330.253 50.4942 329.195 50.586 328.487 49.9912C327.779 49.3964 327.685 48.337 328.278 47.6294C329.959 45.6204 332.324 44.3992 334.937 44.191C337.502 43.9867 339.993 44.7862 341.966 46.4442C342.001 46.4732 342.035 46.5027 342.069 46.5322C343.99 48.1917 345.171 50.5072 345.397 53.0524C345.623 55.5976 344.867 58.0812 343.268 60.0457C342.087 61.4968 340.528 62.5682 338.758 63.144C337.04 63.7032 335.204 63.773 333.449 63.3458Z" fill="white" fill-opacity="0.13"/>
</svg>
