<svg width="84" height="84" viewBox="0 0 84 84" fill="none" xmlns="http://www.w3.org/2000/svg">
<path d="M43.5 26H40.5C40.224 26 40 26.224 40 26.5V40H33.5C33.224 40 33 40.224 33 40.5V43.5C33 43.776 33.224 44 33.5 44H43.5C43.776 44 44 43.776 44 43.5V26.5C44 26.224 43.776 26 43.5 26ZM43 43H34V41H40.5C40.776 41 41 40.776 41 40.5V27H43V43Z" fill="white"/>
<path d="M42.0004 17.4409C28.4584 17.4409 17.4414 28.4579 17.4414 41.9999C17.4414 55.5419 28.4584 66.5589 42.0004 66.5589C55.5424 66.5589 66.5594 55.5419 66.5594 41.9999C66.5594 28.4579 55.5424 17.4409 42.0004 17.4409ZM42.0004 65.5589C29.0104 65.5589 18.4414 54.9899 18.4414 41.9999C18.4414 29.0089 29.0094 18.4409 42.0004 18.4409C54.9914 18.4409 65.5594 29.0089 65.5594 41.9999C65.5594 54.9899 54.9904 65.5589 42.0004 65.5589Z" fill="white"/>
<path d="M83.5 33.554H73.466C72.733 30.815 71.642 28.184 70.219 25.725L77.317 18.627C77.411 18.533 77.463 18.406 77.463 18.273C77.463 18.14 77.41 18.013 77.317 17.919L66.078 6.683C65.883 6.488 65.566 6.488 65.371 6.683L58.273 13.781C55.815 12.359 53.186 11.268 50.445 10.533V0.5C50.445 0.224 50.221 0 49.945 0H34.051C33.775 0 33.551 0.224 33.551 0.5V10.534C30.814 11.268 28.185 12.359 25.725 13.782L18.627 6.684C18.439 6.496 18.107 6.496 17.92 6.684L6.684 17.92C6.489 18.115 6.489 18.432 6.684 18.627L13.781 25.725C12.358 28.184 11.267 30.815 10.533 33.554H0.5C0.224 33.554 0 33.778 0 34.054V49.945C0 50.221 0.224 50.445 0.5 50.445L10.536 50.449C11.269 53.183 12.36 55.812 13.784 58.275L6.686 65.373C6.491 65.568 6.491 65.885 6.686 66.08L17.922 77.317C18.11 77.505 18.442 77.505 18.629 77.317L25.727 70.219C28.185 71.642 30.814 72.733 33.555 73.466V83.5C33.555 83.776 33.779 84 34.055 84H49.948C50.224 84 50.448 83.776 50.448 83.5V73.465C53.184 72.733 55.813 71.642 58.276 70.218L65.374 77.316C65.569 77.511 65.886 77.511 66.081 77.316L77.316 66.08C77.511 65.885 77.511 65.568 77.316 65.373L70.219 58.275C71.641 55.816 72.733 53.186 73.466 50.447H83.5C83.776 50.447 84 50.223 84 49.947V34.054C84 33.778 83.776 33.554 83.5 33.554ZM83 49.447H73.081C72.852 49.447 72.653 49.602 72.597 49.823C71.855 52.731 70.7 55.515 69.163 58.099C69.046 58.296 69.077 58.546 69.239 58.708L76.256 65.726L65.727 76.255L58.709 69.237C58.546 69.075 58.297 69.046 58.1 69.161C55.512 70.699 52.728 71.854 49.825 72.595C49.603 72.652 49.448 72.851 49.448 73.079V83H34.555V73.081C34.555 72.852 34.4 72.653 34.179 72.597C31.27 71.855 28.485 70.7 25.903 69.163C25.705 69.047 25.455 69.077 25.294 69.239L18.276 76.257L7.747 65.727L14.765 58.709C14.927 58.547 14.958 58.297 14.841 58.1C13.303 55.512 12.148 52.728 11.407 49.826C11.351 49.605 11.151 49.45 10.923 49.45L1 49.445V34.554H10.919C11.148 34.554 11.347 34.399 11.403 34.178C12.144 31.271 13.299 28.486 14.837 25.901C14.954 25.705 14.922 25.454 14.761 25.292L7.744 18.274L18.273 7.744L25.291 14.762C25.453 14.924 25.705 14.956 25.9 14.838C28.485 13.301 31.269 12.146 34.174 11.404C34.396 11.348 34.55 11.148 34.55 10.92V1H49.445V10.919C49.445 11.148 49.6 11.347 49.822 11.403C52.731 12.145 55.515 13.3 58.097 14.837C58.294 14.954 58.544 14.922 58.706 14.761L65.724 7.743L76.255 18.274L69.237 25.292C69.075 25.454 69.044 25.705 69.161 25.901C70.698 28.486 71.852 31.271 72.595 34.178C72.652 34.4 72.851 34.554 73.079 34.554H83V49.447Z" fill="white"/>
</svg>
