<svg width="48" height="84" viewBox="0 0 48 84" fill="none" xmlns="http://www.w3.org/2000/svg">
<path d="M41.6568 83.7606H5.82346C2.60843 83.7606 0 81.1471 0 77.9452V5.81538C0 2.61346 2.61709 0 5.82346 0H41.6568C44.8719 0 47.4803 2.61346 47.4803 5.81538V77.9365C47.4803 81.1471 44.8632 83.7519 41.6568 83.7519V83.7606ZM5.82346 2.025C3.72632 2.025 2.02781 3.72115 2.02781 5.81538V77.9365C2.02781 80.0308 3.72632 81.7269 5.82346 81.7269H41.6568C43.754 81.7269 45.4525 80.0308 45.4525 77.9365V5.81538C45.4525 3.72115 43.754 2.025 41.6568 2.025H5.82346Z" fill="white"/>
<path d="M29.9429 6.43857H20.2112C19.6479 6.43857 19.1973 5.98857 19.1973 5.42607C19.1973 4.86357 19.6479 4.41357 20.2112 4.41357H29.9429C30.5062 4.41357 30.9568 4.86357 30.9568 5.42607C30.9568 5.98857 30.5062 6.43857 29.9429 6.43857Z" fill="white"/>
<path d="M17.5491 6.43851C17.4797 6.43851 17.4191 6.43851 17.3497 6.42121C17.2891 6.4039 17.2198 6.38659 17.1591 6.36063C17.0984 6.33467 17.0378 6.30005 16.9858 6.26544C16.9338 6.23082 16.8818 6.18755 16.8298 6.13563C16.6391 5.94525 16.5352 5.68563 16.5352 5.41736C16.5352 5.34813 16.5352 5.28755 16.5525 5.21832C16.5698 5.14909 16.5872 5.08851 16.6131 5.02794C16.6391 4.96736 16.6651 4.90678 16.7085 4.85486C16.7431 4.80294 16.7865 4.75101 16.8298 4.69909C16.8731 4.64717 16.9338 4.61255 16.9858 4.56928C17.0378 4.53467 17.0984 4.50005 17.1591 4.47409C17.2198 4.44813 17.2804 4.43082 17.3497 4.41351C17.4797 4.38755 17.6184 4.38755 17.7484 4.41351C17.809 4.42217 17.8784 4.44813 17.939 4.47409C17.9997 4.50005 18.0603 4.52601 18.1123 4.56928C18.1643 4.6039 18.2163 4.64717 18.2683 4.69909C18.3117 4.74236 18.355 4.79428 18.3897 4.85486C18.4243 4.90678 18.459 4.96736 18.485 5.02794C18.511 5.08851 18.5283 5.14909 18.5456 5.21832C18.563 5.2789 18.563 5.34813 18.563 5.41736C18.563 5.68563 18.4503 5.94525 18.2683 6.13563C18.225 6.1789 18.173 6.22217 18.1123 6.26544C18.0603 6.30005 17.9997 6.33467 17.939 6.36063C17.8784 6.38659 17.8177 6.4039 17.7484 6.42121C17.6791 6.43851 17.6184 6.43851 17.5491 6.43851Z" fill="white"/>
<path d="M31.0333 80.9391H16.4573C15.894 80.9391 15.4434 80.4891 15.4434 79.9266C15.4434 79.3641 15.894 78.9141 16.4573 78.9141H31.0333C31.5965 78.9141 32.0472 79.3641 32.0472 79.9266C32.0472 80.4891 31.5965 80.9391 31.0333 80.9391Z" fill="white"/>
<path d="M17.0551 49.8288C16.8038 49.8288 16.5438 49.7336 16.3531 49.5432C15.9458 49.1538 15.9372 48.5134 16.3271 48.1066L29.7072 34.2345C30.0972 33.8278 30.7385 33.8191 31.1458 34.2086C31.5531 34.598 31.5617 35.2384 31.1718 35.6451L17.7917 49.5172C17.5923 49.7249 17.3237 49.8288 17.0637 49.8288H17.0551Z" fill="white"/>
<path d="M17.1859 43.3207C16.9346 43.3207 16.6746 43.2255 16.484 43.0352C16.0767 42.6457 16.068 42.0053 16.458 41.5986L23.3127 34.4938C23.7027 34.0871 24.3439 34.0784 24.7512 34.4678C25.1585 34.8573 25.1672 35.4977 24.7772 35.9044L17.9225 43.0092C17.7232 43.2169 17.4546 43.3207 17.1946 43.3207H17.1859Z" fill="white"/>
<path d="M23.3988 49.5258C23.1475 49.5258 22.8875 49.4306 22.6969 49.2402C22.2896 48.8508 22.2809 48.2104 22.6709 47.8037L29.5256 40.6989C29.9155 40.2922 30.5568 40.2835 30.9641 40.6729C31.3714 41.0623 31.3801 41.7027 30.9901 42.1095L24.1354 49.2143C23.9361 49.422 23.6675 49.5258 23.4075 49.5258H23.3988Z" fill="white"/>
</svg>
