<svg width="74" height="84" viewBox="0 0 74 84" fill="none" xmlns="http://www.w3.org/2000/svg">
<path d="M73.887 44.4149C73.8775 44.3976 73.8902 44.3976 73.8743 44.3739L68.4491 36.0835L73.8109 27.7931C73.822 27.7757 73.8204 27.7631 73.8283 27.7473C73.8918 27.632 73.9394 27.5072 73.9394 27.3667C73.9394 26.9307 73.5903 26.5769 73.1587 26.5769H66.0991C65.7865 9.44021 55.4962 0 37.0022 0C18.5083 0 8.21796 9.44021 7.90536 26.5769H0.860037C0.422084 26.5769 0.0666446 26.9307 0.0666446 27.3667C0.0666446 27.4425 0.0904471 27.512 0.109488 27.5815C0.109488 27.583 0.111076 27.5862 0.111076 27.5878C0.126944 27.6399 0.144397 27.6873 0.168199 27.7347C0.179307 27.7568 0.174547 27.7694 0.192001 27.7947L5.55374 36.0851L0.12853 44.3755C0.115836 44.396 0.120597 44.4086 0.111076 44.426C0.0460178 44.5397 0 44.6661 0 44.8066C0 45.2426 0.35544 45.5963 0.793392 45.5963H7.89584C7.99898 51.2586 9.99991 55.5578 12.9021 59.072L2.8578 71.3236C2.75148 71.4531 2.70864 71.6063 2.69595 71.7611C2.68325 71.8148 2.66262 71.8637 2.66262 71.9206C2.65786 72.3565 3.00854 72.7135 3.4465 72.7198L13.0148 72.8303L14.9745 81.4619C14.9808 81.4887 14.9935 81.4887 15.0015 81.5077C15.0443 81.6514 15.1141 81.7872 15.2379 81.8915C15.387 82.0163 15.5679 82.0763 15.7472 82.0763C15.9742 82.0763 16.1979 81.9799 16.355 81.7951L26.4644 69.8215C30.5678 72.5113 34.3221 75.1442 36.3215 78.4736C36.3262 78.4831 36.3374 78.4862 36.3437 78.4941C36.4072 78.5936 36.4881 78.6821 36.596 78.7468C36.5992 78.7484 36.6039 78.7484 36.6071 78.75C36.7214 78.8148 36.8483 78.8479 36.9784 78.8527C36.9864 78.8527 36.9927 78.859 37.0006 78.859C37.0086 78.859 37.0149 78.8527 37.0229 78.8527C37.153 78.8479 37.2815 78.8148 37.3942 78.75C37.3973 78.7484 37.4021 78.7484 37.4053 78.7468C37.5132 78.6821 37.5941 78.5936 37.6576 78.4941C37.6639 78.4862 37.6734 78.4831 37.6798 78.4736C39.5141 75.4174 42.8305 72.9504 46.5356 70.4849L57.6447 83.7173C57.651 83.7252 57.659 83.7141 57.6653 83.7204C57.7716 83.8436 57.9065 83.9431 58.0779 83.9811C58.1366 83.9937 58.1953 84 58.254 84C58.6174 84 58.9443 83.7505 59.0268 83.384L60.9865 74.7525L70.5548 74.6419C70.9927 74.6372 71.3434 74.2802 71.3386 73.8427C71.3386 73.7859 71.3164 73.7353 71.3037 73.6832C71.291 73.53 71.2482 73.3768 71.1435 73.2473L60.3121 59.9991C63.6411 56.3222 65.9928 51.7624 66.1038 45.5963H73.219C73.6506 45.5963 73.9997 45.2426 73.9997 44.8066C74.0044 44.6613 73.9552 44.5318 73.887 44.4149ZM37.0022 1.57942C49.4061 1.57942 64.1521 5.95284 64.5234 26.5769H60.2359C58.8268 9.02008 45.2662 6.28768 37.0022 6.28768C28.7382 6.28768 15.1776 9.02008 13.7685 26.5769H9.48104C9.85234 5.95284 24.5983 1.57942 37.0022 1.57942ZM58.7777 29.6426V43.8053C58.7777 53.0465 52.0941 57.3994 45.6296 61.6101C42.2386 63.8181 39.0238 65.9219 37.0022 68.6306C34.9807 65.9235 31.7658 63.8181 28.3749 61.6101C21.9119 57.3994 15.2268 53.0465 15.2268 43.8053V29.6426C15.2268 11.6451 27.0674 7.8671 37.0022 7.8671C46.9371 7.8671 58.7777 11.6451 58.7777 29.6426ZM2.25799 44.0153L7.16592 36.5162C7.3357 36.2556 7.33729 35.9192 7.1675 35.6586L2.31353 28.1564H13.6733C13.6559 28.6444 13.64 29.134 13.64 29.6426V43.8053C13.64 43.8779 13.6495 43.9443 13.6495 44.0169L2.25799 44.0153ZM16.1693 79.5587L14.4239 71.87C14.3429 71.5131 14.0272 71.2588 13.659 71.2541L5.04121 71.1546L13.9589 60.2771C17.188 63.7471 21.2708 66.4321 25.1299 68.945L16.1693 79.5587ZM68.9664 73.0799L60.3454 73.1794C59.9789 73.1841 59.6615 73.4384 59.5806 73.7954L57.8367 81.4777L47.8701 69.6051C48.1843 69.3998 48.4953 69.1945 48.8127 68.9892C52.3623 66.6769 56.1119 64.2256 59.2124 61.1505L68.9664 73.0799ZM47.9431 67.6672C43.6048 70.4928 39.5046 73.1857 37.0022 76.6699C34.4999 73.1857 30.3996 70.4944 26.0613 67.6672C18.0084 62.4219 9.7016 56.9903 9.48262 45.5948H13.7225C14.5381 54.4822 21.4041 58.9567 27.5053 62.9305C31.1454 65.3012 34.5824 67.5393 36.3199 70.4328C36.3247 70.4422 36.3358 70.4454 36.3421 70.4533C36.4056 70.5528 36.4865 70.6413 36.5944 70.706C36.5976 70.7076 36.6023 70.7076 36.6055 70.7092C36.7198 70.7739 36.8467 70.8071 36.9768 70.8118C36.9848 70.8118 36.9911 70.8181 36.999 70.8181C37.007 70.8181 37.0133 70.8118 37.0213 70.8118C37.1514 70.8071 37.2799 70.7739 37.3926 70.7092C37.3957 70.7076 37.4005 70.7076 37.4037 70.706C37.5116 70.6413 37.5925 70.5528 37.656 70.4533C37.6623 70.4454 37.6718 70.4422 37.6782 70.4328C39.4157 67.5393 42.8527 65.2996 46.4928 62.9305C52.594 58.9567 59.46 54.4822 60.2756 45.5948H64.5155C64.3028 56.9903 55.996 62.4219 47.9431 67.6672ZM60.3549 44.0153C60.3549 43.9427 60.3644 43.8764 60.3644 43.8037V29.641C60.3644 29.1324 60.3486 28.6428 60.3311 28.1548H71.6909L66.8369 35.657C66.6687 35.9192 66.6687 36.2541 66.8385 36.5147L71.7464 44.0138L60.3549 44.0153Z" fill="#1573CA"/>
<path d="M41.9522 46C41.7216 46 41.4911 45.9206 41.3081 45.7563C40.9213 45.411 40.8947 44.8275 41.251 44.4508L42.3447 43.2985C42.7029 42.9218 43.3051 42.8997 43.6919 43.2431C44.0787 43.5884 44.1053 44.1719 43.749 44.5486L42.6553 45.7009C42.4667 45.9003 42.2094 46 41.9522 46Z" fill="#1573CA"/>
<path d="M47.2986 39.2252C52.0963 39.2252 56 35.1387 56 30.1142C56 29.0304 55.8001 27.9339 55.405 26.8564C55.3153 26.614 55.1122 26.4286 54.8635 26.3636C54.618 26.2971 54.3488 26.3605 54.1536 26.53L48.9277 31.0602L47.1333 28.4584L52.1262 23.7111C52.2994 23.5463 52.3891 23.3102 52.3702 23.071C52.3497 22.8317 52.2238 22.613 52.0255 22.4784C50.6041 21.5118 48.9686 21.0016 47.2986 21.0016C42.4992 21.0016 38.5956 25.0881 38.5956 30.1126C38.5956 31.1758 38.7781 32.228 39.1402 33.2452C38.7624 33.5146 38.1879 33.9234 37.5031 34.4146C36.9774 34.0391 36.4422 33.6572 35.8598 33.2436C36.2203 32.2264 36.4045 31.1758 36.4045 30.111C36.4045 25.0881 32.5008 21 27.7014 21C26.0314 21 24.3959 21.5102 22.9745 22.4768C22.7762 22.6115 22.6503 22.8301 22.6298 23.0694C22.6109 23.3087 22.7006 23.5448 22.8738 23.7095L27.8667 28.4568L26.0723 31.0586L20.8464 26.5284C20.6496 26.3589 20.3836 26.2971 20.1365 26.362C19.8862 26.427 19.6847 26.6108 19.595 26.8548C19.2015 27.9323 19 29.0288 19 30.1126C19 35.1356 22.9037 39.2236 27.7014 39.2236C28.8977 39.2236 30.072 38.9527 31.2037 38.4171C31.2998 38.5502 31.4036 38.6912 31.5028 38.8291C27.5551 41.8286 27.4826 42.1899 27.4134 42.5638C27.0813 44.3829 27.8069 46.5061 29.3086 48.1033C30.4561 49.3266 31.8271 50 33.1335 50C33.2894 50 33.4452 49.9905 33.5995 49.9699C34.1677 49.8986 35.0602 49.3868 37.4921 46.5378C39.1575 48.4614 40.6182 49.8717 41.399 49.9699C41.5516 49.9889 41.7059 49.9984 41.8617 49.9984C43.2878 49.9984 44.8383 49.157 46.0047 47.7452C47.3001 46.1797 47.892 44.2418 47.585 42.5622C47.541 42.3182 47.4434 41.8413 43.4988 38.8196C43.6074 38.6722 43.7097 38.5312 43.7947 38.4139C44.9264 38.9543 46.1023 39.2252 47.2986 39.2252ZM33.4027 48.3996C32.474 48.5121 31.3753 48.0003 30.4513 47.0163C29.3432 45.8359 28.7592 44.2688 28.9402 42.9805C29.1212 42.7698 29.8343 42.0869 32.4347 40.1078C33.6923 41.8127 35.1074 43.6698 36.4611 45.3146C34.1709 48.0209 33.4861 48.3695 33.4027 48.3996ZM46.0582 42.979C46.2235 44.1594 45.7481 45.5855 44.7974 46.7343C43.9253 47.788 42.8282 48.4171 41.8633 48.4171C41.7736 48.4171 41.6854 48.4123 41.6304 48.4075C40.5679 48.0685 35.8472 42.1915 32.0836 36.9403C31.931 36.7264 31.6901 36.6108 31.4446 36.6108C31.3139 36.6108 31.1801 36.644 31.0573 36.7137C29.9744 37.3301 28.8458 37.6423 27.7014 37.6423C23.771 37.6423 20.5741 34.2657 20.5741 30.1158C20.5741 29.5913 20.6307 29.0637 20.7441 28.5344L25.7071 32.8364C25.8771 32.9838 26.1022 33.0487 26.3194 33.0218C26.5414 32.9933 26.7397 32.8713 26.8672 32.6875L29.5462 28.8054C29.7682 28.4837 29.7225 28.0464 29.4408 27.7786L24.7217 23.2912C25.6583 22.8301 26.672 22.5893 27.7014 22.5893C31.6319 22.5893 34.8304 25.9659 34.8304 30.1158C34.8304 31.1727 34.6116 32.2184 34.1787 33.2215C34.0292 33.5669 34.1425 33.9693 34.4479 34.1848C39.647 37.8594 45.3074 42.0774 46.0582 42.979ZM42.9179 36.9387C42.9179 36.9387 42.6645 37.2921 42.2411 37.872C41.2966 37.1653 40.1712 36.3398 38.8584 35.3923C39.8768 34.6618 40.5521 34.1848 40.5521 34.1848C40.8575 33.9693 40.9708 33.5653 40.8213 33.2215C40.3884 32.2184 40.1696 31.1742 40.1696 30.1158C40.1696 25.9659 43.3681 22.5893 47.2986 22.5893C48.328 22.5893 49.3417 22.8301 50.2783 23.2912L45.5592 27.7786C45.2759 28.0464 45.2318 28.4837 45.4538 28.8054L48.1328 32.6875C48.2603 32.8713 48.4587 32.9933 48.6806 33.0218C48.901 33.044 49.1245 32.9822 49.2929 32.8364L54.2559 28.5344C54.3693 29.0621 54.4259 29.5913 54.4259 30.1158C54.4259 34.2657 51.229 37.6423 47.2986 37.6423C46.1542 37.6423 45.0256 37.3301 43.9427 36.7137C43.5916 36.5109 43.1509 36.6108 42.9179 36.9387Z" fill="#1573CA"/>
<path d="M32.3639 46C32.1925 46 32.021 45.9003 31.8965 45.7009L31.1673 44.5486C30.9298 44.1738 30.9476 43.5884 31.2054 43.2431C31.4646 42.8997 31.866 42.9218 32.1035 43.2985L32.8327 44.4508C33.0702 44.8256 33.0524 45.411 32.7946 45.7563C32.6714 45.9188 32.5176 46 32.3639 46Z" fill="#1573CA"/>
</svg>
