<svg width="96" height="79" viewBox="0 0 96 79" fill="none" xmlns="http://www.w3.org/2000/svg">
<path d="M0 60.9091C0 62.5245 0.650733 64.0738 1.80905 65.216C2.96736 66.3583 4.53837 67 6.17647 67H49.4118C49.7394 67 50.0536 66.8717 50.2853 66.6432C50.5169 66.4147 50.6471 66.1049 50.6471 65.7818C50.6471 65.4587 50.5169 65.1489 50.2853 64.9204C50.0536 64.692 49.7394 64.5636 49.4118 64.5636H23.4706V14.6182H60.5294V37.7636C60.5294 38.0867 60.6596 38.3966 60.8912 38.625C61.1229 38.8535 61.4371 38.9818 61.7647 38.9818C62.0923 38.9818 62.4065 38.8535 62.6382 38.625C62.8699 38.3966 63 38.0867 63 37.7636V14.6182H71.6471V31.6727C71.6471 31.9958 71.7772 32.3057 72.0089 32.5341C72.2405 32.7626 72.5547 32.8909 72.8824 32.8909C73.21 32.8909 73.5242 32.7626 73.7558 32.5341C73.9875 32.3057 74.1176 31.9958 74.1176 31.6727V14.6182H77.8235C78.8064 14.6182 79.749 15.0032 80.444 15.6886C81.139 16.3739 81.5294 17.3035 81.5294 18.2727V38.9818C81.5294 39.3049 81.6596 39.6147 81.8912 39.8432C82.1229 40.0717 82.4371 40.2 82.7647 40.2C83.0923 40.2 83.4065 40.0717 83.6382 39.8432C83.8699 39.6147 84 39.3049 84 38.9818V18.2727C84 16.6573 83.3493 15.1081 82.191 13.9658C81.0326 12.8235 79.4616 12.1818 77.8235 12.1818H58.0588V7.71109C58.0556 5.66697 57.2307 3.7075 55.765 2.26209C54.2992 0.816673 52.3122 0.00322163 50.2394 0H33.7606C31.6878 0.00322163 29.7008 0.816673 28.235 2.26209C26.7693 3.7075 25.9444 5.66697 25.9412 7.71109V12.1818H6.17647C4.53837 12.1818 2.96736 12.8235 1.80905 13.9658C0.650733 15.1081 0 16.6573 0 18.2727V60.9091ZM49.4118 12.1818H34.5882V8.52727H49.4118V12.1818ZM28.4118 7.71109C28.4118 6.31215 28.9753 4.9705 29.9784 3.9813C30.9815 2.99209 32.342 2.43636 33.7606 2.43636H50.2394C51.658 2.43636 53.0185 2.99209 54.0216 3.9813C55.0247 4.9705 55.5882 6.31215 55.5882 7.71109V12.1818H51.8824V7.30909C51.8824 6.98601 51.7522 6.67616 51.5205 6.44771C51.2889 6.21925 50.9747 6.09091 50.6471 6.09091H33.3529C33.0253 6.09091 32.7111 6.21925 32.4795 6.44771C32.2478 6.67616 32.1176 6.98601 32.1176 7.30909V12.1818H28.4118V7.71109ZM12.3529 14.6182H21V64.5636H12.3529V14.6182ZM2.47059 18.2727C2.47059 17.3035 2.86103 16.3739 3.55602 15.6886C4.251 15.0032 5.19361 14.6182 6.17647 14.6182H9.88235V64.5636H6.17647C5.19361 64.5636 4.251 64.1786 3.55602 63.4932C2.86103 62.8079 2.47059 61.8783 2.47059 60.9091V18.2727Z" fill="#1573CA"/>
<path d="M73.5 48C71.4233 48 69.3932 48.5572 67.6665 49.601C65.9398 50.6449 64.594 52.1286 63.7993 53.8645C63.0045 55.6004 62.7966 57.5105 63.2018 59.3534C63.6069 61.1962 64.6069 62.8889 66.0754 64.2175C67.5438 65.5461 69.4148 66.4509 71.4516 66.8175C73.4884 67.184 75.5996 66.9959 77.5182 66.2769C79.4368 65.5578 81.0767 64.3402 82.2304 62.7779C83.3842 61.2157 84 59.3789 84 57.5C84 54.9804 82.8938 52.5641 80.9246 50.7825C78.9555 49.0009 76.2848 48 73.5 48ZM73.5 64.625C71.9425 64.625 70.4199 64.2071 69.1249 63.4242C67.8299 62.6413 66.8205 61.5285 66.2245 60.2266C65.6284 58.9247 65.4725 57.4921 65.7763 56.11C66.0802 54.7279 66.8302 53.4583 67.9315 52.4619C69.0329 51.4654 70.4361 50.7868 71.9637 50.5119C73.4913 50.237 75.0747 50.3781 76.5136 50.9174C77.9526 51.4566 79.1825 52.3699 80.0478 53.5416C80.9131 54.7133 81.375 56.0908 81.375 57.5C81.375 59.3897 80.5453 61.2019 79.0685 62.5381C77.5916 63.8743 75.5886 64.625 73.5 64.625Z" fill="#1573CA"/>
<path d="M92.7562 46.4093L89.2439 42.0803C89.0658 41.8595 88.815 41.7062 88.5344 41.6463C88.2537 41.5864 87.9606 41.6238 87.7049 41.752L82.7405 44.2569C81.4609 43.4204 80.0648 42.7692 78.5953 42.3235L77.5155 36.9731C77.4575 36.6943 77.3015 36.4442 77.0747 36.2665C76.848 36.0887 76.5648 35.9945 76.2744 36.0002H70.7019C70.4115 35.9945 70.1283 36.0887 69.9016 36.2665C69.6748 36.4442 69.5188 36.6943 69.4608 36.9731L68.3686 42.3235C66.9091 42.7802 65.5221 43.4351 64.2482 44.2691L59.2838 41.7641C59.0281 41.6359 58.735 41.5986 58.4544 41.6584C58.1737 41.7183 57.923 41.8717 57.7448 42.0924L54.2325 46.4093C54.0532 46.6259 53.9553 46.8964 53.9553 47.1753C53.9553 47.4543 54.0532 47.7248 54.2325 47.9414L57.8069 52.1002C57.2693 53.5069 56.9351 54.9804 56.814 56.4778L51.7255 58.7152C51.4662 58.8313 51.2556 59.0312 51.1291 59.2814C51.0025 59.5316 50.9677 59.8169 51.0305 60.0893L52.2716 65.4762C52.3371 65.7483 52.4963 65.9899 52.7224 66.1605C52.9484 66.331 53.2275 66.42 53.5127 66.4126L59.0604 66.2666C59.8418 67.5612 60.8071 68.7404 61.9273 69.7687L60.5373 75.0462C60.4664 75.3193 60.4944 75.608 60.6166 75.8631C60.7389 76.1181 60.9477 76.3237 61.2075 76.4446L66.2712 78.8766C66.5309 79.0009 66.8268 79.0325 67.1077 78.9659C67.3887 78.8993 67.6371 78.7387 67.8101 78.5118L71.1487 74.1707C72.6671 74.3896 74.21 74.3896 75.7283 74.1707L79.0793 78.5118C79.1949 78.6628 79.3448 78.7854 79.5171 78.8698C79.6895 78.9543 79.8795 78.9982 80.0722 78.9982C80.2571 78.9971 80.4394 78.9556 80.6059 78.8766L85.6819 76.4446C85.9394 76.3217 86.1456 76.1153 86.2655 75.8604C86.3854 75.6055 86.4116 75.3179 86.3397 75.0462L84.9621 69.7687C86.0787 68.7371 87.0435 67.5585 87.829 66.2666L93.4884 66.4004C93.7736 66.4079 94.0527 66.3188 94.2788 66.1483C94.5048 65.9778 94.664 65.7361 94.7295 65.4641L95.9706 60.0772C96.0325 59.8033 95.9959 59.5169 95.867 59.2665C95.7381 59.0161 95.5248 58.817 95.2632 58.7031L90.1871 56.4656C90.0558 54.9686 89.7176 53.4959 89.1818 52.088L92.7562 47.9293C92.9324 47.7136 93.0284 47.4455 93.0284 47.1693C93.0284 46.893 92.9324 46.6249 92.7562 46.4093ZM86.7741 51.0909C86.624 51.2652 86.5269 51.4773 86.494 51.7031C86.4611 51.9289 86.4936 52.1592 86.5879 52.3677C87.2774 53.9426 87.6645 55.6286 87.7297 57.3412C87.7395 57.5667 87.8132 57.7851 87.9425 57.972C88.0719 58.1588 88.2517 58.3067 88.462 58.3991L93.2899 60.5271L92.4956 63.9684L87.2829 63.8225C87.0521 63.8163 86.8242 63.8734 86.6246 63.9872C86.4251 64.1011 86.262 64.2672 86.1535 64.467C85.328 65.9801 84.2209 67.3287 82.8895 68.4433C82.7169 68.5913 82.5896 68.7834 82.5217 68.998C82.4538 69.2127 82.4479 69.4416 82.5047 69.6593L83.8203 74.6814L80.581 76.2014L77.3542 72.0791C77.2132 71.8949 77.0217 71.7536 76.802 71.6718C76.5823 71.59 76.3434 71.571 76.1131 71.6171C74.3917 71.9451 72.6219 71.9451 70.9005 71.6171C70.6702 71.571 70.4313 71.59 70.2116 71.6718C69.9918 71.7536 69.8004 71.8949 69.6594 72.0791L66.4698 76.2136L63.2305 74.6936L64.5461 69.6715C64.6029 69.4537 64.597 69.2248 64.5291 69.0102C64.4612 68.7955 64.3339 68.6035 64.1613 68.4554C62.837 67.3373 61.7347 65.9892 60.9096 64.4791C60.8012 64.2794 60.6381 64.1133 60.4385 63.9994C60.239 63.8855 60.011 63.8285 59.7802 63.8346L54.5428 63.9684L53.7733 60.5271L58.6012 58.3991C58.8115 58.3067 58.9913 58.1588 59.1206 57.972C59.25 57.7851 59.3237 57.5667 59.3334 57.3412C59.3969 55.6271 59.7884 53.94 60.4877 52.3677C60.5803 52.1581 60.6108 51.9271 60.5757 51.7013C60.5406 51.4755 60.4412 51.2639 60.2891 51.0909L56.8885 47.1389L59.1349 44.3907L63.8386 46.8227C64.0359 46.915 64.2546 46.9547 64.4725 46.9376C64.6905 46.9205 64.8999 46.8473 65.0797 46.7254C66.4934 45.7074 68.0887 44.9568 69.7835 44.5123C70.0067 44.4532 70.2086 44.3343 70.3664 44.1689C70.5243 44.0034 70.6319 43.7981 70.6771 43.576L71.7196 38.4323H75.3188L76.3489 43.5152C76.3941 43.7373 76.5016 43.9426 76.6595 44.1081C76.8174 44.2735 77.0193 44.3924 77.2425 44.4515C78.9286 44.8988 80.5152 45.6493 81.9214 46.6646C82.1012 46.7865 82.3107 46.8597 82.5286 46.8768C82.7465 46.8939 82.9652 46.8542 83.1625 46.7619L87.8663 44.3299L90.1126 47.0781L86.7741 51.0909Z" fill="#1573CA"/>
</svg>
