<svg width="84" height="84" viewBox="0 0 84 84" fill="none" xmlns="http://www.w3.org/2000/svg">
<path d="M83.7339 23.8126C83.6488 23.7273 83.5478 23.6596 83.4365 23.6134C83.3252 23.5672 83.2059 23.5434 83.0854 23.5434C82.965 23.5434 82.8457 23.5672 82.7344 23.6134C82.6231 23.6596 82.5221 23.7273 82.437 23.8126L75.8876 30.3601L53.6419 8.11526L60.1896 1.56604C60.3616 1.39384 60.4581 1.16037 60.4579 0.917004C60.4578 0.673635 60.3609 0.440298 60.1887 0.268327C60.0165 0.0963554 59.783 -0.000164562 59.5397 2.10621e-07C59.2963 0.000164983 59.0629 0.0970012 58.891 0.269206L51.6948 7.47387C51.5228 7.64617 51.4262 7.87969 51.4262 8.12316C51.4262 8.36663 51.5228 8.60015 51.6948 8.77246L53.7298 10.8073L43.5919 20.2507C43.3953 20.448 43.1723 20.6171 42.9294 20.7533L32.1853 26.7683C30.6465 27.6245 29.4226 28.9514 28.6933 30.5542C27.964 32.157 27.7676 33.9513 28.1329 35.674L28.321 36.528L11.9517 54.8805L8.764 51.6929C8.58848 51.5271 8.35616 51.4347 8.11468 51.4347C7.8732 51.4347 7.64087 51.5271 7.46536 51.6929L0.269216 58.8888C0.0970048 59.0607 0.000164989 59.2941 2.10628e-07 59.5375C-0.000164568 59.7808 0.096359 60.0143 0.268337 60.1865C0.440315 60.3587 0.67366 60.4555 0.917038 60.4557C1.16042 60.4559 1.39389 60.3593 1.5661 60.1874L8.11556 53.6399L30.3612 75.8865L23.8135 82.434C23.6415 82.6062 23.545 82.8396 23.5452 83.083C23.5453 83.3264 23.6422 83.5597 23.8144 83.7317C23.9866 83.9036 24.2201 84.0002 24.4634 84C24.7068 83.9998 24.9402 83.903 25.1122 83.7308L32.3171 76.5261C32.4891 76.3538 32.5857 76.1203 32.5857 75.8768C32.5857 75.6334 32.4891 75.3998 32.3171 75.2275L28.5442 71.4548L31.5896 67.624C31.701 67.487 31.8332 67.3684 31.9814 67.2725L33.6192 66.2041C33.9869 67.2015 34.7348 68.0125 35.6991 68.4598C36.6635 68.907 37.7657 68.954 38.7646 68.5905L38.8208 68.5711C39.7011 68.2512 40.4415 67.6332 40.9138 66.8244C41.4549 67.3655 42.1393 67.7408 42.8865 67.9061C43.6336 68.0714 44.4124 68.0198 45.1313 67.7575L45.1893 67.7365C45.9037 67.4722 46.5284 67.0105 46.9906 66.4052C47.4529 65.7998 47.7338 65.0756 47.8006 64.3169C48.6808 64.6379 49.6461 64.6379 50.5262 64.3169L50.5824 64.2958C51.0803 64.1156 51.5374 63.8382 51.9272 63.4799C52.317 63.1215 52.6316 62.6892 52.8529 62.2082C53.0395 61.8046 53.1583 61.373 53.2043 60.9307C54.0947 61.2587 55.0729 61.2587 55.9633 60.9307L56.023 60.9096C57.0238 60.5447 57.8388 59.7975 58.2889 58.8321C58.739 57.8666 58.7875 56.762 58.4235 55.7609L58.1494 55.007L61.2791 54.2673C62.3166 54.0122 63.2127 53.3605 63.7749 52.452C64.3371 51.5435 64.5206 50.4508 64.2859 49.4085C64.0928 48.5085 63.5965 47.702 62.88 47.1241C63.6098 46.6541 64.1767 45.9703 64.5035 45.1662C64.8302 44.362 64.9009 43.4766 64.7059 42.6308C64.4812 41.6102 63.8793 40.712 63.0206 40.1162C63.575 39.6448 63.9906 39.0313 64.2228 38.3415C64.455 37.6518 64.495 36.9119 64.3386 36.2011C64.2317 35.6911 64.0248 35.2074 63.7298 34.7779C63.4348 34.3484 63.0576 33.9816 62.6199 33.6988C63.0867 33.2449 63.4322 32.6812 63.6247 32.0592C63.8172 31.4372 63.8505 30.7769 63.7218 30.1387L68.3997 25.4627L75.2391 32.3018C75.4114 32.4738 75.645 32.5704 75.8884 32.5704C76.1319 32.5704 76.3654 32.4738 76.5378 32.3018L83.7427 25.0972C83.9093 24.9243 84.0016 24.6932 84 24.4531C83.9983 24.2131 83.9028 23.9832 83.7339 23.8126ZM38.1847 66.8473L38.4993 67.7119L38.1355 66.8701C37.8652 66.9698 37.5779 67.0151 37.29 67.0034C37.0022 66.9917 36.7195 66.9232 36.4582 66.8019C36.1969 66.6805 35.9622 66.5088 35.7675 66.2964C35.5728 66.0841 35.422 65.8353 35.3238 65.5645L33.9935 61.9095C33.8969 61.6354 33.8556 61.3449 33.8719 61.0548C33.8883 60.7647 33.962 60.4807 34.0888 60.2192C34.2156 59.9577 34.393 59.724 34.6107 59.5316C34.8284 59.3391 35.0822 59.1917 35.3572 59.0979C35.9011 58.9003 36.5012 58.9266 37.0257 59.1711C37.5503 59.4156 37.9563 59.8582 38.1548 60.4018L39.4851 64.0621C39.6795 64.604 39.652 65.2008 39.4084 65.7224C39.1648 66.2441 38.725 66.6484 38.1847 66.8473ZM44.5479 66.0161L44.8607 66.8789L44.4881 66.0372C43.9442 66.2346 43.3442 66.208 42.8199 65.9632C42.2956 65.7183 41.89 65.2754 41.6923 64.7316L41.2178 63.4295L39.8928 59.7674L39.5413 58.7869C39.3516 58.2377 39.3854 57.6359 39.6354 57.1114C39.8854 56.5869 40.3315 56.1817 40.8776 55.9831C41.4236 55.7846 42.0259 55.8086 42.5544 56.0501C43.0829 56.2916 43.4953 56.7311 43.7026 57.2739L44.2896 58.8888L45.3879 61.9112L45.8606 63.2133C45.9588 63.4835 46.0027 63.7704 45.9898 64.0576C45.977 64.3448 45.9076 64.6267 45.7857 64.887C45.6637 65.1474 45.4916 65.3811 45.2792 65.5749C45.0668 65.7686 44.8183 65.9185 44.5479 66.0161ZM51.1887 61.4385C51.0684 61.6986 50.8978 61.9322 50.6867 62.1258C50.4755 62.3194 50.2281 62.4693 49.9586 62.5667L50.2732 63.4295L49.9006 62.5878C49.3574 62.785 48.7581 62.7588 48.2341 62.5151C47.71 62.2714 47.3039 61.8299 47.1048 61.2874L46.0047 58.2614L45.7745 57.6271C45.6754 57.3579 45.6307 57.0717 45.6431 56.7852C45.6555 56.4986 45.7246 56.2173 45.8465 55.9577C45.9741 55.6895 46.1541 55.4497 46.3759 55.2523C46.5978 55.0549 46.857 54.904 47.1381 54.8085C47.682 54.6111 48.2821 54.6377 48.8064 54.8825C49.3307 55.1273 49.7363 55.5703 49.934 56.1141L50.8127 58.5444L51.2573 59.7656C51.3574 60.0351 51.4029 60.3218 51.3911 60.609C51.3793 60.8962 51.3105 61.1782 51.1887 61.4385ZM56.6363 58.0717C56.5158 58.3315 56.3451 58.565 56.134 58.7586C55.9229 58.9522 55.6755 59.1022 55.4062 59.1998L55.3482 59.2209C55.0787 59.3196 54.7924 59.3642 54.5056 59.3521C54.2188 59.3401 53.9372 59.2716 53.6769 59.1507C53.4166 59.0298 53.1827 58.8587 52.9885 58.6474C52.7944 58.436 52.6438 58.1884 52.5453 57.9188L51.6667 55.4868C51.5684 55.2174 51.5243 54.9312 51.5369 54.6447C51.5496 54.3582 51.6188 54.0771 51.7405 53.8174C51.8672 53.549 52.0467 53.3088 52.2683 53.1113C52.4899 52.9139 52.7491 52.7631 53.0304 52.6682C53.2695 52.5833 53.5217 52.5411 53.7755 52.5434C54.2231 52.5455 54.6593 52.6846 55.0256 52.9418C55.3918 53.1991 55.6706 53.5623 55.8245 53.9826L56.7031 56.4111C56.8007 56.6791 56.8445 56.9638 56.8318 57.2487C56.8191 57.5337 56.7503 57.8134 56.6293 58.0717H56.6363ZM61.1772 45.8993L57.5203 46.7445C57.3014 46.7962 57.1091 46.9263 56.9797 47.1102C56.8503 47.2941 56.7929 47.5191 56.8182 47.7425C56.8435 47.9659 56.9499 48.1723 57.1172 48.3226C57.2844 48.4729 57.501 48.5566 57.7259 48.558C57.7956 48.5581 57.8652 48.5505 57.9332 48.5352L58.5975 48.3805L59.9102 48.1204C60.4838 48.012 61.0771 48.1317 61.5637 48.454C62.0504 48.7764 62.3921 49.276 62.5159 49.8464C62.6398 50.4169 62.5362 51.0131 62.2271 51.5083C61.918 52.0035 61.4278 52.3585 60.8609 52.4977L57.522 53.2867C57.2313 52.5495 56.7312 51.9135 56.0833 51.457C55.4355 51.0006 54.6683 50.7436 53.8762 50.7178C53.0841 50.692 52.3018 50.8986 51.6257 51.3119C50.9496 51.7253 50.4092 52.3275 50.0711 53.0442C50.0166 53.1637 49.9674 53.285 49.9235 53.4062C49.4028 53.1036 48.8216 52.9199 48.2216 52.8683C47.6216 52.8166 47.0175 52.8983 46.4528 53.1075C45.5198 53.448 44.7473 54.124 44.286 55.0035C43.7343 54.5289 43.0655 54.2108 42.3491 54.0822C41.6327 53.9536 40.895 54.0194 40.2126 54.2725C39.5379 54.5167 38.9407 54.9367 38.4828 55.4891C38.025 56.0415 37.723 56.7062 37.6083 57.4145C36.8836 57.1259 36.0911 57.0521 35.3255 57.2016C34.56 57.3512 33.8536 57.7179 33.2907 58.2579C32.7279 58.798 32.3323 59.4886 32.1512 60.2473C31.9702 61.006 32.0113 61.8008 32.2696 62.5368L32.962 64.4364L30.9657 65.7385C30.6521 65.9435 30.3732 66.1974 30.1398 66.4906L27.2262 70.1579L13.2521 56.1809L28.8113 38.7438L30.1363 44.7184C30.3368 45.6294 30.8425 46.4446 31.5695 47.0291C32.2965 47.6135 33.2013 47.9322 34.1341 47.9324C34.6008 47.9309 35.0642 47.8544 35.5066 47.7057C36.4557 47.388 37.2564 46.7353 37.7587 45.8697C38.2611 45.0041 38.4306 43.985 38.2357 43.0034L37.2217 37.9302C38.5344 37.3837 41.079 35.9762 42.3179 32.952L59.3777 28.8207C59.9209 28.6851 60.4958 28.7708 60.9758 29.059C61.4558 29.3472 61.8016 29.8143 61.9372 30.3574C62.0729 30.9006 61.9871 31.4754 61.6989 31.9554C61.4107 32.4354 60.9437 32.7812 60.4005 32.9169L54.4784 34.4439C54.2625 34.5003 54.0745 34.6333 53.9495 34.8181C53.8245 35.0029 53.771 35.2269 53.7989 35.4483C53.8269 35.6696 53.9345 35.8732 54.1015 36.0211C54.2686 36.169 54.4837 36.2511 54.7068 36.2521C54.7834 36.2524 54.8596 36.2424 54.9335 36.2222L58.0422 35.4262C58.1292 35.4299 58.2163 35.4204 58.3005 35.3981L59.9084 34.9711C60.1877 34.8969 60.4792 34.8804 60.765 34.9227C61.0508 34.965 61.325 35.0652 61.5708 35.2171C61.9301 35.4417 62.216 35.7662 62.3939 36.1507C62.5717 36.5353 62.6336 36.9633 62.5721 37.3825C62.5106 37.8017 62.3283 38.1939 62.0475 38.5112C61.7667 38.8285 61.3996 39.0571 60.9909 39.1691L59.6132 39.5205H59.6044L58.4059 39.8245L56.972 40.1883C56.7448 40.2561 56.5526 40.4091 56.4355 40.6154C56.3185 40.8216 56.2857 41.0651 56.3441 41.2949C56.4024 41.5247 56.5473 41.7232 56.7484 41.8487C56.9496 41.9742 57.1915 42.0171 57.4236 41.9684L60.0596 41.2971C60.3624 41.2191 60.6779 41.2029 60.9871 41.2497C61.2963 41.2966 61.5929 41.4053 61.859 41.5695C62.2548 41.8176 62.5689 42.1765 62.7622 42.6017C62.9556 43.0268 63.0198 43.4995 62.9468 43.9608C62.8738 44.4221 62.6668 44.8518 62.3515 45.1965C62.0363 45.5411 61.6267 45.7855 61.1737 45.8993H61.1772ZM62.9134 28.3656C62.4475 27.7919 61.8281 27.3625 61.1274 27.1276C60.4266 26.8927 59.6735 26.8619 58.956 27.0389L42.8907 30.9294C42.8995 30.875 42.9101 30.8222 42.9171 30.7678C42.935 30.6486 42.9292 30.527 42.9001 30.4101C42.871 30.2931 42.8192 30.183 42.7476 30.0861C42.6759 29.9892 42.5859 29.9073 42.4826 29.8452C42.3793 29.783 42.2648 29.7418 42.1457 29.724C42.0265 29.7061 41.9049 29.7118 41.7879 29.7409C41.671 29.77 41.5609 29.8219 41.464 29.8935C41.367 29.9651 41.2852 30.0552 41.223 30.1584C41.1609 30.2617 41.1197 30.3762 41.1018 30.4954C40.3989 35.1644 36.1076 36.3997 35.9283 36.4489C35.7028 36.5095 35.5089 36.6537 35.3858 36.8521C35.2628 37.0505 35.2199 37.2884 35.2658 37.5173L36.4362 43.3671C36.544 43.9207 36.4431 44.4947 36.1531 44.9784C35.863 45.4621 35.4043 45.8214 34.8652 45.9872C34.5634 46.088 34.2438 46.1243 33.9272 46.0937C33.6105 46.0632 33.3038 45.9664 33.0269 45.8096C32.75 45.6529 32.5092 45.4397 32.32 45.1839C32.1308 44.9281 31.9975 44.6354 31.9287 44.3248L29.9271 35.2979C29.6427 33.9558 29.7965 32.5578 30.3659 31.3096C30.9353 30.0614 31.8903 29.0289 33.0903 28.3639L43.8344 22.3506C44.2159 22.1381 44.5665 21.8744 44.8765 21.5669L55.0372 12.1007L67.1098 24.1729L62.9134 28.3656Z" fill="#1573CA"/>
</svg>
