<svg width="74" height="82" viewBox="0 0 74 82" fill="none" xmlns="http://www.w3.org/2000/svg">
<path d="M45.962 25H27.038C24.8124 25 23 26.8434 23 29.1069V42.9729C23 45.2364 24.8124 47.0798 27.038 47.0798H29.8766L34.9541 51.6069C35.2473 51.8645 35.6204 52 35.9936 52C36.1802 52 36.3667 51.9729 36.54 51.9051C37.0864 51.7018 37.4729 51.2139 37.5528 50.6175L38.0592 47.0798H45.962C48.1876 47.0798 50 45.2364 50 42.9729V29.1069C50 26.8434 48.1876 25 45.962 25ZM47.8144 42.9729C47.8144 44.003 46.9882 44.8569 45.962 44.8569H37.5262C36.7399 44.8569 36.0735 45.4533 35.9536 46.2395L35.5405 49.1807L31.1293 45.25C30.8361 44.9925 30.463 44.8569 30.0898 44.8569H27.0247C26.0118 44.8569 25.1856 44.0166 25.1856 42.9729V29.1069C25.1856 28.0768 26.0118 27.2229 27.0247 27.2229H45.962C46.9748 27.2229 47.8144 28.0633 47.8144 29.1069V42.9729Z" fill="#1573CA"/>
<path d="M43.9075 33H29.0925C28.4929 33 28 33.4512 28 34C28 34.5488 28.4929 35 29.0925 35H43.9075C44.5071 35 45 34.5488 45 34C45 33.439 44.5071 33 43.9075 33Z" fill="#1573CA"/>
<path d="M40.8497 38H29.1503C28.519 38 28 38.6768 28 39.5C28 40.3232 28.519 41 29.1503 41H40.8497C41.481 41 42 40.3232 42 39.5C42 38.6768 41.481 38 40.8497 38Z" fill="#1573CA"/>
<path d="M71.6347 44.0687V38.8608C71.6347 31.6026 69.4586 24.6724 65.3633 18.7538C66.769 16.9358 66.7149 14.3114 65.1335 12.5618C57.8754 4.5791 47.5627 0 36.8581 0C26.1399 0 15.8407 4.5791 8.58265 12.5618C7.73114 13.5049 7.28511 14.7351 7.33918 16.0063C7.37973 17.0178 7.74466 17.961 8.35288 18.7538C4.25753 24.6724 2.08146 31.5889 2.08146 38.8608V44.137C0.837991 44.9298 0 46.3241 0 47.9233V59.7196C0 62.1937 1.98685 64.203 4.43324 64.203H6.10922C6.5958 67.2785 8.73132 69.8073 11.5697 70.8325V74.031C11.5697 76.9425 13.9079 79.3072 16.7868 79.3072H34.9523C35.3443 80.8518 36.7094 82 38.3584 82H42.1699C44.1162 82 45.684 80.4007 45.684 78.4461V78.1864C45.684 76.218 44.1026 74.6324 42.1699 74.6324H38.3584C36.804 74.6324 35.5065 75.6576 35.0334 77.0792H16.7598C15.1109 77.0792 13.7593 75.726 13.7593 74.0447V71.3109C13.9485 71.3246 14.1512 71.3382 14.3405 71.3382C16.6111 71.3382 18.4628 69.4656 18.4628 67.1692V40.5011C18.4628 38.2047 16.6111 36.3321 14.3405 36.3321C10.1775 36.3321 6.71744 39.4212 6.08219 43.4536H4.41973C4.37918 43.4536 4.33863 43.4672 4.28457 43.4672V38.8745C4.28457 32.122 6.29845 25.6839 10.0829 20.1617C11.9076 21.0092 14.1242 20.6401 15.5569 19.0818C21.0309 13.0675 28.789 9.62294 36.8581 9.62294C44.9271 9.62294 52.6853 13.0675 58.1593 19.0818C59.0513 20.066 60.3218 20.6264 61.6464 20.6264C62.3357 20.6264 63.0115 20.4624 63.6332 20.1617C67.4177 25.6839 69.4316 32.122 69.4316 38.8745V43.4672C69.4181 43.4672 69.4181 43.4672 69.4046 43.4672H67.8773C67.242 39.4349 63.7819 36.3457 59.619 36.3457C57.3483 36.3457 55.4966 38.2184 55.4966 40.5148V67.1829C55.4966 69.4792 57.3483 71.3519 59.619 71.3519C63.7819 71.3519 67.242 68.2627 67.8773 64.2304H69.4046C71.9321 64.2304 74 62.1527 74 59.5829V48.101C73.973 46.3651 73.0268 44.8751 71.6347 44.0687ZM37.0608 78.1864C37.0608 77.4619 37.642 76.8741 38.3584 76.8741H42.1699C42.8862 76.8741 43.4674 77.4619 43.4674 78.1864V78.4461C43.4674 79.1705 42.8862 79.7583 42.1699 79.7583H38.3584C37.642 79.7583 37.0608 79.1705 37.0608 78.4461V78.1864ZM14.354 38.5738C15.4082 38.5738 16.2597 39.4349 16.2597 40.5011V67.1692C16.2597 68.2354 15.4082 69.0965 14.354 69.0965C10.9615 69.0965 8.2042 66.3081 8.2042 62.8771V47.937V44.7521C8.21772 41.3486 10.9615 38.5738 14.354 38.5738ZM5.97406 45.6953V61.9613H4.41973C3.20329 61.9613 2.20311 60.9498 2.20311 59.7196V47.9233C2.20311 46.6931 3.20329 45.6816 4.41973 45.6816H5.97406V45.6953ZM59.7812 17.5509C53.8882 11.0718 45.5353 7.36756 36.8446 7.36756C28.1538 7.36756 19.8144 11.0718 13.9215 17.5509C13.0024 18.5624 11.4616 18.6444 10.4343 17.7696C10.4208 17.7696 10.4208 17.756 10.4208 17.756C10.4073 17.756 10.4073 17.756 10.3938 17.7423C10.3803 17.7286 10.3668 17.7286 10.3532 17.715C9.85315 17.2502 9.56931 16.6214 9.54228 15.938C9.51525 15.2545 9.74502 14.6121 10.2046 14.1064C17.0437 6.58843 26.7616 2.26904 36.8446 2.26904C46.941 2.26904 56.6455 6.58843 63.4846 14.1064C64.4307 15.1452 64.3631 16.7581 63.3359 17.715C63.3224 17.7286 63.3089 17.7286 63.2953 17.7423C63.2953 17.7423 63.2818 17.7423 63.2818 17.756L63.2683 17.7696C62.2681 18.6171 60.6732 18.5214 59.7812 17.5509ZM59.6055 69.0965C58.5512 69.0965 57.6997 68.2354 57.6997 67.1692V40.5011C57.6997 39.4349 58.5512 38.5738 59.6055 38.5738C62.998 38.5738 65.7552 41.3622 65.7552 44.7931V62.8908C65.7552 66.3217 62.998 69.0965 59.6055 69.0965ZM71.7563 59.5693C71.7563 60.8952 70.6886 61.9613 69.3911 61.9613H67.9854V45.6953H69.3911C70.7021 45.6953 71.7563 46.7751 71.7563 48.0873V59.5693Z" fill="#1573CA"/>
</svg>
