<svg width="96" height="77" viewBox="0 0 96 77" fill="none" xmlns="http://www.w3.org/2000/svg">
<path d="M10.8936 44.9234H20.2171V11.4605H10.8936V44.9234ZM12.8113 13.3862H18.2993V42.9977H12.8113V13.3862ZM23.3196 44.9234H32.6432V27.2291H23.3196V44.9234ZM25.2374 29.1548H30.7254V42.9977H25.2374V29.1548ZM35.6451 44.9234H44.9676V20.3238H35.6451V44.9234ZM37.5629 22.2495H43.0498V42.9988H37.5629V22.2495ZM76.8445 26.6574C74.1808 23.8033 70.4159 22.1656 66.5182 22.1656C62.9127 22.1656 59.4774 23.5293 56.8468 26.0062C54.0889 28.6014 52.5029 32.1185 52.3809 35.9118C52.2578 39.7052 53.6137 43.319 56.1983 46.0872C58.862 48.9413 62.627 50.579 66.5246 50.579C70.1301 50.579 73.5655 49.2153 76.196 46.7384C81.8884 41.3804 82.1795 32.3721 76.8445 26.6574ZM74.885 45.3328C72.6098 47.4734 69.64 48.6533 66.5246 48.6533C63.1053 48.6533 59.9343 47.2746 57.597 44.7708C55.3624 42.3766 54.1906 39.2538 54.2965 35.9752C54.4025 32.6967 55.7745 29.6545 58.1567 27.4118C60.432 25.2712 63.4018 24.0913 66.5171 24.0913C69.9364 24.0913 73.1074 25.47 75.4447 27.9738C77.6793 30.368 78.8512 33.4908 78.7452 36.7694C78.6403 40.048 77.2683 43.0891 74.885 45.3328ZM94.7607 60.1042C94.673 60.0107 94.5702 59.914 94.4761 59.8269C94.4632 59.8119 94.4493 59.7968 94.4343 59.7829L88.7451 54.2304V4.59066C88.7451 2.06 86.6936 0 84.1733 0H4.57082C2.0505 0 0 2.05892 0 4.59066V56.9148C0 59.4454 2.0505 61.5054 4.57082 61.5054H34.5214L34.5235 64.5519C34.1072 69.3081 31.0625 70.1828 26.4542 71.5067L24.7516 72.0031C23.5957 72.3395 21.6587 72.9047 21.4147 74.464C21.3226 75.0561 21.2081 75.7922 21.6983 76.3692C22.1938 76.9516 23.0168 77 23.7488 77H62.8924C63.6244 77 64.4474 76.9516 64.9429 76.3692C65.433 75.7922 65.3185 75.0561 65.2254 74.465C64.9814 72.9058 63.0454 72.3406 61.8885 72.0031L60.1944 71.5088C55.6685 70.2086 52.6784 69.3489 52.1604 64.986V61.5054H83.9453L87.7541 66.0574C87.7916 66.1015 87.8323 66.1423 87.8751 66.1778L88.0741 66.4002C88.9378 67.3254 90.1567 67.8552 91.4185 67.8552C92.5861 67.8552 93.6991 67.4136 94.552 66.6108C96.3981 64.8764 96.4912 61.9578 94.7607 60.1042ZM59.6689 73.3604L61.3556 73.8525C62.963 74.321 63.284 74.6262 63.3322 74.7638C63.3408 74.8207 63.359 74.9411 63.3729 75.0561C63.2637 75.0668 63.1096 75.0743 62.8924 75.0743H23.7498C23.5326 75.0743 23.3774 75.0668 23.2683 75.0561C23.2822 74.9411 23.3004 74.8229 23.3089 74.767C23.3571 74.6262 23.6771 74.321 25.2867 73.8514L26.9818 73.3582C31.5687 72.0407 35.9019 70.7964 36.437 64.6368V61.5054H50.2447L50.2501 65.0989C50.9254 70.848 54.9772 72.0117 59.6689 73.3604ZM4.57082 59.5798C3.10679 59.5798 1.91673 58.3848 1.91673 56.9148V4.59066C1.91673 3.12062 3.10679 1.92567 4.57082 1.92567H84.1722C85.6362 1.92567 86.8263 3.12062 86.8263 4.59066V52.3585L82.9661 48.592V45.4188C85.9872 39.8395 85.9626 33.1856 82.9661 27.6815V7.67582C82.9661 6.01235 81.6176 4.65836 79.9599 4.65836H8.26514C6.60848 4.65836 5.26003 6.01235 5.26003 7.67582V49.2733H52.9706C52.9952 49.3002 53.0155 49.3292 53.0401 49.3561C56.5354 53.1 61.4722 55.247 66.5856 55.247C70.0713 55.247 73.437 54.2852 76.3747 52.4563L82.3357 59.5798H4.57082ZM47.8507 13.7623V44.9234H49.9772C50.3924 45.7605 50.8858 46.5664 51.4359 47.3477H7.17889V7.67582C7.17889 7.07405 7.6669 6.58403 8.26621 6.58403H79.962C80.5624 6.58403 81.0504 7.07405 81.0504 7.67582V24.8306C80.7711 24.4868 80.4886 24.144 80.1814 23.8151C76.6797 20.0627 71.7322 17.9102 66.6092 17.9102C63.2498 17.9102 60.0125 18.8269 57.1754 20.5108V13.7634L47.8507 13.7623ZM55.2554 15.688V21.7949C54.7856 22.1592 54.3297 22.5471 53.892 22.9598C52.108 24.6383 50.7413 26.594 49.7685 28.6949V15.688H55.2554ZM93.2421 65.2074C92.1997 66.1853 90.4468 66.1283 89.4729 65.0817L89.3562 64.9506C89.2888 64.8345 89.1968 64.7346 89.0898 64.6562L84.8828 59.6281V59.5798H84.8421L77.2983 50.565C76.9815 50.1867 76.4293 50.1104 76.0226 50.3909C73.239 52.308 69.976 53.3213 66.5878 53.3213C61.9345 53.3213 57.6206 51.4451 54.441 48.0386C48.1514 41.2988 48.4939 30.6796 55.2051 24.3632C58.3087 21.4424 62.3583 19.8338 66.6092 19.8338C71.272 19.8338 75.5956 21.7143 78.7827 25.1294C84.4504 31.2019 84.8453 40.3607 79.7234 46.906C79.4194 47.2929 79.458 47.8484 79.809 48.1912L93.0987 61.1616C93.1212 61.1874 93.1447 61.211 93.1693 61.2325C93.2186 61.2776 93.2999 61.3518 93.3663 61.4216C94.369 62.5005 94.3145 64.1973 93.2421 65.2074Z" fill="#1573CA"/>
</svg>
