<svg width="84" height="84" viewBox="0 0 84 84" fill="none" xmlns="http://www.w3.org/2000/svg">
<path d="M42 0C18.8289 0 -7.68598e-05 18.829 2.35308e-10 42C-7.68598e-05 65.1714 18.8289 84 42 84C65.1711 84 84.0001 65.1714 84 42C84.0001 18.829 65.1711 0 42 0ZM42 4.2C62.9011 4.2 79.8001 21.0991 79.8 42C79.8001 62.9013 62.9011 79.8 42 79.8C21.0989 79.8 4.19993 62.9013 4.2 42C4.19993 21.0991 21.0989 4.2 42 4.2Z" fill="#1573CA"/>
<path d="M46.1988 58.8035C46.1988 59.9174 45.7563 60.9859 44.9687 61.7736C44.181 62.5612 43.1127 63.0035 41.9988 63.0035C40.8849 63.0035 39.8166 62.5612 39.029 61.7736C38.2413 60.9859 37.7988 59.9174 37.7988 58.8035C37.7988 57.6896 38.2413 56.6216 39.029 55.834C39.8166 55.0463 40.8849 54.6035 41.9988 54.6035C43.1127 54.6035 44.181 55.0463 44.9687 55.834C45.7563 56.6216 46.1988 57.6896 46.1988 58.8035Z" fill="#1573CA"/>
<path fill-rule="evenodd" clip-rule="evenodd" d="M44.1006 18.8999C37.2173 18.8999 33.1637 22.0207 31.2709 25.1753C29.3781 28.3299 29.4006 31.4999 29.4006 31.4999C29.3967 31.7782 29.4481 32.0543 29.5518 32.3125C29.6556 32.5708 29.8097 32.806 30.0051 33.0041C30.2005 33.2023 30.4333 33.3597 30.69 33.4671C30.9468 33.5745 31.2223 33.6296 31.5006 33.6296C31.7789 33.6296 32.0544 33.5745 32.3112 33.4671C32.5679 33.3597 32.8007 33.2023 32.9961 33.0041C33.1915 32.806 33.3456 32.5708 33.4494 32.3125C33.5531 32.0543 33.6045 31.7782 33.6006 31.4999C33.6006 31.4999 33.6229 29.4281 34.8803 27.3327C36.1375 25.2373 38.3839 23.0999 44.1006 23.0999C49.7006 23.0999 52.3261 25.6723 53.1076 28.4073C53.8891 31.1424 52.8515 34.2284 49.4654 35.9214C44.8898 38.2091 42.4099 41.2138 41.1721 43.6897C39.9343 46.1652 39.9006 48.2999 39.9006 48.2999C39.8967 48.5782 39.9481 48.8543 40.0518 49.1125C40.1556 49.3708 40.3097 49.606 40.5051 49.8041C40.7005 50.0023 40.9333 50.1597 41.19 50.2671C41.4468 50.3745 41.7223 50.4296 42.0006 50.4296C42.2789 50.4296 42.5544 50.3745 42.8112 50.2671C43.0679 50.1597 43.3007 50.0023 43.4961 49.8041C43.6915 49.606 43.8456 49.3708 43.9494 49.1125C44.0531 48.8543 44.1045 48.5782 44.1006 48.2999C44.1006 48.2999 44.067 47.2928 44.9291 45.5683C45.7913 43.8442 47.5114 41.5907 51.3358 39.6784C56.3497 37.1714 58.4621 31.8656 57.1436 27.2507C55.8251 22.6361 51.1006 18.8999 44.1006 18.8999Z" fill="#1573CA"/>
</svg>
