<svg width="111" height="39" viewBox="0 0 111 39" fill="none" xmlns="http://www.w3.org/2000/svg">
<path d="M9.45778 34.3417H9.31227C5.77648 34.3417 2.91016 31.4754 2.91016 27.9396V22.1523C2.91016 20.4543 3.58466 18.8259 4.78529 17.6253L10.8401 11.5705L14.805 7.60557V7.60557C16.9948 5.41579 20.5451 5.41579 22.7349 7.60557V7.60557L32.7546 17.6253C33.9552 18.8259 34.6297 20.4543 34.6297 22.1523V27.9396C34.6297 31.4754 31.7634 34.3417 28.2276 34.3417H27.7351" stroke="#1573CA" stroke-width="5.5291" stroke-linecap="round"/>
<path d="M26.0889 21.364C26.2721 21.2503 26.3292 21.009 26.2077 20.8308C25.4277 19.6875 24.394 18.7374 23.1853 18.056C21.863 17.3106 20.3741 16.9109 18.8563 16.894C17.3385 16.877 15.841 17.2432 14.5023 17.9588C13.2787 18.613 12.224 19.5397 11.4186 20.6654C11.2931 20.8407 11.3448 21.0832 11.5255 21.201C11.7061 21.3188 11.9473 21.2672 12.0735 21.0923C12.8066 20.0765 13.7628 19.2398 14.8705 18.6476C16.0933 17.9939 17.4612 17.6594 18.8475 17.6749C20.2339 17.6904 21.594 18.0555 22.8018 18.7363C23.896 19.3532 24.8332 20.2111 25.5434 21.2431C25.6657 21.4207 25.9056 21.4777 26.0889 21.364Z" fill="#1573CA"/>
<path d="M24.2076 22.4177C24.34 22.3356 24.3812 22.1614 24.2934 22.0327C23.7301 21.2069 22.9836 20.5207 22.1106 20.0286C21.1556 19.4903 20.0803 19.2017 18.9841 19.1894C17.8879 19.1771 16.8064 19.4417 15.8396 19.9585C14.9558 20.4309 14.1941 21.1002 13.6125 21.9132C13.5218 22.0399 13.5591 22.215 13.6896 22.3001C13.8201 22.3851 13.9943 22.3479 14.0854 22.2216C14.6149 21.4879 15.3054 20.8836 16.1055 20.4559C16.9886 19.9838 17.9765 19.7422 18.9778 19.7534C19.9791 19.7646 20.9613 20.0283 21.8336 20.52C22.6239 20.9655 23.3008 21.5851 23.8137 22.3304C23.902 22.4587 24.0753 22.4999 24.2076 22.4177Z" fill="#1573CA"/>
<path d="M22.0393 23.1575C22.1207 23.107 22.1461 22.9998 22.0921 22.9206C21.7454 22.4124 21.286 21.9902 20.7488 21.6873C20.1611 21.356 19.4994 21.1784 18.8248 21.1709C18.1502 21.1633 17.4847 21.3261 16.8897 21.6441C16.3459 21.9349 15.8771 22.3468 15.5192 22.847C15.4634 22.925 15.4864 23.0328 15.5667 23.0851C15.6469 23.1375 15.7541 23.1145 15.8102 23.0368C16.136 22.5853 16.561 22.2134 17.0534 21.9503C17.5968 21.6597 18.2047 21.511 18.8209 21.5179C19.4371 21.5248 20.0416 21.6871 20.5784 21.9897C21.0647 22.2638 21.4812 22.6452 21.7969 23.1038C21.8512 23.1828 21.9578 23.2081 22.0393 23.1575Z" fill="#1573CA"/>
<rect x="16.0058" y="26.0478" width="5.82011" height="10.4762" rx="1.16402" stroke="#1573CA" stroke-width="1.74603"/>
<path d="M56.7095 5.68221C56.9047 6.33483 56.3538 6.92472 55.6726 6.92472H54.3122C53.8601 6.92472 53.5061 6.56474 53.3185 6.15341C53.2172 5.92262 53.0755 5.72422 52.8933 5.55822C52.7152 5.38816 52.4986 5.2586 52.2435 5.16952C51.9884 5.0764 51.6989 5.02984 51.375 5.02984C50.8081 5.02984 50.3284 5.1675 49.9356 5.44283C49.5469 5.71815 49.2513 6.11292 49.0489 6.62713C48.8505 7.14134 48.7513 7.7588 48.7513 8.4795C48.7513 9.2407 48.8525 9.8784 49.055 10.3926C49.2615 10.9028 49.5591 11.2874 49.9478 11.5465C50.3365 11.8016 50.8041 11.9292 51.3507 11.9292C51.6625 11.9292 51.9418 11.8907 52.1888 11.8138C52.4358 11.7328 52.6504 11.6174 52.8326 11.4676C53.0148 11.3178 53.1626 11.1376 53.276 10.9271C53.4866 10.5421 53.8385 10.2066 54.2773 10.2098L55.6901 10.2198C56.3649 10.2246 56.8985 10.8096 56.6618 11.4415C56.6124 11.5731 56.5568 11.7053 56.4948 11.8381C56.2398 12.3806 55.8774 12.8827 55.4077 13.3443C54.9421 13.8018 54.3651 14.1702 53.6768 14.4496C52.9885 14.729 52.1888 14.8687 51.2778 14.8687C50.136 14.8687 49.1117 14.6237 48.2047 14.1338C47.3018 13.6439 46.5872 12.9232 46.0608 11.9717C45.5385 11.0202 45.2773 9.85613 45.2773 8.4795C45.2773 7.09478 45.5446 5.92869 46.079 4.98125C46.6135 4.02976 47.3342 3.31108 48.2411 2.82521C49.1481 2.33529 50.1603 2.09033 51.2778 2.09033C52.0633 2.09033 52.786 2.19763 53.446 2.41222C54.106 2.62681 54.685 2.9406 55.183 3.35359C55.681 3.76253 56.0818 4.26662 56.3855 4.86586C56.5153 5.12206 56.6233 5.39418 56.7095 5.68221Z" fill="#161616"/>
<path d="M58.4702 3.42441C58.4702 2.78154 58.9913 2.26039 59.6342 2.26039H61.8924C62.3646 2.26039 62.79 2.54566 62.9693 2.98251L65.5362 9.23805C65.5529 9.27884 65.5927 9.30548 65.6368 9.30548C65.6808 9.30548 65.7206 9.27884 65.7373 9.23805L68.3042 2.98251C68.4835 2.54566 68.9089 2.26039 69.3811 2.26039H71.6393C72.2822 2.26039 72.8033 2.78154 72.8033 3.42441V13.5346C72.8033 14.1775 72.2822 14.6986 71.6393 14.6986H70.6634C70.0206 14.6986 69.4994 14.1775 69.4994 13.5346V7.5655C69.4994 7.53362 69.4736 7.50777 69.4417 7.50777C69.4179 7.50777 69.3965 7.52235 69.3879 7.5445L66.922 13.8608C66.7476 14.3074 66.3171 14.6014 65.8376 14.6014H65.4378C64.9574 14.6014 64.5263 14.3062 64.3525 13.8583L61.8856 7.49601C61.8769 7.47381 61.8556 7.45918 61.8318 7.45918C61.7999 7.45918 61.7741 7.485 61.7741 7.51686V13.5346C61.7741 14.1775 61.2529 14.6986 60.6101 14.6986H59.6342C58.9913 14.6986 58.4702 14.1775 58.4702 13.5346V3.42441Z" fill="#161616"/>
<path d="M77.8845 13.871C77.7362 14.3624 77.2835 14.6986 76.7702 14.6986H75.6007C74.8076 14.6986 74.2467 13.9229 74.4953 13.1697L77.8325 3.05955C77.9899 2.58258 78.4355 2.26039 78.9378 2.26039L81.8704 2.26039C82.3727 2.26039 82.8183 2.58258 82.9758 3.05955L86.3129 13.1697C86.5615 13.9229 86.0007 14.6986 85.2076 14.6986H84.0381C83.5248 14.6986 83.0721 14.3624 82.9237 13.871L80.4668 5.73227C80.4584 5.70466 80.433 5.68576 80.4041 5.68576C80.3753 5.68576 80.3498 5.70466 80.3415 5.73227L77.8845 13.871ZM76.9545 10.9554C76.9545 10.3125 77.4756 9.79135 78.1185 9.79135H82.6412C83.2841 9.79135 83.8052 10.3125 83.8052 10.9554V11.1538C83.8052 11.7967 83.2841 12.3179 82.6412 12.3179H78.1185C77.4756 12.3179 76.9545 11.7967 76.9545 11.1538V10.9554Z" fill="#161616"/>
<path d="M89.1796 14.6986C88.5367 14.6986 88.0156 14.1775 88.0156 13.5346V3.42441C88.0156 2.78154 88.5367 2.26039 89.1796 2.26039H93.3844C94.3076 2.26039 95.1153 2.44259 95.8077 2.80699C96.5 3.17139 97.0385 3.68358 97.4232 4.34355C97.8078 5.00352 98.0002 5.77484 98.0002 6.6575C98.0002 7.54826 97.8018 8.31957 97.405 8.97145C97.0122 9.62332 96.4595 10.1254 95.7469 10.4776C95.0384 10.8299 94.2104 11.006 93.2629 11.006H91.2202C90.5774 11.006 90.0562 10.4849 90.0562 9.842V9.54635C90.0562 8.90348 90.5774 8.38233 91.2202 8.38233H92.5827C92.9795 8.38233 93.3176 8.3135 93.597 8.17584C93.8804 8.03412 94.097 7.8337 94.2468 7.57457C94.4007 7.31544 94.4776 7.00975 94.4776 6.6575C94.4776 6.30119 94.4007 5.99752 94.2468 5.74649C94.097 5.49141 93.8804 5.29706 93.597 5.16345C93.3176 5.02579 92.9795 4.95696 92.5827 4.95696H92.5564C91.9135 4.95696 91.3923 5.47811 91.3923 6.12098V13.5346C91.3923 14.1775 90.8712 14.6986 90.2283 14.6986H89.1796Z" fill="#161616"/>
<path d="M100.063 4.98125C99.4202 4.98125 98.899 4.4601 98.899 3.81723V3.42441C98.899 2.78154 99.4202 2.26039 100.063 2.26039L108.546 2.26039C109.188 2.26039 109.71 2.78154 109.71 3.42441V3.81723C109.71 4.4601 109.188 4.98125 108.546 4.98125H107.132C106.49 4.98125 105.968 5.5024 105.968 6.14527V13.5346C105.968 14.1775 105.447 14.6986 104.804 14.6986H103.804C103.161 14.6986 102.64 14.1775 102.64 13.5346V6.14527C102.64 5.5024 102.119 4.98125 101.476 4.98125H100.063Z" fill="#161616"/>
<path d="M56.687 16.833C57.3299 16.833 57.851 17.3542 57.851 17.997V19.4672C57.851 20.11 57.3299 20.6312 56.687 20.6312H51.5204C50.8775 20.6312 50.3564 21.1523 50.3564 21.7952V33.0321C50.3564 33.675 49.8352 34.1961 49.1924 34.1961H46.8066C46.1637 34.1961 45.6426 33.675 45.6426 33.0321V17.997C45.6426 17.3542 46.1637 16.833 46.8066 16.833H56.687Z" fill="#161616"/>
<path d="M60.7721 34.1961C60.1293 34.1961 59.6081 33.675 59.6081 33.0321V17.997C59.6081 17.3542 60.1293 16.833 60.7721 16.833H67.1028C68.3914 16.833 69.519 17.0874 70.4855 17.596C71.452 18.1047 72.2037 18.8197 72.7407 19.741C73.2776 20.6623 73.5461 21.739 73.5461 22.9711C73.5461 24.2146 73.2692 25.2913 72.7153 26.2013C72.167 27.1113 71.3955 27.8121 70.4007 28.3039C69.4116 28.7956 68.2558 29.0415 66.9332 29.0415H63.6208C62.9779 29.0415 62.4568 28.5203 62.4568 27.8774V26.5429C62.4568 25.9001 62.9779 25.3789 63.6208 25.3789H65.9836C66.5375 25.3789 67.0095 25.2828 67.3995 25.0907C67.7951 24.8928 68.0975 24.6131 68.3066 24.2513C68.5214 23.8896 68.6288 23.4629 68.6288 22.9711C68.6288 22.4738 68.5214 22.0499 68.3066 21.6994C68.0975 21.3434 67.7951 21.0721 67.3995 20.8855C67.0095 20.6934 66.5375 20.5973 65.9836 20.5973H65.486C64.8431 20.5973 64.3219 21.1184 64.3219 21.7613V33.0321C64.3219 33.675 63.8008 34.1961 63.1579 34.1961H60.7721Z" fill="#161616"/>
<path d="M77.8676 33.3685C77.7192 33.8599 77.2665 34.1961 76.7532 34.1961H74.1409C73.3478 34.1961 72.7869 33.4204 73.0355 32.6673L77.9983 17.6322C78.1557 17.1552 78.6013 16.833 79.1036 16.833H83.8638C84.3661 16.833 84.8117 17.1552 84.9692 17.6322L89.9319 32.6673C90.1805 33.4204 89.6197 34.1961 88.8266 34.1961H86.2142C85.7009 34.1961 85.2482 33.8599 85.0999 33.3685L81.5711 21.6796C81.5595 21.641 81.524 21.6147 81.4837 21.6147C81.4434 21.6147 81.4079 21.641 81.3963 21.6796L77.8676 33.3685ZM76.6682 28.5099C76.6682 27.867 77.1893 27.3458 77.8322 27.3458H85.0674C85.7103 27.3458 86.2315 27.867 86.2315 28.5099V29.7087C86.2315 30.3516 85.7103 30.8727 85.0674 30.8727H77.8322C77.1893 30.8727 76.6682 30.3516 76.6682 29.7087V28.5099Z" fill="#161616"/>
<path d="M92.6964 38.3674C92.0535 38.3674 91.5324 37.8462 91.5324 37.2033V31.5203C91.5324 30.9941 91.9589 30.5675 92.4851 30.5675C92.6605 30.5675 92.8343 30.5218 92.9759 30.4184C93.2953 30.1851 93.5885 29.8844 93.8554 29.5162C94.1888 29.0641 94.4715 28.4169 94.7032 27.5748C94.9406 26.7326 95.1158 25.605 95.2288 24.192L95.7213 17.9061C95.7687 17.3004 96.2741 16.833 96.8817 16.833H106.918C107.56 16.833 108.082 17.3542 108.082 17.997V29.6519C108.082 30.1576 108.492 30.5675 108.997 30.5675C109.503 30.5675 109.913 30.9775 109.913 31.4832V37.2033C109.913 37.8462 109.392 38.3674 108.749 38.3674H106.533C105.89 38.3674 105.369 37.8462 105.369 37.2033V35.3602C105.369 34.7173 104.847 34.1961 104.205 34.1961H97.2407C96.5978 34.1961 96.0766 34.7173 96.0766 35.3602V37.2033C96.0766 37.8462 95.5555 38.3674 94.9126 38.3674H92.6964ZM98.8405 29.0499C98.5836 29.7463 99.0743 30.5675 99.8165 30.5675H102.373C103.016 30.5675 103.537 30.0464 103.537 29.4035V21.7952C103.537 21.1523 103.016 20.6312 102.373 20.6312H101.123C100.515 20.6312 100.009 21.1 99.9624 21.7068L99.7731 24.192C99.694 25.2546 99.5724 26.1843 99.4085 26.9813C99.2503 27.7726 99.0609 28.4621 98.8405 29.0499Z" fill="#161616"/>
</svg>
