<svg width="137" height="50" viewBox="0 0 137 50" fill="none" xmlns="http://www.w3.org/2000/svg">
<path d="M11.7653 42.53H11.5843C7.18634 42.53 3.62109 38.9647 3.62109 34.5668V27.3683C3.62109 25.2563 4.46007 23.2308 5.95346 21.7374L13.4846 14.2063L18.4164 9.27453V9.27453C21.1401 6.5508 25.5562 6.5508 28.2799 9.27453V9.27453L40.7428 21.7374C42.2362 23.2308 43.0752 25.2563 43.0752 27.3683V34.5668C43.0752 38.9647 39.5099 42.53 35.112 42.53H34.4993" stroke="white" stroke-width="6.87732" stroke-linecap="round"/>
<path d="M32.4518 26.388C32.6797 26.2466 32.7507 25.9465 32.5995 25.7249C31.6294 24.3027 30.3436 23.1209 28.8402 22.2734C27.1955 21.3463 25.3435 20.8491 23.4556 20.828C21.5677 20.8069 19.705 21.2625 18.04 22.1526C16.5179 22.9662 15.2061 24.1189 14.2043 25.519C14.0482 25.7372 14.1125 26.0388 14.3372 26.1853C14.5619 26.3318 14.8619 26.2677 15.0189 26.0501C15.9307 24.7866 17.1201 23.7459 18.4979 23.0093C20.0188 22.1962 21.7203 21.7801 23.4447 21.7994C25.1691 21.8187 26.8608 22.2728 28.3631 23.1196C29.7242 23.8869 30.8899 24.954 31.7733 26.2376C31.9254 26.4586 32.2238 26.5294 32.4518 26.388Z" fill="white"/>
<path d="M30.1143 27.6991C30.2789 27.5969 30.3301 27.3802 30.221 27.2202C29.5203 26.193 28.5917 25.3395 27.5059 24.7274C26.3181 24.0578 24.9805 23.6988 23.617 23.6835C22.2535 23.6683 20.9082 23.9973 19.7057 24.6402C18.6065 25.2278 17.659 26.0603 16.9356 27.0715C16.8228 27.2291 16.8692 27.4469 17.0315 27.5527C17.1938 27.6585 17.4105 27.6122 17.5238 27.4551C18.1824 26.5426 19.0414 25.7909 20.0365 25.2589C21.1349 24.6717 22.3637 24.3711 23.6092 24.3851C24.8546 24.399 26.0764 24.727 27.1614 25.3386C28.1443 25.8927 28.9863 26.6634 29.6242 27.5905C29.7341 27.7501 29.9496 27.8012 30.1143 27.6991Z" fill="white"/>
<path d="M27.4135 28.6191C27.5148 28.5562 27.5463 28.4228 27.4791 28.3243C27.048 27.6923 26.4765 27.167 25.8083 26.7904C25.0773 26.3783 24.2542 26.1573 23.4151 26.148C22.5761 26.1386 21.7482 26.341 21.0082 26.7366C20.3318 27.0983 19.7487 27.6106 19.3035 28.2329C19.2341 28.3298 19.2627 28.4639 19.3625 28.529C19.4624 28.5941 19.5957 28.5656 19.6655 28.4689C20.0708 27.9073 20.5994 27.4448 21.2118 27.1174C21.8877 26.756 22.6439 26.5711 23.4103 26.5797C24.1767 26.5882 24.9286 26.7901 25.5963 27.1665C26.2012 27.5075 26.7193 27.9817 27.1119 28.5522C27.1795 28.6504 27.3122 28.6819 27.4135 28.6191Z" fill="white"/>
<rect x="19.9101" y="32.2133" width="7.23928" height="13.0307" rx="1.44786" stroke="white" stroke-width="2.17178"/>
<path d="M70.5381 6.88276C70.781 7.69452 70.0957 8.42825 69.2484 8.42825H67.5562C66.9939 8.42825 66.5536 7.98048 66.3202 7.46885C66.1943 7.18179 66.0181 6.93502 65.7914 6.72853C65.5698 6.51701 65.3004 6.35586 64.9831 6.24506C64.6658 6.12923 64.3058 6.07131 63.9029 6.07131C63.1978 6.07131 62.601 6.24254 62.1125 6.585C61.629 6.92746 61.2614 7.41849 61.0096 8.05809C60.7628 8.69769 60.6394 9.4657 60.6394 10.3621C60.6394 11.3089 60.7653 12.1021 61.0171 12.7417C61.274 13.3763 61.6441 13.8547 62.1276 14.1771C62.6111 14.4943 63.1928 14.653 63.8726 14.653C64.2604 14.653 64.6079 14.6051 64.9151 14.5094C65.2223 14.4087 65.4893 14.2652 65.7159 14.0789C65.9425 13.8925 66.1263 13.6684 66.2674 13.4065C66.5293 12.9277 66.967 12.5104 67.5128 12.5143L69.2702 12.5268C70.1095 12.5327 70.7732 13.2604 70.4787 14.0463C70.4174 14.21 70.3482 14.3745 70.2711 14.5397C69.9538 15.2145 69.5031 15.839 68.9189 16.4131C68.3397 16.9822 67.6221 17.4405 66.7659 17.788C65.9098 18.1355 64.9151 18.3093 63.782 18.3093C62.3618 18.3093 61.0876 18.0046 59.9595 17.3952C58.8365 16.7858 57.9476 15.8894 57.2929 14.7059C56.6432 13.5224 56.3184 12.0744 56.3184 10.3621C56.3184 8.63977 56.6507 7.18935 57.3155 6.01088C57.9803 4.82737 58.8767 3.93345 60.0049 3.32911C61.133 2.71973 62.392 2.41504 63.782 2.41504C64.759 2.41504 65.658 2.5485 66.4789 2.81542C67.2998 3.08233 68.0199 3.47264 68.6394 3.98633C69.2588 4.49499 69.7574 5.12199 70.1351 5.86735C70.2966 6.18602 70.431 6.5245 70.5381 6.88276Z" fill="white"/>
<path d="M72.7282 4.07442C72.7282 3.27479 73.3764 2.62656 74.176 2.62656L76.9848 2.62656C77.5722 2.62656 78.1013 2.98139 78.3243 3.52477L81.5171 11.3057C81.538 11.3564 81.5874 11.3895 81.6422 11.3895C81.697 11.3895 81.7465 11.3564 81.7673 11.3057L84.9601 3.52477C85.1831 2.98139 85.7122 2.62656 86.2996 2.62656H89.1084C89.908 2.62656 90.5563 3.27479 90.5563 4.07442V16.6499C90.5563 17.4495 89.908 18.0977 89.1084 18.0977H87.8946C87.095 18.0977 86.4467 17.4495 86.4467 16.6499V9.22527C86.4467 9.18561 86.4146 9.15346 86.3749 9.15346C86.3453 9.15346 86.3188 9.1716 86.308 9.19916L83.2408 17.0556C83.0239 17.6111 82.4885 17.9769 81.8921 17.9769H81.3948C80.7971 17.9769 80.2609 17.6097 80.0449 17.0524L76.9763 9.13883C76.9656 9.11122 76.939 9.09303 76.9094 9.09303C76.8698 9.09303 76.8377 9.12515 76.8377 9.16477V16.6499C76.8377 17.4495 76.1895 18.0977 75.3898 18.0977H74.176C73.3764 18.0977 72.7282 17.4495 72.7282 16.6499V4.07442Z" fill="white"/>
<path d="M96.8765 17.0683C96.6919 17.6795 96.1289 18.0977 95.4904 18.0977H94.0357C93.0493 18.0977 92.3516 17.1328 92.6608 16.1961L96.8117 3.62059C97.0075 3.02731 97.5618 2.62656 98.1866 2.62656L101.834 2.62656C102.459 2.62656 103.013 3.02731 103.209 3.62059L107.36 16.1961C107.669 17.1328 106.972 18.0977 105.985 18.0977H104.531C103.892 18.0977 103.329 17.6795 103.144 17.0683L100.088 6.94503C100.078 6.91068 100.046 6.88718 100.01 6.88718C99.9746 6.88718 99.9429 6.91068 99.9325 6.94503L96.8765 17.0683ZM95.7196 13.4417C95.7196 12.6421 96.3678 11.9939 97.1675 11.9939H102.793C103.593 11.9939 104.241 12.6421 104.241 13.4417V13.6886C104.241 14.4882 103.593 15.1365 102.793 15.1365H97.1675C96.3678 15.1365 95.7196 14.4882 95.7196 13.6886V13.4417Z" fill="white"/>
<path d="M110.926 18.0977C110.126 18.0977 109.478 17.4495 109.478 16.6499V4.07442C109.478 3.27479 110.126 2.62656 110.926 2.62656L116.156 2.62656C117.304 2.62656 118.309 2.85319 119.17 3.30645C120.031 3.7597 120.701 4.39678 121.179 5.21768C121.658 6.03858 121.897 6.99797 121.897 8.09586C121.897 9.20382 121.65 10.1632 121.157 10.974C120.668 11.7849 119.981 12.4094 119.094 12.8475C118.213 13.2857 117.183 13.5047 116.005 13.5047H113.464C112.664 13.5047 112.016 12.8565 112.016 12.0569V11.6891C112.016 10.8895 112.664 10.2413 113.464 10.2413H115.159C115.652 10.2413 116.073 10.1557 116.42 9.98443C116.773 9.80816 117.042 9.55887 117.229 9.23656C117.42 8.91424 117.516 8.53401 117.516 8.09586C117.516 7.65268 117.42 7.27496 117.229 6.96272C117.042 6.64544 116.773 6.4037 116.42 6.23751C116.073 6.06628 115.652 5.98066 115.159 5.98066H115.126C114.326 5.98066 113.678 6.62889 113.678 7.42852V16.6499C113.678 17.4495 113.03 18.0977 112.23 18.0977H110.926Z" fill="white"/>
<path d="M124.463 6.01088C123.663 6.01088 123.015 5.36265 123.015 4.56302V4.07441C123.015 3.27479 123.663 2.62656 124.463 2.62656L135.014 2.62656C135.814 2.62656 136.462 3.27479 136.462 4.07442V4.56302C136.462 5.36265 135.814 6.01088 135.014 6.01088H133.256C132.457 6.01088 131.808 6.65911 131.808 7.45873V16.6499C131.808 17.4495 131.16 18.0977 130.36 18.0977H129.116C128.317 18.0977 127.669 17.4495 127.669 16.6499V7.45874C127.669 6.65911 127.02 6.01088 126.221 6.01088H124.463Z" fill="white"/>
<path d="M70.509 20.7524C71.3086 20.7524 71.9568 21.4007 71.9568 22.2003V24.0289C71.9568 24.8285 71.3086 25.4768 70.509 25.4768H64.0826C63.283 25.4768 62.6347 26.125 62.6347 26.9246V40.9016C62.6347 41.7012 61.9865 42.3494 61.1869 42.3494H58.2193C57.4197 42.3494 56.7715 41.7012 56.7715 40.9016V22.2003C56.7715 21.4007 57.4197 20.7524 58.2193 20.7524H70.509Z" fill="white"/>
<path d="M75.5902 42.3494C74.7906 42.3494 74.1424 41.7012 74.1424 40.9016V22.2003C74.1424 21.4007 74.7906 20.7524 75.5902 20.7524H83.4645C85.0674 20.7524 86.4699 21.0688 87.6721 21.7015C88.8743 22.3342 89.8093 23.2236 90.4772 24.3695C91.1451 25.5154 91.479 26.8547 91.479 28.3873C91.479 29.934 91.1345 31.2732 90.4456 32.4051C89.7636 33.537 88.804 34.4087 87.5667 35.0204C86.3364 35.632 84.8987 35.9378 83.2536 35.9378H79.1335C78.3339 35.9378 77.6856 35.2896 77.6856 34.49V32.8301C77.6856 32.0304 78.3339 31.3822 79.1335 31.3822H82.0725C82.7615 31.3822 83.3485 31.2627 83.8336 31.0237C84.3257 30.7776 84.7018 30.4296 84.962 29.9797C85.2291 29.5297 85.3627 28.9989 85.3627 28.3873C85.3627 27.7686 85.2291 27.2414 84.962 26.8055C84.7018 26.3626 84.3257 26.0251 83.8336 25.7931C83.3485 25.5541 82.7615 25.4346 82.0725 25.4346H81.4535C80.6538 25.4346 80.0056 26.0828 80.0056 26.8825V40.9016C80.0056 41.7012 79.3574 42.3494 78.5578 42.3494H75.5902Z" fill="white"/>
<path d="M96.8542 41.32C96.6697 41.9312 96.1066 42.3494 95.4681 42.3494H92.2188C91.2323 42.3494 90.5347 41.3845 90.8439 40.4477L97.0168 21.7465C97.2126 21.1532 97.7669 20.7524 98.3917 20.7524H104.313C104.937 20.7524 105.492 21.1532 105.687 21.7465L111.86 40.4477C112.17 41.3845 111.472 42.3494 110.485 42.3494H107.236C106.598 42.3494 106.035 41.9312 105.85 41.32L101.461 26.7808C101.446 26.7329 101.402 26.7 101.352 26.7C101.302 26.7 101.258 26.7329 101.243 26.7808L96.8542 41.32ZM95.3623 35.2766C95.3623 34.477 96.0106 33.8287 96.8102 33.8287H105.81C106.609 33.8287 107.258 34.477 107.258 35.2766V36.7678C107.258 37.5674 106.609 38.2156 105.81 38.2156H96.8102C96.0106 38.2156 95.3623 37.5674 95.3623 36.7678V35.2766Z" fill="white"/>
<path d="M115.299 47.5377C114.499 47.5377 113.851 46.8895 113.851 46.0899V39.0211C113.851 38.3666 114.382 37.836 115.036 37.836C115.254 37.836 115.47 37.7791 115.647 37.6505C116.044 37.3603 116.408 36.9863 116.74 36.5283C117.155 35.9659 117.507 35.161 117.795 34.1135C118.09 33.0659 118.308 31.6634 118.449 29.9058L119.061 22.0872C119.12 21.3338 119.749 20.7524 120.505 20.7524H132.988C133.787 20.7524 134.436 21.4007 134.436 22.2003V36.6971C134.436 37.3261 134.946 37.836 135.575 37.836C136.204 37.836 136.713 38.3459 136.713 38.9749V46.0899C136.713 46.8895 136.065 47.5377 135.266 47.5377H132.509C131.709 47.5377 131.061 46.8895 131.061 46.0899V43.7973C131.061 42.9976 130.413 42.3494 129.613 42.3494H120.951C120.152 42.3494 119.503 42.9976 119.503 43.7973V46.0899C119.503 46.8895 118.855 47.5377 118.056 47.5377H115.299ZM122.941 35.9484C122.622 36.8145 123.232 37.836 124.155 37.836H127.335C128.135 37.836 128.783 37.1878 128.783 36.3881V26.9246C128.783 26.125 128.135 25.4768 127.335 25.4768H125.78C125.023 25.4768 124.394 26.0599 124.337 26.8146L124.101 29.9058C124.003 31.2275 123.852 32.384 123.648 33.3753C123.451 34.3595 123.215 35.2172 122.941 35.9484Z" fill="white"/>
</svg>
