<svg width="83" height="84" viewBox="0 0 83 84" fill="none" xmlns="http://www.w3.org/2000/svg">
<path d="M48.9479 49.7018C48.9479 47.8586 47.8499 46.6562 46.1856 45.7183L44.2609 47.6454C45.5883 48.267 46.3542 48.9035 46.3542 49.7018C46.3542 50.5631 46.3542 52.0048 41.7669 52.0048C41.2017 52.004 40.6381 51.9442 40.0853 51.8262L37.998 53.9161C39.2023 54.3721 40.4794 54.6045 41.7669 54.6018C46.6075 54.6018 48.9479 53.0045 48.9479 49.7018Z" fill="#161616"/>
<path d="M46.8602 20.0331C46.8637 19.3646 46.7352 18.7019 46.4822 18.0833C46.2291 17.4646 45.8565 16.9021 45.3856 16.4282C44.9147 15.9542 44.3549 15.5781 43.7384 15.3214C43.1218 15.0647 42.4607 14.9326 41.793 14.9326C41.1253 14.9326 40.4642 15.0647 39.8477 15.3214C39.2312 15.5781 38.6714 15.9542 38.2005 16.4282C37.7296 16.9021 37.3569 17.4646 37.1039 18.0833C36.8508 18.7019 36.7224 19.3646 36.7259 20.0331V20.8771C29.5609 22.55 26.9385 27.8954 26.9385 32.6569C26.8629 34.5597 27.2726 36.4504 28.1288 38.1508C28.9851 39.8511 30.2599 41.3051 31.8328 42.3756L33.7019 40.5041C32.3777 39.6802 31.2946 38.5205 30.5623 37.1424C29.8301 35.7643 29.4747 34.2168 29.5323 32.6569C29.5323 27.916 32.5111 23.8146 39.3197 23.0687V20.0331C39.3161 19.7057 39.3775 19.3808 39.5002 19.0772C39.623 18.7737 39.8046 18.4975 40.0346 18.2647C40.2646 18.0319 40.5385 17.8471 40.8403 17.721C41.1421 17.5948 41.466 17.5299 41.793 17.5299C42.1201 17.5299 42.4439 17.5948 42.7457 17.721C43.0476 17.8471 43.3214 18.0319 43.5514 18.2647C43.7815 18.4975 43.9631 18.7737 44.0858 19.0772C44.2085 19.3808 44.2699 19.7057 44.2664 20.0331V23.1223C46.1083 23.3354 47.9068 23.8292 49.5995 24.5866L51.5329 22.6509C50.0589 21.8735 48.4872 21.2981 46.8601 20.9401L46.8602 20.0331Z" fill="#161616"/>
<path d="M36.725 63.0715C36.7215 63.7401 36.8499 64.4027 37.103 65.0214C37.356 65.64 37.7287 66.2025 38.1996 66.6765C38.6705 67.1505 39.2303 67.5266 39.8468 67.7832C40.4633 68.0399 41.1245 68.172 41.7921 68.172C42.4598 68.172 43.121 68.0399 43.7375 67.7832C44.354 67.5266 44.9138 67.1505 45.3847 66.6765C45.8556 66.2025 46.2282 65.64 46.4813 65.0214C46.7344 64.4027 46.8628 63.7401 46.8593 63.0715V62.3201C53.702 60.8916 57.7105 56.3007 57.7105 49.7018C57.7819 47.6837 57.3389 45.6807 56.4233 43.8814C55.5077 42.0821 54.1496 40.5459 52.4771 39.4175L50.631 41.2659C52.0574 42.1487 53.2243 43.3948 54.0124 44.8769C54.8005 46.359 55.1816 48.024 55.1167 49.7018C55.1167 55.5612 51.3935 59.3963 44.2655 60.0887V63.0715C44.269 63.399 44.2077 63.7239 44.0849 64.0274C43.9622 64.331 43.7806 64.6071 43.5506 64.8399C43.3205 65.0727 43.0467 65.2576 42.7449 65.3837C42.443 65.5098 42.1192 65.5748 41.7922 65.5748C41.4651 65.5748 41.1413 65.5098 40.8394 65.3837C40.5376 65.2576 40.2638 65.0727 40.0337 64.8399C39.8037 64.6071 39.6221 64.331 39.4994 64.0274C39.3766 63.7239 39.3153 63.399 39.3188 63.0715V60.0887C37.3183 59.844 35.3758 59.2523 33.5782 58.3401L31.6562 60.2644C33.2462 61.1578 34.952 61.8267 36.725 62.2521L36.725 63.0715Z" fill="#161616"/>
<path d="M35.7012 32.6569C35.7012 34.1983 36.6506 35.24 38.127 36.0721L40.0563 34.1403C39.024 33.665 38.2949 33.1641 38.2949 32.6569C38.2949 31.1624 40.9509 31.0462 41.7649 31.0462C42.1928 31.0495 42.6199 31.0842 43.0427 31.1502L45.2051 28.9851C44.092 28.6333 42.9321 28.4526 41.7649 28.4492C37.3502 28.4492 35.7012 30.5262 35.7012 32.6569Z" fill="#161616"/>
<path d="M59.3241 10.6471C58.5135 10.1932 57.5956 9.96656 56.6671 9.99103C55.9096 10.0102 55.155 10.092 54.411 10.2356C53.9439 10.3281 53.4707 10.3866 52.9951 10.4106C52.9386 10.4114 52.8822 10.4084 52.8261 10.4019C52.4344 10.0652 52.0768 9.69073 51.7585 9.2838C50.7927 8.15037 49.5908 6.73981 47.6851 6.40565C47.4255 6.36041 47.1626 6.33775 46.8992 6.33793C45.4897 6.436 44.1315 6.90646 42.9628 7.70136C42.5024 7.99125 42.0117 8.22975 41.4995 8.4126C40.9872 8.22972 40.4965 7.99121 40.0361 7.70132C38.8674 6.90642 37.5092 6.43595 36.0997 6.33789C35.8363 6.33775 35.5733 6.36042 35.3137 6.40565C33.4081 6.73979 32.2061 8.15037 31.2404 9.2838C30.9217 9.69165 30.5633 10.0667 30.1704 10.4034C30.1487 10.4053 30.0939 10.4106 30.0043 10.4106C29.5287 10.3865 29.0555 10.328 28.5884 10.2355C27.8444 10.0918 27.0897 10.0099 26.3321 9.99076C25.4037 9.9663 24.4859 10.1929 23.6754 10.6468C22.0137 11.6093 21.3707 13.3384 20.854 14.7277C20.6927 15.2268 20.481 15.7082 20.2222 16.1643C19.7267 16.3422 19.2142 16.4687 18.6928 16.5418C17.2397 16.8109 15.4313 17.1458 14.1998 18.6137C12.9709 20.0785 12.9537 21.9174 12.9399 23.3949C12.9584 23.9242 12.922 24.454 12.8314 24.9758C12.4293 25.3076 11.9949 25.598 11.5347 25.8425C10.2547 26.5951 8.66179 27.5316 8.00255 29.3446C7.35237 31.1328 7.96392 32.8598 8.45531 34.2474C8.65583 34.7447 8.8043 35.2614 8.89834 35.7894C8.63667 36.2302 8.33258 36.6444 7.99043 37.0259C7.04187 38.1769 5.86133 39.6091 5.86133 41.5524C5.86133 43.4956 7.04189 44.9279 7.99052 46.0788C8.33488 46.4617 8.63996 46.8783 8.90114 47.3223C8.80478 47.8477 8.65541 48.362 8.45534 48.8572C7.96395 50.2449 7.3524 51.9719 8.00262 53.7601C8.66182 55.573 10.2547 56.5094 11.5347 57.2619C11.998 57.5069 12.4346 57.7997 12.8373 58.1355C12.9239 58.6553 12.9582 59.1824 12.9395 59.7091C12.944 60.1867 12.9531 60.7036 12.9991 61.2319L15.5105 58.7174C15.5153 58.0611 15.3672 57.4127 15.0779 56.8237C14.1576 55.231 11.0769 54.6235 10.4399 52.8716C9.81392 51.1501 11.7783 48.7044 11.4555 46.8588C11.1416 45.064 8.45508 43.4371 8.45508 41.5524C8.45508 39.6676 11.1416 38.0407 11.4555 36.246C11.7783 34.4004 9.81389 31.9546 10.4398 30.2331C11.0769 28.481 14.1578 27.8734 15.0783 26.2804C16.0074 24.6726 14.9997 21.698 16.1859 20.284C17.3756 18.866 20.4771 19.3463 21.8934 18.1552C23.3056 16.9676 23.3686 13.8248 24.9744 12.8946C25.3919 12.6741 25.8604 12.5682 26.3321 12.5878C27.4861 12.5878 28.8421 13.0076 30.0043 13.0076C30.3643 13.0157 30.7229 12.9607 31.064 12.8452C32.7834 12.2184 33.918 9.28688 35.7612 8.96368C35.873 8.94428 35.9863 8.93464 36.0997 8.93487C37.8104 8.93489 39.7345 11.0115 41.4995 11.0115C43.2644 11.0115 45.1885 8.93483 46.8991 8.93483C47.0126 8.93459 47.1258 8.94423 47.2376 8.96364C49.0809 9.28687 50.2155 12.2184 51.9349 12.8451C52.2762 12.9607 52.635 13.0157 52.9951 13.0076C54.1572 13.0076 55.5131 12.5881 56.667 12.588C57.1389 12.5684 57.6075 12.6743 58.0252 12.895C58.6713 13.3615 59.149 14.0251 59.3867 14.7863L61.3326 12.8379C60.8847 11.9313 60.188 11.1714 59.3241 10.6471Z" fill="#161616"/>
<path d="M23.6745 72.4574C24.4851 72.9113 25.4031 73.138 26.3316 73.1135C27.0891 73.0944 27.8437 73.0125 28.5877 72.8689C29.0548 72.7764 29.528 72.718 30.0035 72.6939C30.06 72.6932 30.1164 72.6961 30.1724 72.7026C30.5642 73.0393 30.9218 73.4138 31.2401 73.8208C32.2059 74.9542 33.4078 76.3647 35.3135 76.6989C35.573 76.7442 35.836 76.7668 36.0994 76.7667C37.5089 76.6686 38.8671 76.1981 40.0358 75.4032C40.4962 75.1133 40.9869 74.8748 41.4991 74.6919C42.0114 74.8748 42.5021 75.1133 42.9625 75.4032C44.1311 76.1981 45.4894 76.6686 46.8988 76.7667C47.1623 76.7668 47.4253 76.7441 47.6849 76.6989C49.5905 76.3647 50.7924 74.9541 51.7582 73.8208C52.0768 73.4129 52.4353 73.0378 52.8282 72.7011C52.8499 72.6993 52.9046 72.6939 52.9942 72.6939C53.4697 72.718 53.9429 72.7766 54.41 72.869C55.1541 73.0128 55.9088 73.0947 56.6665 73.1138C57.5948 73.1382 58.5126 72.9116 59.3232 72.4578C60.9849 71.4952 61.6279 69.7662 62.1446 68.3769C62.3059 67.8778 62.5176 67.3964 62.7763 66.9402C63.2719 66.7623 63.7844 66.6358 64.3057 66.5628C65.7589 66.2936 67.5673 65.9587 68.7987 64.4909C70.0276 63.0261 70.0448 61.1872 70.0586 59.7097C70.0402 59.1803 70.0766 58.6506 70.1672 58.1288C70.5692 57.7969 71.0037 57.5065 71.4639 57.262C72.7438 56.5095 74.3368 55.5729 74.996 53.7599C75.6462 51.9717 75.0346 50.2447 74.5432 48.8571C74.3427 48.3599 74.1943 47.8431 74.1002 47.3152C74.3619 46.8744 74.666 46.4602 75.0081 46.0786C75.9567 44.9276 77.1373 43.4954 77.1373 41.5522C77.1373 39.6089 75.9567 38.1766 75.0081 37.0258C74.6637 36.6428 74.3586 36.2262 74.0974 35.7823C74.1938 35.2568 74.3432 34.7425 74.5432 34.2473C75.0346 32.8596 75.6462 31.1326 74.996 29.3444C74.3368 27.5315 72.7438 26.5951 71.4639 25.8426C71.0005 25.5976 70.564 25.3048 70.1613 24.969C70.0746 24.4492 70.0404 23.9221 70.0591 23.3954C70.0546 22.9178 70.0455 22.4009 69.9995 21.8726L67.4881 24.3871C67.4833 25.0434 67.6314 25.6918 67.9206 26.2808C68.841 27.8735 71.9217 28.481 72.5587 30.2329C73.1847 31.9544 71.2202 34.4001 71.5431 36.2458C71.857 38.0405 74.5435 39.6674 74.5435 41.5522C74.5435 43.4369 71.857 45.0638 71.5431 46.8585C71.2203 48.7041 73.1847 51.1499 72.5587 52.8714C71.9217 54.6235 68.8408 55.2312 67.9203 56.8241C66.9912 58.4319 67.9988 61.4065 66.8126 62.8205C65.623 64.2385 62.5215 63.7582 61.1052 64.9493C59.693 66.1369 59.63 69.2797 58.0242 70.2099C57.6066 70.4304 57.1382 70.5363 56.6665 70.5167C55.5125 70.5167 54.1565 70.0969 52.9944 70.0969C52.6344 70.0888 52.2757 70.1438 51.9346 70.2593C50.2152 70.8861 49.0806 73.8176 47.2373 74.1408C47.1255 74.1602 47.0123 74.1699 46.8988 74.1696C45.1881 74.1696 43.2641 72.093 41.4991 72.093C39.7342 72.093 37.8101 74.1697 36.0995 74.1697C35.986 74.1699 35.8727 74.1603 35.761 74.1409C33.9176 73.8176 32.783 70.8861 31.0637 70.2594C30.7224 70.1438 30.3636 70.0888 30.0035 70.0969C28.8415 70.0968 27.4855 70.5165 26.3316 70.5165C25.8597 70.5361 25.3911 70.4302 24.9734 70.2095C24.3274 69.743 23.8497 69.0794 23.6119 68.3182L21.666 70.2665C22.1138 71.1732 22.8106 71.9331 23.6745 72.4574Z" fill="#161616"/>
<path d="M41.5 0C33.2921 0 25.2685 2.437 18.4439 7.00281C11.6192 11.5686 6.30005 18.0582 3.15902 25.6509C0.0179812 33.2436 -0.803857 41.5983 0.79743 49.6587C2.39872 57.719 6.35121 65.1229 12.1551 70.9341C17.959 76.7453 25.3536 80.7028 33.4038 82.3061C41.454 83.9094 49.7982 83.0865 57.3814 79.9415C64.9645 76.7965 71.4459 71.4707 76.006 64.6374C80.5661 57.8042 83 49.7705 83 41.5522C82.9876 30.5357 78.6113 19.974 70.8312 12.1841C63.0512 4.39427 52.5027 0.0124533 41.5 0ZM11.5228 66.3831C5.34932 58.9117 2.18087 49.4034 2.63694 39.7172C3.09302 30.031 7.14082 20.8634 13.989 14.0066C20.8371 7.14979 29.9933 3.09689 39.6673 2.64025C49.3413 2.1836 58.8377 5.35604 66.2997 11.5373L11.5228 66.3831ZM13.2525 68.3241L68.2382 13.2691C68.7551 13.7591 69.2582 14.2628 69.7476 14.7804L14.7618 69.8354C14.245 69.3454 13.7419 68.8416 13.2525 68.3241ZM80.4063 41.5522C80.4064 48.9445 78.3058 56.1841 74.3498 62.4256C70.3939 68.6671 64.7459 73.6527 58.0656 76.8002C51.3853 79.9476 43.9484 81.1268 36.6237 80.2002C29.299 79.2736 22.3888 76.2793 16.7003 71.5671L71.4772 16.7213C77.2603 23.6991 80.4196 32.4848 80.4063 41.5522Z" fill="#161616"/>
</svg>
