<svg width="80" height="84" viewBox="0 0 80 84" fill="none" xmlns="http://www.w3.org/2000/svg">
<path d="M21.3761 83.8759C18.4895 83.8764 15.6345 83.2736 12.9928 82.1059C10.3512 80.9382 7.98083 79.2312 6.03282 77.0936C4.08482 74.956 2.60185 72.4347 1.67837 69.6903C0.754895 66.9459 0.411164 64.0386 0.669075 61.1535C0.926985 58.2685 1.78088 55.469 3.17637 52.9333C4.57186 50.3977 6.47835 48.1815 8.77438 46.4259C11.0704 44.6704 13.7057 43.4139 16.5123 42.7366C19.3188 42.0594 22.2352 41.9761 25.0757 42.4921L62.937 4.49826C63.0349 4.39881 63.158 4.32803 63.293 4.29355L78.4655 0.490069C78.5821 0.460923 78.7038 0.459724 78.8209 0.486568C78.938 0.513413 79.0471 0.567547 79.1395 0.644588C79.2319 0.721629 79.3049 0.819412 79.3526 0.930022C79.4003 1.04063 79.4214 1.16096 79.4141 1.28127L78.4023 18.0285C78.3902 18.2169 78.3091 18.3943 78.1747 18.5265C78.0403 18.6587 77.862 18.7365 77.674 18.7449L72.8239 18.967L72.7148 23.705C72.7102 23.9005 72.6315 24.0869 72.4946 24.2262C72.3578 24.3654 72.1731 24.447 71.9783 24.4542L65.9501 24.6794L66.3897 29.9681C66.3982 30.0712 66.3858 30.175 66.3534 30.2732C66.3209 30.3714 66.2691 30.462 66.2009 30.5396C66.1327 30.6172 66.0496 30.6802 65.9565 30.7248C65.8635 30.7694 65.7624 30.7947 65.6594 30.7992L60.4778 31.0203L61.4478 36.1083C61.4694 36.2217 61.4651 36.3386 61.4355 36.4502C61.4058 36.5618 61.3515 36.6652 61.2765 36.7528C61.2016 36.8404 61.1079 36.91 61.0025 36.9563C60.897 37.0026 60.7826 37.0245 60.6675 37.0203L55.0575 36.8033L55.7634 40.5505C55.7857 40.6681 55.7803 40.7894 55.7475 40.9046C55.7147 41.0198 55.6555 41.1257 55.5746 41.2137C55.4937 41.3018 55.3933 41.3696 55.2816 41.4118C55.1698 41.4539 55.0498 41.4691 54.9311 41.4563L49.5434 40.879L50.8123 45.4327C50.849 45.564 50.8502 45.7027 50.8157 45.8345C50.7813 45.9664 50.7125 46.0867 50.6165 46.183L48.502 48.3058L50.1105 49.92C50.1816 49.9912 50.238 50.0759 50.2765 50.1691C50.315 50.2622 50.3348 50.3621 50.3348 50.4629C50.3348 50.5638 50.315 50.6637 50.2765 50.7568C50.238 50.85 50.1816 50.9346 50.1105 51.0059L45.1809 55.9537C45.0716 56.0632 44.9319 56.1371 44.78 56.1656L41.2335 56.8289C42.2015 59.9512 42.4242 63.2582 41.8836 66.4828C41.343 69.7074 40.0542 72.7592 38.1214 75.3918C36.1886 78.0244 33.6659 80.164 30.7571 81.6378C27.8482 83.1116 24.6347 83.8783 21.3761 83.8759ZM21.3659 43.6938C17.5572 43.6958 13.8346 44.8308 10.6686 46.9555C7.50255 49.0801 5.03532 52.0989 3.57871 55.6303C2.12211 59.1617 1.74152 63.0472 2.48506 66.7956C3.2286 70.544 5.06289 73.9871 7.75607 76.6897C15.2663 84.226 27.4859 84.226 34.9962 76.6897C37.5692 74.0923 39.3581 70.8178 40.1563 67.2441C40.9546 63.6704 40.7297 59.9431 39.5076 56.4921C39.4506 56.3319 39.4482 56.1572 39.5008 55.9955C39.5534 55.8337 39.6581 55.6941 39.7983 55.5986C39.9044 55.5256 40.0273 55.4812 40.1553 55.4696L44.267 54.6999L48.4887 50.4675L46.8802 48.8534C46.8091 48.7821 46.7527 48.6975 46.7142 48.6043C46.6758 48.5112 46.656 48.4113 46.656 48.3104C46.656 48.2096 46.6758 48.1097 46.7142 48.0166C46.7527 47.9234 46.8091 47.8387 46.8802 47.7674L49.2191 45.4205L47.7594 40.2086C47.7256 40.088 47.7218 39.9609 47.7482 39.8384C47.7746 39.7159 47.8305 39.6018 47.911 39.506C47.9915 39.4102 48.0941 39.3356 48.2099 39.2887C48.3257 39.2419 48.4512 39.2242 48.5754 39.2373L54.063 39.8248L53.3705 36.138C53.3491 36.0246 53.3534 35.9078 53.3832 35.7963C53.413 35.6848 53.4675 35.5815 53.5426 35.494C53.6176 35.4066 53.7114 35.3373 53.8169 35.2912C53.9224 35.2452 54.0368 35.2236 54.1518 35.228L59.7618 35.445L58.805 30.4297C58.7844 30.3213 58.7873 30.2098 58.8135 30.1026C58.8397 29.9954 58.8885 29.8952 58.9568 29.8087C59.025 29.7222 59.111 29.6514 59.2089 29.6012C59.3068 29.551 59.4143 29.5225 59.5241 29.5177L64.7955 29.2966L64.3559 24.0049C64.3472 23.9014 64.3596 23.7973 64.3923 23.6987C64.4249 23.6002 64.4772 23.5093 64.5458 23.4316C64.6145 23.3539 64.6981 23.291 64.7917 23.2467C64.8853 23.2024 64.9868 23.1776 65.0903 23.1738L71.198 22.9466L71.3143 18.2188C71.3188 18.0243 71.3967 17.8388 71.5322 17.6997C71.6678 17.5606 71.8509 17.4784 72.0446 17.4696L76.9202 17.2465L77.827 2.23418L63.8683 5.73879L25.907 43.8289C25.8185 43.9302 25.705 44.0064 25.5778 44.0497C25.4507 44.093 25.3144 44.1019 25.1828 44.0755C23.9262 43.822 22.6477 43.6942 21.3659 43.6938Z" fill="#161616"/>
<path d="M21.3766 74.7115C19.8463 74.7143 18.3305 74.4137 16.9163 73.8268C15.5021 73.24 14.2174 72.3785 13.136 71.2919C11.2246 69.3783 10.0337 66.8587 9.76635 64.1627C9.49898 61.4666 10.1717 58.761 11.6698 56.5069C13.1678 54.2528 15.3986 52.5899 17.9818 51.8015C20.5649 51.0132 23.3406 51.1482 25.8357 52.1836C28.3307 53.219 30.3907 55.0907 31.6645 57.4796C32.9383 59.8685 33.347 62.6267 32.821 65.2842C32.295 67.9416 30.8668 70.3338 28.7799 72.0529C26.693 73.7719 24.0766 74.7115 21.3766 74.7115ZM14.2182 70.2079C15.6337 71.6274 17.4369 72.5939 19.3996 72.9851C21.3624 73.3764 23.3968 73.1749 25.2455 72.4062C27.0942 71.6374 28.6742 70.3359 29.7859 68.6661C30.8975 66.9963 31.4908 65.0333 31.4908 63.0252C31.4908 61.0171 30.8975 59.0541 29.7859 57.3843C28.6742 55.7146 27.0942 54.413 25.2455 53.6443C23.3968 52.8755 21.3624 52.674 19.3996 53.0653C17.4369 53.4566 15.6337 54.423 14.2182 55.8425C12.323 57.7492 11.2587 60.3322 11.2587 63.0252C11.2587 65.7182 12.323 68.3013 14.2182 70.2079Z" fill="#161616"/>
<path d="M31.1506 47.1553C30.9994 47.1549 30.8517 47.1096 30.7262 47.0251C30.6006 46.9406 30.5027 46.8207 30.4449 46.6805C30.3871 46.5403 30.3719 46.3861 30.4013 46.2373C30.4307 46.0884 30.5033 45.9516 30.61 45.8442L66.9139 9.41427C66.9845 9.34098 67.0689 9.28254 67.1623 9.24236C67.2556 9.20217 67.356 9.18104 67.4576 9.1802C67.5592 9.17936 67.6599 9.19883 67.7539 9.23748C67.8479 9.27612 67.9333 9.33316 68.0051 9.40527C68.0769 9.47738 68.1336 9.56312 68.172 9.65748C68.2105 9.75184 68.2298 9.85293 68.2288 9.95486C68.2279 10.0568 68.2068 10.1575 68.1666 10.2511C68.1265 10.3448 68.0682 10.4295 67.9951 10.5002L31.6912 46.9301C31.6203 47.0015 31.5361 47.0582 31.4433 47.0968C31.3505 47.1355 31.2511 47.1553 31.1506 47.1553Z" fill="#161616"/>
</svg>
