<svg width="36" height="30" viewBox="0 0 36 30" fill="none" xmlns="http://www.w3.org/2000/svg">
<g id="&#208;&#152;&#208;&#186;&#208;&#190;&#208;&#189;&#208;&#186;&#208;&#176; &#208;&#190;&#208;&#177;&#208;&#188;&#208;&#181;&#208;&#189;&#208;&#176; &#208;&#184; &#208;&#178;&#208;&#190;&#208;&#183;&#208;&#178;&#209;&#128;&#208;&#176;&#209;&#130;&#208;&#176;">
<g id="Filled Outline">
<path id="Vector" d="M1.86218 10H29.6425L26.6143 13.0492C26.2651 13.4008 26.0689 13.8777 26.0689 14.375C26.0689 14.8723 26.2651 15.3492 26.6143 15.7009C26.9635 16.0525 27.4371 16.2501 27.931 16.2501C28.4249 16.2501 28.8985 16.0525 29.2477 15.7009L35.4546 9.45088C35.6275 9.27677 35.7647 9.07007 35.8582 8.84258C35.9518 8.61509 36 8.37126 36 8.12503C36 7.87879 35.9518 7.63497 35.8582 7.40747C35.7647 7.17998 35.6275 6.97328 35.4546 6.79917L29.2477 0.549187C28.8985 0.197549 28.4249 -3.70512e-09 27.931 0C27.4371 3.70512e-09 26.9635 0.197549 26.6143 0.549187C26.2651 0.900826 26.0689 1.37775 26.0689 1.87504C26.0689 2.37234 26.2651 2.84926 26.6143 3.2009L29.6425 6.25003H1.86218C1.36833 6.25003 0.89471 6.44758 0.545507 6.7992C0.196303 7.15083 0.00012207 7.62775 0.00012207 8.12503C0.00012207 8.62231 0.196303 9.09922 0.545507 9.45085C0.89471 9.80248 1.36833 10 1.86218 10Z" fill="#FFE681"/>
<path id="Vector_2" d="M34.1378 20H6.35753L9.3857 16.9509C9.73491 16.5993 9.9311 16.1223 9.9311 15.625C9.9311 15.1278 9.73491 14.6508 9.3857 14.2992C9.03648 13.9475 8.56285 13.75 8.06899 13.75C7.57513 13.75 7.10149 13.9475 6.75228 14.2992L0.545418 20.5492C0.3725 20.7233 0.235333 20.93 0.14175 21.1575C0.0481667 21.385 0 21.6288 0 21.875C0 22.1213 0.0481667 22.3651 0.14175 22.5926C0.235333 22.8201 0.3725 23.0268 0.545418 23.2009L6.75228 29.4509C7.10149 29.8025 7.57513 30.0001 8.06899 30.0001C8.56285 30.0001 9.03648 29.8025 9.3857 29.4509C9.73491 29.0992 9.9311 28.6223 9.9311 28.125C9.9311 27.6277 9.73491 27.1508 9.3857 26.7992L6.35753 23.75H34.1378C34.6317 23.75 35.1053 23.5525 35.4545 23.2008C35.8037 22.8492 35.9999 22.3723 35.9999 21.875C35.9999 21.3777 35.8037 20.9008 35.4545 20.5492C35.1053 20.1976 34.6317 20 34.1378 20Z" fill="#1573CA"/>
</g>
</g>
</svg>
