<svg width="47" height="30" viewBox="0 0 47 30" fill="none" xmlns="http://www.w3.org/2000/svg">
<g id="&#208;&#152;&#208;&#186;&#208;&#190;&#208;&#189;&#208;&#186;&#208;&#176; &#208;&#180;&#208;&#190;&#209;&#129;&#209;&#130;&#208;&#176;&#208;&#178;&#208;&#186;&#208;&#184;">
<g id="Group 2">
<path id="Vector" d="M32.9196 0.742676H4.66057C4.2271 0.742676 3.87561 1.09735 3.87561 1.53474V18.1684H6.23048C7.0975 18.1684 7.80039 18.8776 7.80039 19.7526C7.80039 20.6274 7.09741 21.3367 6.23048 21.3367H3.87561V23.7129C3.87561 24.1503 4.2271 24.505 4.66057 24.505H33.7045V1.53474C33.7045 1.09735 33.353 0.742676 32.9196 0.742676Z" fill="#1573CA"/>
<path id="Vector_2" d="M43.1244 13.416H33.7047V24.5052H46.2642V16.5843C46.2642 14.8345 44.8584 13.416 43.1244 13.416Z" fill="#FFDC64"/>
<path id="Vector_3" d="M33.7047 15.792H42.2086C43.0757 15.792 43.7785 16.5012 43.7785 17.3761V24.5048H33.7047V15.792Z" fill="#FFE681"/>
<path id="Vector_4" d="M39.9845 3.91113H33.7047V7.0795H42.3394V6.28743C42.3394 4.97497 41.285 3.91113 39.9845 3.91113Z" fill="#FFDC64"/>
<path id="Vector_5" d="M43.1244 13.4162L41.5544 7.07959H33.7047V13.4162H43.1244Z" fill="#B4E6FF"/>
<path id="Vector_6" d="M43.1241 16.5845H46.2641V19.7528H44.6942C43.827 19.7528 43.1242 19.0437 43.1242 18.1687V16.5845H43.1241Z" fill="#F1F4FB"/>
<path id="Vector_7" d="M39.1995 18.9604C36.8337 18.9604 34.7754 20.2818 33.7047 22.2318V24.505H45.425C45.0379 21.38 42.4013 18.9604 39.1995 18.9604Z" fill="#E1A546"/>
<path id="Vector_8" d="M43.7782 20.9663V24.5049H45.4248C45.2562 23.1443 44.6607 21.918 43.7782 20.9663Z" fill="#FFE681"/>
<path id="Vector_9" d="M39.1997 29.2578C41.3673 29.2578 43.1245 27.4846 43.1245 25.2973C43.1245 23.1101 41.3673 21.3369 39.1997 21.3369C37.032 21.3369 35.2748 23.1101 35.2748 25.2973C35.2748 27.4846 37.032 29.2578 39.1997 29.2578Z" fill="#EBEBEB"/>
<path id="Vector_10" d="M36.8445 9.45579H42.1431L41.5544 7.07959H33.7047V13.4162H36.0596V10.2479C36.0595 9.81047 36.411 9.45579 36.8445 9.45579Z" fill="#9BD6FF"/>
<path id="Vector_11" d="M13.2953 18.9604C11.3131 18.9604 9.54821 19.8893 8.39744 21.3366H6.23057H3.87561V23.7128C3.87561 24.1502 4.2271 24.5049 4.66057 24.5049H33.7045V21.3366H18.1931C17.0423 19.8893 15.2774 18.9604 13.2953 18.9604Z" fill="#FFE681"/>
<path id="Vector_12" d="M13.2954 29.2578C15.463 29.2578 17.2202 27.4846 17.2202 25.2973C17.2202 23.1101 15.463 21.3369 13.2954 21.3369C11.1277 21.3369 9.37048 23.1101 9.37048 25.2973C9.37048 27.4846 11.1277 29.2578 13.2954 29.2578Z" fill="#EBEBEB"/>
<path id="Vector_13" d="M13.2953 23.7627C12.4567 23.7627 11.7744 24.4511 11.7744 25.2974C11.7744 26.1436 12.4567 26.832 13.2953 26.832C14.134 26.832 14.8162 26.1436 14.8162 25.2974C14.8162 24.4511 14.134 23.7627 13.2953 23.7627Z" fill="#161616"/>
<path id="Vector_14" d="M39.1994 23.7627C38.3607 23.7627 37.6785 24.4511 37.6785 25.2974C37.6785 26.1436 38.3607 26.832 39.1994 26.832C40.038 26.832 40.7203 26.1436 40.7203 25.2974C40.7203 24.4511 40.038 23.7627 39.1994 23.7627Z" fill="#161616"/>
<path id="Vector_15" d="M18.8394 21.3368C18.8394 21.7469 19.1688 22.0794 19.5753 22.0794H30.5648C30.9712 22.0794 31.3007 21.747 31.3007 21.3368C31.3007 20.9268 30.9713 20.5942 30.5648 20.5942H19.5752C19.1688 20.5942 18.8394 20.9268 18.8394 21.3368Z" fill="#161616"/>
<path id="Vector_16" d="M2.30576 18.911H11.7254C12.1318 18.911 12.4614 18.5785 12.4614 18.1684C12.4614 17.7583 12.1319 17.4258 11.7254 17.4258H2.30576C1.89938 17.4258 1.56982 17.7582 1.56982 18.1684C1.56982 18.5785 1.89938 18.911 2.30576 18.911Z" fill="#161616"/>
<path id="Vector_17" d="M24.5496 7.34635L18.0052 13.9499L14.6007 10.5146C14.3133 10.2246 13.8474 10.2246 13.56 10.5146C13.2726 10.8046 13.2726 11.2747 13.56 11.5647L17.4849 15.5252C17.6286 15.6702 17.817 15.7427 18.0052 15.7427C18.1935 15.7427 18.3819 15.6702 18.5255 15.5252L25.5902 8.39648C25.8777 8.10646 25.8777 7.63637 25.5902 7.34635C25.303 7.05642 24.837 7.05642 24.5496 7.34635Z" fill="white"/>
<g id="Group 1">
<ellipse id="Ellipse 1" cx="13.3019" cy="25.2905" rx="4.43397" ry="4.47414" fill="#161616"/>
<ellipse id="Ellipse 2" cx="39.0189" cy="25.2905" rx="4.43397" ry="4.47414" fill="#161616"/>
<ellipse id="Ellipse 3" cx="39.0189" cy="25.2903" rx="0.886794" ry="0.894827" fill="#FFDC64"/>
<ellipse id="Ellipse 4" cx="13.3018" cy="25.2903" rx="0.886794" ry="0.894827" fill="#FFDC64"/>
</g>
</g>
</g>
</svg>
