<svg width="46" height="30" viewBox="0 0 46 30" fill="none" xmlns="http://www.w3.org/2000/svg">
<g id="&#208;&#152;&#208;&#186;&#208;&#190;&#208;&#189;&#208;&#186;&#208;&#176; &#208;&#190;&#208;&#191;&#208;&#187;&#208;&#176;&#209;&#130;&#209;&#139;">
<g id="Group">
<g id="Group_2">
<path id="Vector" d="M44.1301 3.75H3.73987V28.125C3.73987 29.1609 4.57666 30 5.60979 30H44.1301C45.1632 30 46 29.1609 46 28.125V5.625C46 4.58906 45.1632 3.75 44.1301 3.75Z" fill="#FFE681"/>
<path id="Vector_2" d="M42.2602 24.375C42.2602 25.4109 41.4234 26.25 40.3902 26.25C39.0673 26.25 4.12298 26.25 1.86992 26.25C0.836789 26.25 0 25.4109 0 24.375V1.875C0 0.839062 0.836789 0 1.86992 0H40.3902C41.4234 0 42.2602 0.839062 42.2602 1.875V24.375Z" fill="#1573CA"/>
</g>
<g id="Group_3">
<path id="Vector_3" d="M28.2358 5.625V3.75C28.2358 3.23231 27.8171 2.8125 27.3008 2.8125C26.7845 2.8125 26.3658 3.23231 26.3658 3.75V5.625C26.3658 6.14269 26.7845 6.5625 27.3008 6.5625C27.8171 6.5625 28.2358 6.14269 28.2358 5.625Z" fill="white"/>
<path id="Vector_4" d="M31.9756 5.625V3.75C31.9756 3.23231 31.557 2.8125 31.0407 2.8125C30.5244 2.8125 30.1057 3.23231 30.1057 3.75V5.625C30.1057 6.14269 30.5244 6.5625 31.0407 6.5625C31.557 6.5625 31.9756 6.14269 31.9756 5.625Z" fill="white"/>
<path id="Vector_5" d="M35.7154 5.625V3.75C35.7154 3.23231 35.2967 2.8125 34.7804 2.8125C34.2641 2.8125 33.8455 3.23231 33.8455 3.75V5.625C33.8455 6.14269 34.2641 6.5625 34.7804 6.5625C35.2967 6.5625 35.7154 6.14269 35.7154 5.625Z" fill="white"/>
<path id="Vector_6" d="M39.4552 5.625V3.75C39.4552 3.23231 39.0366 2.8125 38.5203 2.8125C38.004 2.8125 37.5853 3.23231 37.5853 3.75V5.625C37.5853 6.14269 38.004 6.5625 38.5203 6.5625C39.0366 6.5625 39.4552 6.14269 39.4552 5.625Z" fill="white"/>
</g>
<line id="Line 1" x1="3.47278" y1="14.9897" x2="8.3344" y2="14.9897" stroke="white" stroke-linecap="round"/>
<line id="Line 2" x1="10.3114" y1="14.9897" x2="15.173" y2="14.9897" stroke="white" stroke-linecap="round"/>
<line id="Line 3" x1="17.1499" y1="14.9897" x2="22.0115" y2="14.9897" stroke="white" stroke-linecap="round"/>
<line id="Line 4" x1="23.9885" y1="14.9897" x2="28.8501" y2="14.9897" stroke="white" stroke-linecap="round"/>
<rect id="Rectangle 1" x="3.47278" y="3.25488" width="11.7002" height="8.79592" rx="2.5" stroke="white"/>
<line id="Line 5" x1="3.47278" y1="17.9287" x2="28.8501" y2="17.9287" stroke="white" stroke-linecap="round"/>
<line id="Line 6" x1="3.47278" y1="20.8672" x2="14.196" y2="20.8672" stroke="white" stroke-linecap="round"/>
<line id="Line 7" x1="7.38049" y1="3.73486" x2="7.38049" y2="11.5716" stroke="white"/>
<line id="Line 8" x1="11.2883" y1="3.73486" x2="11.2883" y2="11.5716" stroke="white"/>
<line id="Line 9" x1="3.94971" y1="7.15283" x2="14.696" y2="7.15283" stroke="white"/>
</g>
</g>
</svg>
