<svg width="0" height="0" class="hidden">
  <symbol fill="none" xmlns="http://www.w3.org/2000/svg" viewBox="0 0 12 21" id="ic_arr_hor">
    <path d="M11 1L1.5 10.5L11 20" stroke="currentColor" stroke-width="2" stroke-linecap="round"></path>
  </symbol>
  <symbol fill="none" xmlns="http://www.w3.org/2000/svg" viewBox="0 0 10 7" id="ic_arr_ver">
    <path d="M1 1L5 5L9 1" stroke="currentColor" stroke-width="2" stroke-linecap="round"></path>
  </symbol>
  <symbol fill="none" xmlns="http://www.w3.org/2000/svg" viewBox="0 0 10 7" id="ic_arrow_hor">
    <path d="M1 3.5H9M9 3.5L6.86667 1.5M9 3.5L6.86667 5.5" stroke="currentColor" stroke-linecap="round" stroke-linejoin="round"></path>
  </symbol>
  <symbol fill="none" xmlns="http://www.w3.org/2000/svg" viewBox="0 0 18 18" id="ic_buy">
    <path d="M2.39948 6.8286C2.51335 5.53807 3.59425 4.54834 4.88981 4.54834H13.4094C14.7331 4.54834 15.8273 5.58013 15.9051 6.90153L16.314 13.8539C16.3985 15.2899 15.2568 16.5007 13.8183 16.5007H4.27636C2.80892 16.5007 1.65706 15.2427 1.78604 13.781L2.39948 6.8286Z" stroke="currentColor"></path>
    <path d="M4.54883 3C4.54883 2.17157 5.2204 1.5 6.04883 1.5H11.9536C12.782 1.5 13.4536 2.17157 13.4536 3V4.30952H4.54883V3Z" stroke="currentColor"></path>
  </symbol>
  <symbol fill="none" xmlns="http://www.w3.org/2000/svg" viewBox="0 0 27 27" id="ic_cart">
    <path d="M20.0153 6.47705H7.02453C4.68058 6.47705 2.71129 8.10351 2.15803 10.9276L1.15687 18.2652C0.304671 23.6379 2.96429 25.9997 8.1694 25.9997H18.8237C23.6373 25.9997 26.5143 23.3376 25.9236 18.56L24.89 10.9768C24.2274 8.11756 22.3088 6.47705 20.0153 6.47705Z" stroke="currentColor" stroke-width="1.27982"></path>
    <path d="M19.9543 7.11724C19.9543 3.73883 17.0569 1.00005 13.4829 1.00005C11.7659 0.993223 10.1129 1.63467 8.89337 2.78259C7.67383 3.93051 6.98828 5.49037 6.98828 7.11724" stroke="currentColor" stroke-width="1.27982" stroke-linecap="round"></path>
    <path d="M17.2656 11.6455C17.7943 11.6455 18.2229 12.0506 18.2229 12.5503C18.2229 13.0084 17.8627 13.387 17.3955 13.4469L17.2656 13.4552H17.2072C16.6786 13.4552 16.25 13.0501 16.25 12.5503C16.25 12.0923 16.6101 11.7137 17.0773 11.6538L17.2072 11.6455H17.2656Z" fill="currentColor"></path>
    <path d="M9.83009 11.6455C10.3587 11.6455 10.7873 12.0506 10.7873 12.5503C10.7873 13.0084 10.4272 13.387 9.95998 13.4469L9.83009 13.4552H9.77168C9.24302 13.4552 8.81445 13.0501 8.81445 12.5503C8.81445 12.0923 9.17457 11.7137 9.64179 11.6538L9.77168 11.6455H9.83009Z" fill="currentColor"></path>
  </symbol>
  <symbol fill="none" xmlns="http://www.w3.org/2000/svg" viewBox="0 0 27 27" id="ic_cart_a">
    <path d="M20.0153 6.47705H7.02453C4.68058 6.47705 2.71129 8.10351 2.15803 10.9276L1.15687 18.2652C0.304671 23.6379 2.96429 25.9997 8.1694 25.9997H18.8237C23.6373 25.9997 26.5143 23.3376 25.9235 18.56L24.89 10.9768C24.2274 8.11756 22.3088 6.47705 20.0153 6.47705Z" fill="currentColor" stroke="currentColor" stroke-width="1.27982"></path>
    <path d="M19.9543 7.11724C19.9543 3.73883 17.0569 1.00005 13.4829 1.00005C11.7659 0.993223 10.1129 1.63467 8.89337 2.78259C7.67383 3.93051 6.98828 5.49037 6.98828 7.11724" stroke="currentColor" stroke-width="1.27982" stroke-linecap="round"></path>
    <path d="M17.2656 11.6455C17.7943 11.6455 18.2229 12.0506 18.2229 12.5503C18.2229 13.0084 17.8627 13.387 17.3955 13.4469L17.2656 13.4552H17.2072C16.6786 13.4552 16.25 13.0501 16.25 12.5503C16.25 12.0923 16.6101 11.7137 17.0773 11.6538L17.2072 11.6455H17.2656Z" fill="#F5F9FB"></path>
    <path d="M9.83009 11.6455C10.3587 11.6455 10.7873 12.0506 10.7873 12.5503C10.7873 13.0084 10.4272 13.387 9.95998 13.4469L9.83009 13.4552H9.77168C9.24302 13.4552 8.81445 13.0501 8.81445 12.5503C8.81445 12.0923 9.17457 11.7137 9.64179 11.6538L9.77168 11.6455H9.83009Z" fill="#F5F9FB"></path>
  </symbol>
  <symbol fill="none" xmlns="http://www.w3.org/2000/svg" viewBox="0 0 13 9" id="ic_check">
    <path d="M1 4L5 8L12 1" stroke="currentColor" stroke-linecap="round"></path>
  </symbol>
  <symbol xmlns="http://www.w3.org/2000/svg" viewBox="0 0 9 15" id="ic_compare">
    <path d="M8.79652 4.32998C8.97876 4.14774 8.97876 3.85226 8.79652 3.67002L5.82667 0.700168C5.64443 0.517924 5.34895 0.517924 5.1667 0.700168C4.98446 0.882413 4.98446 1.17789 5.1667 1.36013L7.80657 4L5.1667 6.63986C4.98446 6.82211 4.98446 7.11759 5.1667 7.29983C5.34895 7.48208 5.64443 7.48208 5.82667 7.29983L8.79652 4.32998ZM0.533203 4.46667L8.46654 4.46667L8.46654 3.53333L0.533203 3.53333L0.533203 4.46667Z" fill="currentColor"></path>
    <path d="M0.203481 11.33C0.0212364 11.1477 0.0212364 10.8523 0.203481 10.67L3.17333 7.70017C3.35557 7.51792 3.65105 7.51792 3.8333 7.70017C4.01554 7.88241 4.01554 8.17789 3.8333 8.36013L1.19343 11L3.8333 13.6399C4.01554 13.8221 4.01554 14.1176 3.8333 14.2998C3.65105 14.4821 3.35557 14.4821 3.17333 14.2998L0.203481 11.33ZM8.4668 11.4667L0.533464 11.4667L0.533464 10.5333L8.4668 10.5333L8.4668 11.4667Z" fill="currentColor"></path>
  </symbol>
  <symbol fill="none" xmlns="http://www.w3.org/2000/svg" viewBox="0 0 13 14" id="ic_delete">
    <line x1="1.00394" y1="1.44625" x2="12.0348" y2="12.4771" stroke="currentColor"></line>
    <line x1="0.865197" y1="12.4775" x2="11.8961" y2="1.44664" stroke="currentColor"></line>
  </symbol>
  <symbol fill="none" xmlns="http://www.w3.org/2000/svg" viewBox="0 0 27 27" id="ic_favorite">
    <path fill-rule="evenodd" clip-rule="evenodd" d="M13.1855 25.7969C10.3295 23.9415 7.67251 21.7578 5.26222 19.285C3.56768 17.5041 2.27764 15.333 1.49092 12.938C0.0751892 8.29209 1.72885 2.97337 6.35674 1.39933C8.78896 0.572826 11.4453 1.04521 13.4949 2.66872C15.5452 1.04719 18.2006 0.574969 20.633 1.39933C25.2609 2.97337 26.9264 8.29209 25.5107 12.938C24.724 15.333 23.4339 17.5041 21.7394 19.285C19.3291 21.7578 16.6721 23.9415 13.8161 25.7969L13.5068 26L13.1855 25.7969Z" stroke="currentColor" stroke-width="1.27982" stroke-linecap="round" stroke-linejoin="round"></path>
    <path d="M18.4238 6.62988C19.8255 7.10252 20.8215 8.43086 20.946 9.99375" stroke="currentColor" stroke-width="1.27982" stroke-linecap="round" stroke-linejoin="round"></path>
  </symbol>
  <symbol fill="none" xmlns="http://www.w3.org/2000/svg" viewBox="0 0 27 27" id="ic_favorite_a">
    <path fill-rule="evenodd" clip-rule="evenodd" d="M13.1855 25.7969C10.3295 23.9415 7.67251 21.7578 5.26222 19.285C3.56768 17.5041 2.27764 15.333 1.49092 12.938C0.0751892 8.29209 1.72885 2.97337 6.35674 1.39933C8.78896 0.572826 11.4453 1.04521 13.4949 2.66872C15.5452 1.04719 18.2006 0.574969 20.633 1.39933C25.2609 2.97337 26.9264 8.29209 25.5107 12.938C24.724 15.333 23.4339 17.5041 21.7394 19.285C19.3291 21.7578 16.6721 23.9415 13.8161 25.7969L13.5068 26L13.1855 25.7969Z" fill="currentColor" stroke="currentColor" stroke-width="1.27982" stroke-linecap="round" stroke-linejoin="round"></path>
    <path d="M18.4238 6.62988C19.8255 7.10252 20.8215 8.43086 20.946 9.99375" stroke="#F5F9FB" stroke-width="1.27982" stroke-linecap="round" stroke-linejoin="round"></path>
  </symbol>
  <symbol xmlns="http://www.w3.org/2000/svg" viewBox="0 0 15 14" id="ic_favorite2">
    <path d="M7.49916 13.5391C7.42829 13.538 7.35888 13.5189 7.29747 13.4835C7.22096 13.4487 5.49614 12.4681 3.74351 10.8963C1.34406 8.73327 0.126954 6.58421 0.126954 4.49773C0.126323 3.63448 0.402644 2.79379 0.915298 2.09924C1.42795 1.40469 2.1499 0.892923 2.97501 0.639161C3.80013 0.385399 4.68489 0.403029 5.49924 0.68946C6.31359 0.975891 7.01458 1.51601 7.49916 2.23043C7.98374 1.51601 8.68472 0.975891 9.49907 0.68946C10.3134 0.403029 11.1982 0.385399 12.0233 0.639161C12.8484 0.892923 13.5704 1.40469 14.083 2.09924C14.5957 2.79379 14.872 3.63448 14.8714 4.49773C14.8714 6.58421 13.6543 8.73327 11.2548 10.8963C9.50217 12.4681 7.77735 13.4487 7.70085 13.4835C7.63944 13.5189 7.57002 13.538 7.49916 13.5391ZM4.1608 1.29847C3.31231 1.29847 2.49856 1.63554 1.89858 2.23552C1.29861 2.83549 0.961543 3.64924 0.961543 4.49773C0.961543 8.4829 6.37246 11.9604 7.49916 12.635C8.62585 11.9604 14.0368 8.4829 14.0368 4.49773C14.0384 3.75694 13.7829 3.03855 13.3139 2.46515C12.8448 1.89175 12.1914 1.49889 11.4649 1.35361C10.7385 1.20833 9.98423 1.31963 9.33075 1.66853C8.67726 2.01742 8.1651 2.58229 7.88168 3.26671C7.85174 3.34383 7.79919 3.41009 7.73093 3.45681C7.66267 3.50354 7.58188 3.52854 7.49916 3.52854C7.41644 3.52854 7.33565 3.50354 7.26739 3.45681C7.19912 3.41009 7.14658 3.34383 7.11664 3.26671C6.87345 2.68337 6.46294 2.18511 5.93688 1.83482C5.41083 1.48453 4.79281 1.2979 4.1608 1.29847Z" fill="currentColor"></path>
  </symbol>
  <symbol xmlns="http://www.w3.org/2000/svg" viewBox="0 0 22 22" id="ic_filter">
    <path d="M21.4712 3.20508C21.4712 2.11855 20.349 1.30989 18.0404 0.732742C16.1504 0.260224 13.6501 0 11.0003 0C8.35053 0 5.85021 0.260224 3.96014 0.732742C1.65154 1.30989 0.529297 2.11855 0.529297 3.20508C0.529297 3.60711 0.683426 3.97103 0.993983 4.29934L8.12038 12.9432V21.2167C8.12038 21.4877 8.26041 21.7394 8.49067 21.8822C8.61671 21.9604 8.75987 21.9999 8.90356 21.9999C9.0224 21.9999 9.14144 21.9729 9.2514 21.9184L13.4362 19.8443C13.7025 19.7123 13.8711 19.4409 13.8715 19.1436L13.8796 12.9437L21.0069 4.29881C21.3173 3.97061 21.4712 3.60701 21.4712 3.20508ZM4.69309 2.16857C6.4189 1.78022 8.65879 1.56636 11.0003 1.56636C13.3418 1.56636 15.5818 1.78022 17.3074 2.16857C19.2131 2.59744 19.7488 3.05836 19.8769 3.20508C19.7487 3.35179 19.2131 3.81272 17.3074 4.24159C15.5818 4.62994 13.3417 4.8438 11.0003 4.8438C8.6589 4.8438 6.4189 4.62994 4.69309 4.24169C2.78746 3.81283 2.25166 3.3519 2.12353 3.20518C2.25166 3.05836 2.78746 2.59744 4.69309 2.16857ZM12.4926 12.1639C12.3772 12.3039 12.3139 12.4796 12.3137 12.6611L12.3059 18.6564L9.68684 19.9545V12.6621C9.68684 12.4803 9.62367 12.3041 9.50797 12.1639L4.20919 5.73683C6.06731 6.17145 8.46467 6.41026 11.0003 6.41026C13.536 6.41026 15.9333 6.17145 17.7914 5.73683L12.4926 12.1639Z" fill="currentColor"></path>
  </symbol>
  <symbol fill="none" xmlns="http://www.w3.org/2000/svg" viewBox="0 0 18 22" id="ic_location">
    <path d="M4.69945 2.74C5.94141 1.95498 7.41701 1.5 9 1.5C13.4183 1.5 17 5.04441 17 9.41667C17 14.8445 10.6 20.5 9 20.5C7.4 20.5 1 14.8445 1 9.41667C1 8.02506 1.36284 6.71732 2 5.58103" stroke="currentColor" stroke-width="1.5" stroke-linecap="round"></path>
    <path d="M11.8842 9.82816C11.9596 9.56512 12 9.28727 12 9C12 7.34315 10.6569 6 9 6C7.34315 6 6 7.34315 6 9C6 10.6569 7.34315 12 9 12C9.23007 12 9.4541 11.9741 9.66932 11.9251" stroke="currentColor" stroke-width="1.5" stroke-linecap="round"></path>
  </symbol>
  <symbol fill="none" xmlns="http://www.w3.org/2000/svg" viewBox="0 0 35 18" id="ic_menu">
    <line y1="1" x2="35" y2="1" stroke="currentColor" stroke-width="2"></line>
    <line y1="9" x2="35" y2="9" stroke="currentColor" stroke-width="2"></line>
    <line y1="17" x2="35" y2="17" stroke="currentColor" stroke-width="2"></line>
  </symbol>
  <symbol fill="none" xmlns="http://www.w3.org/2000/svg" viewBox="0 0 15 15" id="ic_minus">
    <path d="M7.50068 7.5L1.13672 7.5L13.8646 7.5" stroke="currentColor" stroke-width="2" stroke-linecap="round" stroke-linejoin="round"></path>
  </symbol>
  <symbol fill="none" xmlns="http://www.w3.org/2000/svg" viewBox="0 0 20 21" id="ic_phone">
    <path d="M5.90717 2.36067C5.00763 1.79874 3.82782 1.89183 3.06847 2.65118L1.7817 3.93795C-0.172609 5.89227 1.66372 10.8972 5.88327 15.1167C10.1028 19.3363 15.1077 21.1726 17.0621 19.2183L18.3488 17.9315C19.2371 17.0432 19.2137 15.5795 18.2964 14.6622L16.3033 12.6691C15.386 11.7518 13.9222 11.7283 13.0339 12.6166L12.7575 12.893C12.2779 13.3726 11.5042 13.4196 10.9641 12.9739C10.4432 12.544 9.92435 12.0806 9.42188 11.5781C8.9194 11.0756 8.45597 10.5568 8.0261 10.0359C7.58045 9.49581 7.62737 8.72209 8.10699 8.24247L8.38337 7.96609C9.08368 7.26578 9.21731 6.20785 8.79308 5.34197" stroke="currentColor" stroke-width="1.5" stroke-linecap="round"></path>
    <path d="M15.6262 7.75071C15.3822 7.15553 15.0186 6.5979 14.5353 6.11463C14.0793 5.65865 13.5572 5.30918 12.9997 5.06622" stroke="currentColor" stroke-width="1.5" stroke-linecap="round"></path>
    <path d="M12.9992 1.66341C14.3338 2.14691 15.5861 2.92365 16.656 3.99364C17.7529 5.09049 18.5416 6.37883 19.0221 7.75113" stroke="currentColor" stroke-width="1.5" stroke-linecap="round"></path>
  </symbol>
  <symbol fill="none" xmlns="http://www.w3.org/2000/svg" viewBox="0 0 15 15" id="ic_plus">
    <path d="M7.50068 1.13604V7.5M7.50068 13.864V7.5M7.50068 7.5L1.13672 7.5L13.8646 7.5" stroke="currentColor" stroke-width="2" stroke-linecap="round" stroke-linejoin="round"></path>
  </symbol>
  <symbol xmlns="http://www.w3.org/2000/svg" viewBox="0 0 22 22" id="ic_quike_buy">
    <path d="M13.5743 5.41784L13.549 5.43556C13.202 5.6757 12.961 6.03359 12.8731 6.43935C12.2433 6.02245 11.4112 5.98835 10.7917 6.42212C10.414 6.69057 10.1655 7.09677 10.103 7.5486C9.50265 7.23964 8.77423 7.25492 8.21632 7.64557L8.18938 7.66443C7.88701 7.86932 7.66646 8.16861 7.56388 8.51296L5.00796 5.10295C4.3903 4.2789 3.23106 4.06844 2.43218 4.62783C1.63418 5.18659 1.48292 6.314 2.0997 7.13779L7.16414 13.9081L6.42362 13.7175C5.76658 13.5402 5.06609 13.6349 4.48933 13.979C3.92631 14.3185 3.53546 14.87 3.40963 15.5032L3.27548 16.018C3.23226 16.1841 3.31467 16.3579 3.47332 16.4356L11.4559 20.3399C12.9151 21.0532 14.6007 20.9553 15.8513 20.0796L19.5882 17.463L19.5858 17.4598C21.4805 16.1331 21.813 13.4514 20.3368 11.4781C19.6762 10.5952 19.1799 9.93998 18.781 9.40659C17.7141 7.97924 17.3182 7.45409 16.1369 5.88565C15.5188 5.06482 14.371 4.86001 13.5743 5.41784ZM18.1687 9.83222C18.5677 10.3658 19.0617 11.0266 19.7221 11.9095C20.9542 13.5566 20.6882 15.7894 19.1264 16.883L15.4075 19.487C14.3837 20.2039 12.9956 20.2795 11.789 19.6896L4.07931 15.9199L4.14083 15.6804C4.14245 15.6744 4.14348 15.668 4.14483 15.662C4.22936 15.2216 4.49904 14.8369 4.8895 14.5999C5.29172 14.3617 5.77947 14.2976 6.23624 14.4224L7.99093 14.8756C8.14455 14.9156 8.30646 14.8576 8.39541 14.7311C8.48436 14.6047 8.48122 14.4367 8.38758 14.3117L2.70268 6.71602C2.33036 6.2187 2.41209 5.54478 2.87629 5.21974C3.34049 4.8947 4.02882 5.03008 4.40165 5.52749L7.83263 10.105C7.84455 10.1209 7.85584 10.1374 7.86798 10.1536C7.87318 10.1606 7.87923 10.1671 7.88433 10.1739L9.35125 12.131C9.47383 12.2946 9.70895 12.3321 9.87637 12.2149C10.0438 12.0977 10.0801 11.87 9.95756 11.7065L8.44642 9.6904C8.08692 9.21078 8.18109 8.57334 8.63331 8.2567L8.66025 8.23783C9.12475 7.91259 9.80766 8.03743 10.1805 8.53484L11.5228 10.3257C11.6453 10.4892 11.8805 10.5268 12.0479 10.4095C12.2153 10.2923 12.2517 10.0647 12.1291 9.90112L11.0759 8.49608C10.703 7.99853 10.7676 7.33614 11.2347 7.00913C11.699 6.68399 12.3703 6.8309 12.7433 7.3286L13.7368 8.65411C13.8594 8.81764 14.0945 8.85519 14.2619 8.73797C14.4293 8.62074 14.4657 8.3931 14.3431 8.22957L13.8051 7.51179C13.4322 7.01424 13.5284 6.35308 13.9929 6.02783L14.0183 6.01011C14.4816 5.68569 15.156 5.81733 15.529 6.31247C16.7093 7.87975 17.1026 8.40588 18.1687 9.83222Z" fill="currentColor"></path>
    <path d="M1.23368 7.94056C1.40109 7.82334 1.43745 7.5957 1.31487 7.43216C0.472768 6.29873 0.727345 4.72767 1.884 3.91777C3.04081 3.10777 4.66451 3.36364 5.51638 4.49023C5.63896 4.65377 5.87408 4.69132 6.04149 4.57409C6.20891 4.45687 6.24526 4.22923 6.12269 4.06569C5.02524 2.61297 2.93214 2.28252 1.44095 3.32666C-0.0500971 4.3707 -0.377627 6.39611 0.708565 7.8567C0.831143 8.02024 1.06626 8.05779 1.23368 7.94056Z" fill="currentColor"></path>
  </symbol>
  <symbol fill="none" xmlns="http://www.w3.org/2000/svg" viewBox="0 0 15 15" id="ic_reply">
    <path d="M11.875 11.5625V9.37501C11.875 8.81411 11.6767 8.33534 11.28 7.9387C10.8834 7.54206 10.4046 7.34374 9.84372 7.34374H3.98314L6.38939 9.75001L5.72114 10.4087L2.1875 6.87501L5.72114 3.34137L6.38939 4.00001L3.98314 6.40628H9.84372C10.6642 6.40628 11.3641 6.69594 11.9435 7.27526C12.5228 7.85458 12.8125 8.5545 12.8125 9.37501V11.5625H11.875Z" fill="currentColor"></path>
  </symbol>
  <symbol fill="none" xmlns="http://www.w3.org/2000/svg" viewBox="0 0 27 27" id="ic_search">
    <path d="M21.3047 21.4287L25.9996 26.0001" stroke="currentColor" stroke-width="1.38291" stroke-linecap="round" stroke-linejoin="round"></path>
    <ellipse cx="12.9752" cy="12.6904" rx="11.9752" ry="11.6904" stroke="currentColor" stroke-width="1.38291" stroke-linecap="round" stroke-linejoin="round"></ellipse>
  </symbol>
  <symbol fill="none" xmlns="http://www.w3.org/2000/svg" viewBox="0 0 17 18" id="ic_search2">
    <path d="M13.1831 13.7568L16.0001 16.4997" stroke="currentColor" stroke-width="1.03718" stroke-linecap="round" stroke-linejoin="round"></path>
    <ellipse cx="8.18566" cy="8.51422" rx="7.18517" ry="7.01422" stroke="currentColor" stroke-width="1.03718" stroke-linecap="round" stroke-linejoin="round"></ellipse>
    <path d="M12.6669 7.4656C12.6669 6.95395 12.5186 6.45275 12.2392 6.01988C11.9598 5.58702 11.5606 5.24016 11.0878 5.01937" stroke="currentColor" stroke-width="0.942894" stroke-linecap="round" stroke-linejoin="round"></path>
  </symbol>
  <symbol fill="none" xmlns="http://www.w3.org/2000/svg" viewBox="0 0 17 7" id="ic_send">
    <path d="M0 6H7.75H15.5L10.5 1" stroke="currentColor"></path>
  </symbol>
  <symbol fill="none" xmlns="http://www.w3.org/2000/svg" viewBox="0 0 55 55" id="ic_soc_fb">
    <path d="M27.4884 54H27.5155C34.54 53.9994 41.2766 51.2087 46.2436 46.2417C51.2107 41.2746 54.0014 34.538 54.002 27.5136V27.499C54.002 20.471 51.2101 13.7309 46.2406 8.76136C41.2711 3.79185 34.531 1 27.503 1V1C24.0229 0.999726 20.5769 1.68494 17.3616 3.01651C14.1464 4.34809 11.2249 6.29994 8.76406 8.76063C6.30318 11.2213 4.3511 14.1426 3.01927 17.3578C1.68744 20.5729 1.00195 24.0189 1.00195 27.499V27.5136C1.00251 34.538 3.79321 41.2746 8.76026 46.2417C13.7273 51.2087 20.4639 53.9994 27.4884 54V54Z" stroke="currentColor" stroke-width="0.449261" stroke-miterlimit="10"></path>
    <path d="M29.9954 44.3194V29.6298H34.9268L35.6641 23.9068H29.9954V20.2517C29.9954 18.5953 30.4549 17.4654 32.8319 17.4654H35.8646V12.344C34.3972 12.1889 32.9226 12.1136 31.4471 12.1184C27.0755 12.1184 24.0824 14.7856 24.0824 19.6856V23.9068H19.1406V29.6298H24.0824V44.3194H29.9954Z" fill="currentColor"></path>
  </symbol>
  <symbol fill="none" xmlns="http://www.w3.org/2000/svg" viewBox="0 0 55 55" id="ic_soc_instagram">
    <path d="M27.4882 54H27.5154C34.5398 53.9994 41.2764 51.2087 46.2435 46.2417C51.2105 41.2746 54.0013 34.538 54.0018 27.5136V27.499C54.0018 24.0191 53.3164 20.5732 51.9847 17.3582C50.653 14.1432 48.7011 11.222 46.2405 8.76136C43.7798 6.30071 40.8586 4.34881 37.6436 3.01711C34.4286 1.68542 30.9828 1 27.5029 1V1C20.4749 1 13.7348 3.79185 8.76526 8.76136C3.79574 13.7309 1.00391 20.471 1.00391 27.499V27.5136C1.00446 34.5377 3.79486 41.274 8.76146 46.241C13.7281 51.2079 20.4641 53.9989 27.4882 54V54Z" stroke="currentColor" stroke-width="0.449261" stroke-miterlimit="10"></path>
    <path d="M27.5023 16.3607C31.1324 16.3607 31.5606 16.3732 32.9955 16.44C33.8571 16.4507 34.7105 16.6089 35.5186 16.9079C36.1047 17.1331 36.637 17.4789 37.081 17.9229C37.525 18.3669 37.8708 18.8992 38.096 19.4853C38.395 20.2934 38.5532 21.1468 38.5639 22.0084C38.6307 23.4433 38.6432 23.8715 38.6432 27.4995C38.6432 31.1276 38.6307 31.5578 38.5639 32.9927C38.5532 33.8543 38.395 34.7077 38.096 35.5158C37.8708 36.102 37.525 36.6342 37.081 37.0782C36.637 37.5222 36.1047 37.868 35.5186 38.0933C34.7105 38.3922 33.8571 38.5505 32.9955 38.5611C31.5627 38.628 31.1324 38.6405 27.5023 38.6405C23.8722 38.6405 23.444 38.628 22.0112 38.5611C21.1496 38.5505 20.2962 38.3922 19.488 38.0933C18.9019 37.868 18.3696 37.5222 17.9257 37.0782C17.4817 36.6342 17.1359 36.102 16.9106 35.5158C16.6117 34.7077 16.4534 33.8543 16.4428 32.9927C16.3759 31.5578 16.3634 31.1296 16.3634 27.4995C16.3634 23.8694 16.3759 23.4433 16.4428 22.0084C16.4534 21.1468 16.6117 20.2934 16.9106 19.4853C17.1359 18.8992 17.4817 18.3669 17.9257 17.9229C18.3696 17.4789 18.9019 17.1331 19.488 16.9079C20.2962 16.6089 21.1496 16.4507 22.0112 16.44C23.4461 16.3732 23.8743 16.3607 27.5023 16.3607ZM27.5023 13.9106C23.8137 13.9106 23.35 13.9274 21.9005 13.9942C20.7736 14.0146 19.6583 14.2265 18.6025 14.6208C17.7009 14.9692 16.8822 15.5022 16.1988 16.1856C15.5154 16.869 14.9824 17.6878 14.634 18.5893C14.2396 19.6451 14.0278 20.7604 14.0074 21.8873C13.9405 23.3368 13.9238 23.8005 13.9238 27.4891C13.9238 31.1777 13.9405 31.6434 14.0074 33.093C14.0278 34.2199 14.2396 35.3351 14.634 36.391C14.9824 37.2925 15.5154 38.1112 16.1988 38.7947C16.8822 39.4781 17.7009 40.0111 18.6025 40.3595C19.6583 40.7538 20.7736 40.9657 21.9005 40.9861C23.35 41.0529 23.8137 41.0696 27.5023 41.0696C31.1909 41.0696 31.6566 41.0529 33.1062 40.9861C34.2331 40.9657 35.3483 40.7538 36.4042 40.3595C37.3057 40.0111 38.1244 39.4781 38.8078 38.7947C39.4913 38.1112 40.0243 37.2925 40.3727 36.391C40.767 35.3351 40.9789 34.2199 40.9993 33.093C41.0661 31.6434 41.0828 31.1798 41.0828 27.4891C41.0828 23.7984 41.0661 23.3368 40.9993 21.8873C40.9789 20.7604 40.767 19.6451 40.3727 18.5893C40.0243 17.6878 39.4913 16.869 38.8078 16.1856C38.1244 15.5022 37.3057 14.9692 36.4042 14.6208C35.3483 14.2265 34.2331 14.0146 33.1062 13.9942C31.6566 13.9274 31.193 13.9106 27.5023 13.9106Z" fill="currentColor"></path>
    <path d="M27.5036 20.5234C26.1234 20.5234 24.7741 20.9328 23.6265 21.6996C22.4789 22.4665 21.5845 23.5565 21.0564 24.8317C20.5283 26.1069 20.3902 27.5101 20.6596 28.8638C20.9291 30.2175 21.5939 31.4609 22.57 32.4368C23.5462 33.4126 24.7898 34.0771 26.1435 34.3461C27.4973 34.6151 28.9005 34.4766 30.1755 33.9481C31.4506 33.4197 32.5403 32.5249 33.3069 31.3771C34.0734 30.2292 34.4823 28.8798 34.4819 27.4996C34.4819 26.5833 34.3014 25.676 33.9507 24.8295C33.5999 23.9829 33.0859 23.2138 32.4379 22.566C31.7899 21.9181 31.0206 21.4043 30.1739 21.0539C29.3273 20.7034 28.4199 20.5232 27.5036 20.5234ZM27.5036 32.0299C26.6076 32.0299 25.7317 31.7642 24.9867 31.2664C24.2417 30.7686 23.6611 30.0611 23.3182 29.2333C22.9753 28.4055 22.8856 27.4946 23.0604 26.6158C23.2352 25.737 23.6666 24.9297 24.3002 24.2962C24.9338 23.6626 25.741 23.2311 26.6198 23.0563C27.4986 22.8815 28.4095 22.9712 29.2373 23.3141C30.0651 23.657 30.7727 24.2377 31.2705 24.9827C31.7683 25.7277 32.034 26.6036 32.034 27.4996C32.034 28.7011 31.5567 29.8534 30.7071 30.703C29.8575 31.5526 28.7052 32.0299 27.5036 32.0299Z" fill="currentColor"></path>
    <path d="M34.7562 21.8792C35.6572 21.8792 36.3875 21.1489 36.3875 20.248C36.3875 19.347 35.6572 18.6167 34.7562 18.6167C33.8553 18.6167 33.125 19.347 33.125 20.248C33.125 21.1489 33.8553 21.8792 34.7562 21.8792Z" fill="currentColor"></path>
  </symbol>
  <symbol fill="none" xmlns="http://www.w3.org/2000/svg" viewBox="0 0 55 55" id="ic_soc_odnokl">
    <path d="M27.4884 54H27.5155C34.54 53.9994 41.2766 51.2087 46.2436 46.2417C51.2107 41.2746 54.0014 34.538 54.002 27.5136V27.499C54.002 20.471 51.2101 13.7309 46.2406 8.76136C41.2711 3.79185 34.531 1 27.503 1V1C24.0229 0.999726 20.5769 1.68494 17.3616 3.01651C14.1464 4.34809 11.2249 6.29994 8.76406 8.76063C6.30318 11.2213 4.3511 14.1426 3.01927 17.3578C1.68744 20.5729 1.00195 24.0189 1.00195 27.499V27.5136C1.00251 34.538 3.79321 41.2746 8.76026 46.2417C13.7273 51.2087 20.4639 53.9994 27.4884 54V54Z" stroke="currentColor" stroke-width="0.449261" stroke-miterlimit="10"></path>
    <path d="M27.5069 28.0295C28.9806 28.0295 30.4211 27.5925 31.6463 26.7737C32.8715 25.955 33.8265 24.7913 34.3903 23.4298C34.9541 22.0683 35.1016 20.5702 34.8139 19.125C34.5263 17.6797 33.8165 16.3522 32.7743 15.3103C31.7322 14.2685 30.4045 13.559 28.9591 13.2718C27.5138 12.9846 26.0157 13.1324 24.6544 13.6966C23.2931 14.2608 22.1296 15.2161 21.3112 16.4416C20.4928 17.667 20.0562 19.1077 20.0566 20.5813C20.0594 22.5562 20.8453 24.4494 22.242 25.8456C23.6386 27.2419 25.532 28.0273 27.5069 28.0295ZM27.5069 17.4963C28.1172 17.4959 28.7138 17.6765 29.2214 18.0152C29.729 18.354 30.1247 18.8356 30.3586 19.3993C30.5924 19.9629 30.6538 20.5833 30.535 21.1819C30.4162 21.7804 30.1225 22.3303 29.6912 22.7619C29.2598 23.1936 28.7101 23.4876 28.1116 23.6068C27.5132 23.726 26.8928 23.6651 26.3289 23.4316C25.7651 23.1982 25.2832 22.8028 24.9441 22.2954C24.605 21.788 24.4241 21.1915 24.4241 20.5813C24.4257 19.7644 24.7511 18.9814 25.329 18.4039C25.9068 17.8265 26.69 17.5016 27.5069 17.5005V17.4963Z" fill="currentColor"></path>
    <path d="M30.5215 34.1078C32.0509 33.7567 33.5103 33.1509 34.8388 32.3157C35.329 32.0074 35.6767 31.517 35.8054 30.9524C35.9341 30.3878 35.8332 29.7952 35.5249 29.3049C35.2166 28.8147 34.7263 28.467 34.1616 28.3383C33.597 28.2096 33.0043 28.3105 32.5141 28.6188C31.0108 29.5579 29.2738 30.0558 27.5013 30.0558C25.7287 30.0558 23.9918 29.5579 22.4885 28.6188C21.9982 28.3105 21.4056 28.2096 20.841 28.3383C20.2763 28.467 19.7859 28.8147 19.4777 29.3049C19.1694 29.7952 19.0685 30.3878 19.1972 30.9524C19.3258 31.517 19.6735 32.0074 20.1638 32.3157C21.4951 33.1513 22.9573 33.7571 24.4894 34.1078L20.3246 38.2726C19.9153 38.682 19.6853 39.2372 19.6853 39.8161C19.6853 40.3951 19.9153 40.9503 20.3246 41.3597C20.734 41.769 21.2892 41.999 21.8682 41.999C22.4471 41.999 23.0023 41.769 23.4117 41.3597L27.5034 37.2659L31.5993 41.3597C31.8003 41.5695 32.0413 41.7372 32.308 41.8527C32.5747 41.9682 32.8617 42.0293 33.1524 42.0324C33.443 42.0355 33.7313 41.9805 34.0004 41.8706C34.2695 41.7608 34.5139 41.5983 34.7194 41.3927C34.9248 41.1871 35.0872 40.9426 35.1968 40.6734C35.3065 40.4042 35.3613 40.1159 35.358 39.8253C35.3547 39.5346 35.2935 39.2476 35.1778 38.981C35.062 38.7143 34.8943 38.4735 34.6842 38.2726L30.5215 34.1078Z" fill="currentColor"></path>
  </symbol>
  <symbol fill="none" xmlns="http://www.w3.org/2000/svg" viewBox="0 0 55 55" id="ic_soc_telegram">
    <path d="M27.502 1C20.4735 1.00055 13.7332 3.79296 8.7635 8.76301C3.79384 13.7331 1.00195 20.4737 1.00195 27.5021C1.00086 30.9813 1.68515 34.4266 3.01576 37.6413C4.34636 40.856 6.29721 43.7771 8.75688 46.2377C11.2166 48.6983 14.1369 50.6503 17.351 51.9822C20.5652 53.3141 24.0102 53.9997 27.4894 54H27.5166C34.5413 53.9994 41.2782 51.2086 46.2454 46.2414C51.2127 41.2741 54.0035 34.5373 54.004 27.5125V27.5125C54.0054 24.0313 53.3209 20.584 51.9897 17.3674C50.6585 14.1508 48.7065 11.228 46.2455 8.76597C43.7844 6.30391 40.8624 4.35086 37.6463 3.01835C34.4302 1.68585 30.9831 1 27.502 1V1Z" stroke="currentColor" stroke-width="0.449261" stroke-miterlimit="10"></path>
    <path d="M38.5847 16.6471L13.4215 26.1781C12.045 26.5749 12.0889 27.9347 13.1061 28.2668L19.4142 30.2344L21.8267 37.6349C22.1212 38.4432 22.3593 38.7482 22.8606 38.7565C23.3619 38.7649 23.5896 38.5706 24.1368 38.086C24.776 37.4866 25.7514 36.5403 27.2929 35.0406L33.8516 39.8886C35.0589 40.5549 35.9404 40.2103 36.2328 38.767L40.3455 18.4225C40.7842 16.6513 39.7398 16.1228 38.5847 16.6471ZM20.3959 29.7707L34.7268 20.7891C35.4349 20.3149 35.6563 20.8434 35.3367 21.2068L23.4308 31.9117L22.8188 37.2547L20.3959 29.7707Z" fill="currentColor"></path>
  </symbol>
  <symbol fill="none" xmlns="http://www.w3.org/2000/svg" viewBox="0 0 53 53" id="ic_soc_vk">
    <path id="Vector" d="M26.5175 52.7754H26.4903C19.5254 52.7748 12.846 50.0078 7.92105 45.0829C2.99612 40.1579 0.229086 33.4785 0.228537 26.5136V26.499C0.228537 23.0484 0.908211 19.6316 2.22875 16.4437C3.54929 13.2558 5.48482 10.3593 7.92484 7.91947C10.3649 5.47965 13.2616 3.54434 16.4495 2.22405C19.6375 0.903763 23.0544 0.224359 26.5049 0.224631C33.4733 0.224631 40.1563 2.99281 45.0837 7.9202C50.0111 12.8476 52.7793 19.5306 52.7793 26.499V26.5136C52.7787 33.4785 50.0117 40.1579 45.0868 45.0829C40.1618 50.0078 33.4824 52.7748 26.5175 52.7754Z" stroke="currentColor" stroke-width="0.449261"></path>
    <path d="M36.431 27.2591C35.4514 26.2147 34.0228 25.5046 32.4876 25.1704V25.0284C33.5874 24.5774 34.5267 23.8069 35.1841 22.8165C35.8384 21.7925 36.1796 20.5998 36.1658 19.3848C36.1871 18.3672 35.9492 17.3609 35.4744 16.4606C34.9899 15.5836 34.2556 14.8704 33.3648 14.4117C32.4937 13.9354 31.5457 13.6158 30.5639 13.4676C29.1089 13.2897 27.6434 13.2115 26.1777 13.2336H16.6973V39.7681H27.408C28.934 39.7805 30.4545 39.5852 31.9278 39.1875C33.1183 38.8405 34.228 38.2604 35.1924 37.481C36.0365 36.8152 36.7197 35.9678 37.1913 35.0018C37.6996 33.9197 37.9478 32.7338 37.9161 31.5387C37.9161 29.7488 37.4085 28.3138 36.431 27.2591ZM23.2724 18.0564H23.899C25.077 18.0564 25.9647 18.0814 26.56 18.0982C27.0912 18.1059 27.6163 18.2136 28.1077 18.4156C28.5555 18.6052 28.9176 18.9532 29.1248 19.3931C29.3334 19.7994 29.4456 20.2482 29.4528 20.7048C29.464 21.2275 29.3613 21.7463 29.152 22.2254C28.923 22.6894 28.5333 23.0545 28.0555 23.253C27.6171 23.4789 27.1403 23.6206 26.6498 23.6707C26.1944 23.6958 25.3966 23.7564 24.2708 23.7564H23.2682L23.2724 18.0564ZM30.706 33.1136C30.4093 33.6319 29.9453 34.0341 29.3901 34.254C28.705 34.5506 28.0346 34.7971 27.3745 34.82C26.7145 34.843 25.5219 34.9433 23.8008 34.9433H23.2766V28.1447H24.6676C25.8456 28.1447 26.7876 28.1655 27.4894 28.1843C28.0509 28.1797 28.6093 28.2686 29.1416 28.4475C29.7331 28.634 30.2525 28.9987 30.6287 29.4918C30.9587 29.9514 31.1237 30.5905 31.1237 31.403C31.133 31.9995 30.9891 32.5885 30.706 33.1136Z" fill="currentColor"></path>
  </symbol>
  <symbol fill="none" xmlns="http://www.w3.org/2000/svg" viewBox="0 0 55 55" id="ic_soc_whatsapp">
    <path d="M27.5 1C20.4716 1.00055 13.7312 3.79296 8.76154 8.76301C3.79189 13.7331 1 20.4737 1 27.5021V27.5021C0.998904 30.9813 1.68319 34.4266 3.0138 37.6413C4.3444 40.856 6.29524 43.7771 8.75491 46.2377C11.2146 48.6983 14.1349 50.6503 17.3491 51.9822C20.5632 53.3141 24.0083 53.9997 27.4875 54H27.5146C34.5394 53.9994 41.2762 51.2086 46.2435 46.2414C51.2107 41.2741 54.0015 34.5373 54.0021 27.5125C54.0035 24.0313 53.319 20.584 51.9877 17.3674C50.6565 14.1508 48.7046 11.228 46.2435 8.76597C43.7824 6.30391 40.8604 4.35086 37.6443 3.01835C34.4283 1.68585 30.9812 1 27.5 1V1Z" stroke="currentColor" stroke-width="0.449261" stroke-miterlimit="10"></path>
    <path fill-rule="evenodd" clip-rule="evenodd" d="M27.7453 13.9292C25.4046 13.9302 23.1061 14.5527 21.0848 15.7331C19.0635 16.9135 17.3919 18.6093 16.2407 20.6474C15.0895 22.6855 14.5001 24.9927 14.5328 27.3331C14.5654 29.6736 15.2188 31.9635 16.4264 33.9687L14.041 41.0704L21.3517 38.729C23.1172 39.7036 25.0824 40.2612 27.0967 40.3593C29.111 40.4573 31.1211 40.0931 32.973 39.2946C34.8248 38.496 36.4694 37.2843 37.7808 35.7522C39.0922 34.2201 40.0356 32.4082 40.5388 30.4553C41.042 28.5024 41.0917 26.4602 40.684 24.4852C40.2763 22.5101 39.422 20.6545 38.1866 19.0605C36.9513 17.4664 35.3675 16.1762 33.5566 15.2886C31.7457 14.4011 29.7558 13.9396 27.7391 13.9396L27.7453 13.9292ZM27.7453 38.1462C25.5913 38.1504 23.4839 37.5182 21.6879 36.329L17.4603 37.6804L18.8326 33.5969C17.3842 31.5961 16.6513 29.1661 16.7521 26.6982C16.8528 24.2302 17.7813 21.868 19.388 19.992C20.9947 18.116 23.1861 16.8353 25.6092 16.3563C28.0323 15.8773 30.5461 16.2278 32.7457 17.3513C34.9454 18.4749 36.7029 20.3061 37.7351 22.5501C38.7674 24.794 39.0143 27.3201 38.4361 29.7215C37.8579 32.1229 36.4883 34.2598 34.5479 35.788C32.6074 37.3163 30.2091 38.1469 27.7391 38.1462H27.7453ZM33.9427 30.1484C33.6105 29.9666 31.9834 29.0894 31.6784 28.964C31.3735 28.8387 31.15 28.776 30.914 29.1061C30.6779 29.4361 30.0012 30.1692 29.7965 30.3865C29.5918 30.6037 29.3933 30.6246 29.0612 30.4429C28.0808 30.0104 27.1836 29.4095 26.4106 28.6674C25.6984 27.9586 25.0958 27.1476 24.6226 26.2612C24.4367 25.9165 24.6226 25.7411 24.796 25.5802C24.9694 25.4194 25.149 25.198 25.3245 25.0079C25.4699 24.8426 25.5902 24.6568 25.6816 24.4565C25.7303 24.3656 25.7557 24.2641 25.7557 24.1609C25.7557 24.0578 25.7303 23.9563 25.6816 23.8654C25.6023 23.6941 24.9903 22.0085 24.7333 21.3234C24.4764 20.6383 24.1944 20.7385 23.996 20.7302C23.7976 20.7218 23.5783 20.6884 23.3506 20.68C23.1796 20.6773 23.0099 20.7103 22.8524 20.7768C22.6949 20.8434 22.553 20.942 22.4357 21.0664C22.0407 21.4135 21.7223 21.839 21.5008 22.3159C21.2793 22.7927 21.1595 23.3104 21.149 23.8361C21.0885 25.5071 22.2352 27.1447 22.4023 27.387C22.5694 27.6293 24.5955 31.2157 27.973 32.6966C31.3505 34.1776 31.3714 33.7243 31.9897 33.6909C32.6079 33.6575 34.0179 32.9494 34.327 32.1724C34.6361 31.3953 34.6633 30.7102 34.5839 30.5765C34.5045 30.4429 34.2727 30.3301 33.9427 30.1484Z" fill="currentColor"></path>
  </symbol>
  <symbol xmlns="http://www.w3.org/2000/svg" viewBox="0 0 15 14" id="ic_star">
    <path d="M7.5 0L9.80118 4.3327L14.6329 5.18237L11.2234 8.7098L11.9084 13.5676L7.5 11.415L3.09161 13.5676L3.77661 8.7098L0.367076 5.18237L5.19882 4.3327L7.5 0Z" fill="currentColor"></path>
  </symbol>
  <symbol fill="none" xmlns="http://www.w3.org/2000/svg" viewBox="0 0 27 27" id="ic_telegram">
    <path d="M13.4995 1C10.1843 1.00026 7.00505 2.31744 4.66096 4.6618C2.31688 7.00616 1 10.1857 1 13.501C0.999483 15.1421 1.32225 16.7673 1.94987 18.2836C2.57749 19.8 3.49766 21.1779 4.65784 22.3385C5.81802 23.4992 7.19546 24.42 8.71152 25.0482C10.2276 25.6765 11.8525 25.9999 13.4936 26H13.5064C16.8198 25.9997 19.9975 24.6833 22.3404 22.3403C24.6834 19.9972 25.9997 16.8195 26 13.5059V13.5059C26.0006 11.8638 25.6778 10.2377 25.0499 8.72048C24.422 7.20322 23.5013 5.82454 22.3404 4.66319C21.1796 3.50185 19.8013 2.5806 18.2844 1.95205C16.7674 1.32351 15.1415 1 13.4995 1V1Z" stroke="currentColor" stroke-width="0.878793" stroke-miterlimit="10"></path>
    <path d="M18.7275 8.38058L6.85853 12.8763C6.20926 13.0635 6.22995 13.7049 6.70976 13.8616L9.68513 14.7897L10.8231 18.2805C10.962 18.6618 11.0743 18.8056 11.3107 18.8096C11.5472 18.8135 11.6546 18.7219 11.9127 18.4933C12.2142 18.2105 12.6743 17.7642 13.4014 17.0568L16.495 19.3436C17.0644 19.6579 17.4802 19.4953 17.6181 18.8145L19.558 9.21805C19.7649 8.38255 19.2723 8.13328 18.7275 8.38058ZM10.1482 14.571L16.9078 10.3343C17.2418 10.1107 17.3462 10.36 17.1955 10.5314L11.5797 15.5809L11.291 18.1012L10.1482 14.571Z" fill="currentColor"></path>
  </symbol>
  <symbol xmlns="http://www.w3.org/2000/svg" viewBox="0 0 15 16" id="ic_tooltip">
    <path d="M7.5 15.5C6.01664 15.5 4.5666 15.0601 3.33323 14.236C2.09986 13.4119 1.13856 12.2406 0.570907 10.8701C0.00324965 9.49968 -0.145275 7.99168 0.144114 6.53683C0.433503 5.08197 1.14781 3.7456 2.1967 2.6967C3.2456 1.64781 4.58197 0.933503 6.03683 0.644114C7.49168 0.354725 8.99968 0.50325 10.3701 1.07091C11.7406 1.63856 12.9119 2.59986 13.736 3.83323C14.5601 5.0666 15 6.51664 15 8C14.9979 9.98847 14.207 11.8949 12.8009 13.3009C11.3949 14.707 9.48847 15.4979 7.5 15.5ZM7.5 1.75C6.26387 1.75 5.0555 2.11656 4.02769 2.80332C2.99988 3.49008 2.1988 4.46619 1.72576 5.60823C1.25271 6.75027 1.12894 8.00694 1.3701 9.21932C1.61125 10.4317 2.20651 11.5453 3.08059 12.4194C3.95466 13.2935 5.06831 13.8888 6.28069 14.1299C7.49307 14.3711 8.74974 14.2473 9.89178 13.7743C11.0338 13.3012 12.0099 12.5001 12.6967 11.4723C13.3834 10.4445 13.75 9.23614 13.75 8C13.7482 6.34296 13.0891 4.7543 11.9174 3.5826C10.7457 2.41089 9.15705 1.75182 7.5 1.75Z" fill="currentColor"></path>
    <path d="M8.125 9.87509H6.875V9.41072C6.86577 8.96973 6.97473 8.53431 7.19058 8.14965C7.40643 7.76499 7.7213 7.44511 8.1025 7.22322C8.33342 7.09603 8.51822 6.89909 8.63047 6.66055C8.74272 6.42201 8.77669 6.15409 8.7275 5.89509C8.6788 5.64834 8.55765 5.42171 8.37953 5.24415C8.20141 5.06658 7.9744 4.94614 7.7275 4.89822C7.54733 4.86487 7.36202 4.87154 7.18471 4.91776C7.0074 4.96397 6.84242 5.04861 6.70145 5.16566C6.56048 5.28272 6.44697 5.42934 6.36895 5.59514C6.29094 5.76094 6.25033 5.94186 6.25 6.12509H5C5.00016 5.68416 5.11693 5.25111 5.33847 4.86987C5.56001 4.48864 5.87845 4.17278 6.26147 3.95433C6.64449 3.73589 7.07847 3.62263 7.51939 3.62605C7.96031 3.62947 8.39248 3.74945 8.77207 3.9738C9.15165 4.19816 9.46515 4.51893 9.68075 4.90355C9.89635 5.28818 10.0064 5.72299 9.99971 6.16387C9.99303 6.60475 9.86986 7.03602 9.6427 7.41394C9.41554 7.79185 9.09246 8.10297 8.70625 8.31572C8.52171 8.43109 8.37083 8.59304 8.26879 8.78527C8.16675 8.9775 8.11716 9.19322 8.125 9.41072V9.87509Z" fill="currentColor"></path>
    <path d="M8.125 11.125H6.875V12.375H8.125V11.125Z" fill="currentColor"></path>
  </symbol>
  <symbol fill="none" xmlns="http://www.w3.org/2000/svg" viewBox="0 0 38 30" id="ic_upload">
    <path fill-rule="evenodd" clip-rule="evenodd" d="M17.6763 0.0716091C15.5735 0.31402 13.5812 1.02065 11.8963 2.12176C9.40868 3.74748 7.55589 6.15695 6.61181 8.99413C6.32033 9.87001 6.00819 11.334 6.00819 11.825C6.00819 12.1281 5.93625 12.1805 5.31472 12.3303C3.88563 12.6749 2.3629 13.6986 1.43443 14.9393C0.443303 16.2635 -0.0929854 18.0506 0.0132913 19.675C0.218636 22.8162 2.30946 25.3533 5.39662 26.2077C5.93707 26.3573 6.18069 26.3684 9.51978 26.3967L13.0685 26.4268V25.2312V24.0357L9.66842 24.0129L6.26831 23.9901L5.68193 23.7818C4.75182 23.4515 4.08102 22.9887 3.47323 22.258C3.11694 21.8298 2.63996 20.8597 2.51392 20.3073C2.39642 19.7921 2.39761 18.6988 2.51622 18.1915C2.98131 16.2033 4.68181 14.7028 6.68918 14.5096C7.4983 14.4317 7.63237 14.3963 7.86662 14.1982C8.22291 13.8971 8.29552 13.6741 8.37935 12.6237C8.51432 10.9336 8.83136 9.76041 9.52105 8.39919C10.9446 5.58979 13.502 3.55897 16.5244 2.83816C20.9462 1.78371 25.47 3.56666 27.9504 7.34153C28.6751 8.44429 29.0975 9.42543 29.4931 10.9252C29.7246 11.8023 29.9349 12.005 30.804 12.1887C32.0299 12.4478 32.9357 12.9287 33.8283 13.7947C37.2973 17.1601 35.5086 23.0565 30.7566 23.9209C30.3579 23.9933 29.4529 24.023 27.5794 24.0248L24.9596 24.0275V25.2279V26.4284L27.9138 26.3961C30.3739 26.3691 30.9613 26.342 31.4254 26.234C33.8949 25.6594 35.9523 24.0911 37.0623 21.9371C37.7587 20.5856 38.004 19.5604 38 18.0176C37.9985 17.4427 37.9545 16.7708 37.9021 16.5245C37.532 14.7804 36.7738 13.3507 35.5864 12.1579C34.6374 11.2046 33.5577 10.5381 32.2719 10.1118L31.669 9.91196L31.5417 9.43939C31.4716 9.17943 31.2746 8.61786 31.1039 8.1915C29.6646 4.59752 26.666 1.81231 22.953 0.620709C21.2642 0.0787761 19.3461 -0.120856 17.6763 0.0716091ZM18.5682 14.5891C18.4082 14.658 17.3712 15.6409 15.8745 17.1424L13.4409 19.5838L14.2756 20.4248L15.1104 21.2656L16.4677 19.9036L17.825 18.5417V24.2708V30H19.0141H20.2032V24.2708V18.5417L21.5783 19.9215L22.9534 21.3013L23.7889 20.462L24.6244 19.6227L22.1722 17.1516C20.8191 15.7879 19.613 14.6336 19.481 14.5759C19.1775 14.4433 18.8979 14.4474 18.5682 14.5891Z" fill="currentColor"></path>
  </symbol>
  <symbol fill="none" xmlns="http://www.w3.org/2000/svg" viewBox="0 0 27 27" id="ic_user">
    <path d="M26 25.9995C26 21.8574 23.2018 18.4995 19.75 18.4995H7.25L6.97889 18.5064C3.65288 18.6768 1 21.9664 1 25.9995" stroke="currentColor" stroke-width="1.27982" stroke-linecap="round"></path>
    <path fill-rule="evenodd" clip-rule="evenodd" d="M13.5 1C17.6421 1 21 4.35786 21 8.5C21 12.6421 17.6421 16 13.5 16C9.35786 16 6 12.6421 6 8.5C6 4.35786 9.35786 1 13.5 1Z" stroke="currentColor" stroke-width="1.27982"></path>
  </symbol>
  <symbol xmlns="http://www.w3.org/2000/svg" viewBox="0 0 19 21" id="ic_video_play">
    <path d="M18.5781 10.4998L0.459705 20.9605V0.0391703L18.5781 10.4998Z" fill="currentColor"></path>
  </symbol>
  <symbol xmlns="http://www.w3.org/2000/svg" viewBox="0 0 20 14" id="ic_view">
    <path fill-rule="evenodd" clip-rule="evenodd" d="M9.99997 0.25C5.91882 0.25 2.36847 2.51686 0.542558 5.85557C0.152487 6.56882 0.15248 7.43102 0.54254 8.14428C2.36843 11.4831 5.91882 13.75 10 13.75C14.0812 13.75 17.6315 11.4831 19.4574 8.14443C19.8475 7.43118 19.8475 6.56898 19.4575 5.85572C17.6316 2.51694 14.0812 0.25 9.99997 0.25ZM10 4.75C8.75736 4.75 7.75 5.75736 7.75 7C7.75 8.24264 8.75736 9.25 10 9.25C10.6805 9.25 11.2904 8.94794 11.7029 8.47059C11.0168 8.33275 10.5 7.72673 10.5 7C10.5 6.27327 11.0168 5.66725 11.7029 5.52941C11.2904 5.05206 10.6805 4.75 10 4.75ZM6.25 7C6.25 4.92893 7.92893 3.25 10 3.25C12.0711 3.25 13.75 4.92893 13.75 7C13.75 9.07107 12.0711 10.75 10 10.75C7.92893 10.75 6.25 9.07107 6.25 7Z" fill="currentColor"></path>
  </symbol>
  <symbol fill="none" xmlns="http://www.w3.org/2000/svg" viewBox="0 0 27 27" id="ic_vk">
    <path d="M13.4936 26H13.5064C16.8198 25.9997 19.9975 24.6834 22.3404 22.3404C24.6834 19.9975 25.9997 16.8198 26 13.5064V13.4995C26 10.1844 24.6831 7.00513 22.339 4.66102C19.9949 2.31691 16.8156 1 13.5005 1V1C11.859 0.999871 10.2335 1.32308 8.71684 1.95119C7.20021 2.57929 5.82216 3.49997 4.66137 4.66067C3.50058 5.82137 2.57978 7.19935 1.95156 8.71593C1.32334 10.2325 1 11.858 1 13.4995V13.5064C1.00026 16.8198 2.31663 19.9975 4.65958 22.3404C7.00252 24.6834 10.1802 25.9997 13.4936 26V26Z" stroke="currentColor" stroke-miterlimit="10"></path>
    <path fill-rule="evenodd" clip-rule="evenodd" d="M13.0332 18.4218H13.981C13.981 18.4218 14.2667 18.3903 14.4135 18.2327C14.5603 18.075 14.5436 17.8169 14.5436 17.8169C14.5436 17.8169 14.5249 16.545 15.115 16.3578C15.7051 16.1706 16.4441 17.5864 17.2352 18.1312C17.8342 18.542 18.2894 18.4524 18.2894 18.4524L20.4066 18.4228C20.4066 18.4228 21.514 18.3539 20.9889 17.4839C20.9455 17.412 20.6825 16.8396 19.4125 15.6622C18.0845 14.4297 18.2628 14.6297 19.8618 12.4977C20.8362 11.2002 21.2253 10.408 21.1032 10.0681C20.9879 9.74498 20.2717 9.82971 20.2717 9.82971L17.8874 9.84548C17.7818 9.83258 17.6748 9.85145 17.58 9.89966C17.4895 9.96575 17.417 10.0535 17.3692 10.1548C17.1232 10.7952 16.8298 11.4163 16.4914 12.013C15.4303 13.8149 15.0056 13.9105 14.8322 13.7982C14.4283 13.5371 14.5298 12.7509 14.5298 12.1913C14.5298 10.4445 14.7948 9.71641 14.0135 9.53119C13.7544 9.46814 13.5633 9.42676 12.9012 9.41986C12.05 9.41198 11.3308 9.41986 10.9229 9.62282C10.6519 9.75484 10.4421 10.0514 10.5702 10.0681C10.7278 10.0888 11.0845 10.1667 11.2736 10.4218C11.518 10.7539 11.5091 11.5056 11.5091 11.5056C11.5091 11.5056 11.65 13.5617 11.181 13.8169C10.8598 13.9923 10.4194 13.6346 9.47264 11.9992C9.15147 11.4303 8.86746 10.8412 8.62239 10.2356C8.57844 10.133 8.51094 10.0422 8.42535 9.9706C8.31471 9.89721 8.19038 9.84695 8.05983 9.82282L5.79382 9.83661C5.79382 9.83661 5.45392 9.84646 5.3288 9.99424C5.21845 10.1263 5.31993 10.3982 5.31993 10.3982C5.31993 10.3982 7.09333 14.547 9.10219 16.6386C10.9436 18.5558 13.0342 18.4297 13.0342 18.4297L13.0332 18.4218Z" fill="currentColor"></path>
  </symbol>
  <symbol fill="none" xmlns="http://www.w3.org/2000/svg" viewBox="0 0 27 27" id="ic_whatsapp">
    <path d="M13.4995 1C10.1843 1.00026 7.00505 2.31744 4.66096 4.6618C2.31688 7.00616 1 10.1857 1 13.501V13.501C0.999483 15.1421 1.32225 16.7673 1.94987 18.2836C2.57749 19.8 3.49766 21.1779 4.65783 22.3385C5.81801 23.4992 7.19546 24.42 8.71152 25.0482C10.2276 25.6765 11.8525 25.9999 13.4936 26H13.5064C16.8198 25.9997 19.9975 24.6833 22.3404 22.3403C24.6834 19.9972 25.9997 16.8195 26 13.5059C26.0006 11.8638 25.6778 10.2377 25.0499 8.72048C24.422 7.20322 23.5013 5.82454 22.3404 4.66319C21.1796 3.50185 19.8013 2.5806 18.2844 1.95205C16.7674 1.32351 15.1415 1 13.4995 1V1Z" stroke="currentColor" stroke-miterlimit="10"></path>
    <path fill-rule="evenodd" clip-rule="evenodd" d="M13.6144 7.09863C12.5104 7.09912 11.4262 7.39275 10.4728 7.94953C9.51941 8.5063 8.73092 9.30624 8.18793 10.2676C7.64495 11.2289 7.36695 12.3172 7.38234 13.4212C7.39772 14.5252 7.70595 15.6054 8.27552 16.5512L7.15039 19.9011L10.5987 18.7966C11.4315 19.2563 12.3584 19.5194 13.3085 19.5656C14.2586 19.6119 15.2067 19.4401 16.0802 19.0634C16.9537 18.6868 17.7294 18.1152 18.348 17.3925C18.9665 16.6698 19.4115 15.8152 19.6489 14.894C19.8862 13.9728 19.9096 13.0095 19.7173 12.0779C19.525 11.1462 19.1221 10.2709 18.5394 9.51904C17.9567 8.76714 17.2096 8.15856 16.3555 7.73988C15.5013 7.32121 14.5627 7.10354 13.6115 7.10355L13.6144 7.09863ZM13.6144 18.5217C12.5984 18.5237 11.6044 18.2255 10.7573 17.6646L8.7632 18.302L9.41049 16.3758C8.7273 15.4321 8.38163 14.2858 8.42915 13.1217C8.47667 11.9576 8.91462 10.8434 9.67246 9.95844C10.4303 9.07352 11.4639 8.46943 12.6068 8.24348C13.7498 8.01753 14.9355 8.18286 15.973 8.71284C17.0106 9.24282 17.8395 10.1066 18.3264 11.1651C18.8133 12.2236 18.9298 13.4151 18.6571 14.5478C18.3843 15.6806 17.7383 16.6885 16.8231 17.4094C15.9078 18.1303 14.7765 18.5221 13.6115 18.5217H13.6144ZM16.5376 14.7492C16.3809 14.6635 15.6134 14.2497 15.4696 14.1905C15.3258 14.1314 15.2203 14.1019 15.109 14.2575C14.9977 14.4132 14.6785 14.759 14.5819 14.8615C14.4854 14.964 14.3918 14.9738 14.2351 14.8881C13.7727 14.6841 13.3495 14.4007 12.9849 14.0506C12.6489 13.7163 12.3647 13.3337 12.1415 12.9156C12.0538 12.753 12.1415 12.6703 12.2233 12.5944C12.3051 12.5185 12.3898 12.4141 12.4726 12.3244C12.5412 12.2465 12.5979 12.1588 12.641 12.0643C12.664 12.0215 12.676 11.9736 12.676 11.9249C12.676 11.8763 12.664 11.8284 12.641 11.7855C12.6036 11.7047 12.3149 10.9096 12.1937 10.5865C12.0726 10.2633 11.9396 10.3106 11.846 10.3066C11.7524 10.3027 11.6489 10.2869 11.5415 10.283C11.4609 10.2817 11.3809 10.2973 11.3066 10.3286C11.2323 10.36 11.1653 10.4066 11.11 10.4653C10.9237 10.629 10.7735 10.8297 10.669 11.0546C10.5645 11.2795 10.508 11.5237 10.5031 11.7717C10.4745 12.5599 11.0154 13.3324 11.0942 13.4467C11.1731 13.5609 12.1287 15.2526 13.7218 15.9512C15.3149 16.6497 15.3248 16.4359 15.6164 16.4202C15.908 16.4044 16.5731 16.0704 16.7189 15.7039C16.8647 15.3374 16.8775 15.0142 16.84 14.9512C16.8026 14.8881 16.6932 14.8349 16.5376 14.7492Z" fill="currentColor"></path>
  </symbol>
  <symbol fill="none" xmlns="http://www.w3.org/2000/svg" viewBox="0 0 25 25" id="ic_youtube">
    <path d="M12.5059 24.5C12.5059 24.5 12.5059 24.5 12.5059 24.5C15.687 24.4997 18.7378 23.2359 20.9871 20.9865C23.2364 18.7371 24.5 15.6864 24.5 12.5054V12.4995C24.5 9.31705 23.2357 6.26493 20.9853 4.01458C18.7349 1.76424 15.6826 0.5 12.5 0.5C9.3174 0.5 6.26514 1.76424 4.01471 4.01458C1.76427 6.26493 0.5 9.31705 0.5 12.4995V12.5054C0.5 15.6862 1.7635 18.7368 4.0126 20.9862C6.26169 23.2355 9.31217 24.4995 12.4931 24.5H12.5059ZM12.5059 24.5H12.4932H12.5059Z" stroke="currentColor"></path>
    <path d="M16.0587 14.7051C15.8314 14.7051 15.7175 14.8788 15.7168 15.2263V15.575H16.3986V15.2302C16.3986 14.8785 16.2843 14.7051 16.0587 14.7051Z" fill="currentColor"></path>
    <path d="M17.7228 12.7927C17.6597 12.5043 17.5085 12.2427 17.2901 12.0439C17.0718 11.8452 16.7971 11.7192 16.5041 11.6834C15.105 11.5277 13.6902 11.5267 12.2803 11.5277C10.8703 11.5287 9.45551 11.5277 8.05644 11.6834C7.76352 11.7192 7.48892 11.845 7.2706 12.0436C7.05228 12.2421 6.90101 12.5035 6.83768 12.7918C6.64062 13.6459 6.64062 14.578 6.64062 15.4578C6.64062 16.3376 6.64062 17.2696 6.83768 18.1238C6.90071 18.4119 7.05162 18.6733 7.26957 18.872C7.48752 19.0707 7.76177 19.1969 8.05447 19.2331C9.45354 19.3898 10.8684 19.3898 12.2783 19.3898C13.6882 19.3898 15.103 19.3898 16.5021 19.2331C16.795 19.1974 17.0696 19.0715 17.2879 18.873C17.5063 18.6744 17.6575 18.413 17.7209 18.1248C17.9179 17.2706 17.9179 16.3386 17.9179 15.4587C17.9179 14.5789 17.9199 13.6469 17.7228 12.7927ZM9.85652 13.5612H9.03973V17.8962H8.28207V13.5612H7.48007V12.8509H9.85652V13.5612ZM11.9157 17.8962H11.2339V17.4854C10.963 17.7967 10.7058 17.9474 10.4546 17.9474C10.2349 17.9474 10.0841 17.8587 10.0161 17.6676C9.96857 17.4854 9.94832 17.2971 9.95603 17.109V14.1376H10.6368V16.9051C10.633 16.9934 10.6353 17.082 10.6437 17.1701C10.6595 17.2755 10.7117 17.3297 10.8024 17.3297C10.9393 17.3297 11.0822 17.2243 11.2339 17.0105V14.1376H11.9157V17.8962ZM14.505 16.7671C14.5143 17.0215 14.4915 17.2761 14.437 17.5248C14.3454 17.8046 14.1631 17.9474 13.8921 17.9474C13.6498 17.9474 13.4153 17.8134 13.1877 17.5317V17.8962H12.5059V12.8509H13.1877V14.4991C13.4074 14.2282 13.6409 14.0913 13.8921 14.0913C14.1631 14.0913 14.3454 14.2341 14.437 14.5159C14.4925 14.7641 14.5153 15.0184 14.505 15.2725V16.7671ZM17.0775 16.1395H15.7149V16.8065C15.7149 17.1543 15.8292 17.3287 16.0627 17.3287C16.2302 17.3287 16.3287 17.2371 16.3671 17.0548C16.3805 16.9012 16.3854 16.7469 16.3819 16.5927H17.0775V16.6913C17.0775 16.911 17.0696 17.0627 17.0637 17.1307C17.042 17.2769 16.9874 17.4164 16.9041 17.5385C16.813 17.6714 16.6894 17.7787 16.545 17.8502C16.4006 17.9216 16.2403 17.9547 16.0794 17.9464C15.921 17.9542 15.7631 17.9232 15.6193 17.856C15.4756 17.7889 15.3505 17.6877 15.2548 17.5612C15.1099 17.373 15.036 17.0765 15.036 16.6745V15.3632C15.036 14.9612 15.102 14.6676 15.2469 14.4765C15.3412 14.3506 15.4648 14.2496 15.6069 14.1823C15.7491 14.115 15.9055 14.0834 16.0627 14.0903C16.2181 14.0836 16.3728 14.1153 16.513 14.1827C16.6533 14.25 16.7747 14.351 16.8666 14.4765C17.0095 14.6666 17.0775 14.9602 17.0775 15.3632V16.1395Z" fill="currentColor"></path>
    <path d="M13.5264 14.7051C13.4618 14.7091 13.3987 14.7257 13.3405 14.7541C13.2823 14.7825 13.2304 14.8221 13.1875 14.8706V17.1632C13.2298 17.2126 13.2816 17.2529 13.3398 17.2819C13.3981 17.3108 13.4615 17.3278 13.5264 17.3317C13.7235 17.3317 13.822 17.1632 13.822 16.8233V15.2184C13.824 14.8785 13.7235 14.7051 13.5264 14.7051Z" fill="currentColor"></path>
    <path fill-rule="evenodd" clip-rule="evenodd" d="M11.0985 5.74756H10.327L9.80582 7.74953L9.26393 5.74756H8.46094C8.62153 6.21948 8.78903 6.69534 8.95357 7.16825C9.14484 7.69481 9.30053 8.23363 9.41959 8.78106V10.85H10.1832V8.78106L11.0985 5.74756ZM13.1399 9.61455V8.2845C13.1399 7.87859 13.07 7.58204 12.9261 7.38992C12.8305 7.26858 12.7086 7.17051 12.5696 7.10307C12.4306 7.03564 12.2781 7.0006 12.1236 7.0006C11.9692 7.0006 11.8167 7.03564 11.6777 7.10307C11.5387 7.17051 11.4168 7.26858 11.3212 7.38992C11.1743 7.58204 11.1054 7.88253 11.1054 8.2845V9.61455C11.1054 10.0185 11.1743 10.318 11.3212 10.5082C11.4168 10.6295 11.5387 10.7276 11.6777 10.795C11.8167 10.8624 11.9692 10.8975 12.1236 10.8975C12.2781 10.8975 12.4306 10.8624 12.5696 10.795C12.7086 10.7276 12.8305 10.6295 12.9261 10.5082C13.07 10.319 13.1399 10.0195 13.1399 9.61455ZM12.4503 9.7446C12.4503 10.0963 12.3439 10.2717 12.1212 10.2717C11.8985 10.2717 11.7931 10.0963 11.7931 9.7446V8.14657C11.7931 7.79485 11.8995 7.62047 12.1212 7.62047C12.3429 7.62047 12.4503 7.79485 12.4503 8.14657V9.7446ZM15.6849 10.8451V7.04608H14.9952V9.95051C14.8425 10.1663 14.6996 10.2727 14.5607 10.2727C14.4681 10.2727 14.4139 10.2185 14.3991 10.1121C14.3882 10.0232 14.3853 9.93352 14.3902 9.84411V7.04608H13.7006V10.051C13.6925 10.2412 13.7131 10.4315 13.7616 10.6155C13.8296 10.8126 13.9833 10.8983 14.205 10.8983C14.4553 10.8983 14.7173 10.7456 14.9932 10.4313V10.8461L15.6849 10.8451Z" fill="currentColor"></path>
  </symbol>
</svg>